<svg xmlns="http://www.w3.org/2000/svg" viewBox="0 0 1920.08 16.29"><defs><style>.cls-1{fill:#4d4d4d;}</style></defs><title>Asset 1</title><g id="Layer_2" data-name="Layer 2"><g id="Layer_1-2" data-name="Layer 1"><path class="cls-1" d="M1120,9.47h.25a.7.7,0,0,1,.77-.37c.25-1,.43-1.65-.38-2.22h-.25c-.11-.3-.34-.52-.46-.82a6.76,6.76,0,0,0-1.52.35l0,.4a11.23,11.23,0,0,0-1.3,1,3,3,0,0,0-2.08,1.53c0,.23-.47.44,0,.6l0,.4h-.25a6.78,6.78,0,0,0-3.26.29.3.3,0,0,1-.23-.41,11.87,11.87,0,0,1,1.59-1.75c.18-.54,1.07-.46,1.06-1.17-.19-.56-1.21-.52-1.18-1.24-2.64-.15-4.89,1.63-2.65,2.91,0,.62.65.8.93,1.23-.69.79-3.45-.25-4.29.86a1.92,1.92,0,0,0-1.24-.24V11c-.25,0-.29-.17-.49-.22-.06.15,0,.39-.27.39,0-.16,0-.39-.23-.41-.15.32-.81.2-1.39.14,0-1.63,2.29-1.29,2.66-2.61-.55-.33-.45-.43-.2-1-1.25.28-.76-.72-1.71-.66-3,.14-4.25,3.15-1.88,4.25-.58,0-.75.32-1.5.15-.11-.28-1.66-.07-2,.13-1.14-.25-2.18.29-2.74-.09a3.5,3.5,0,0,1,2.12-2.33c1.14,0,1.35-1.64,1.11-2.16.58-.12-.59-1,.06-1.2-.62,0-.75-.4-1.25,0-.39,0-.17-.52-.73-.43,0-.16,0-.39-.23-.41-.43.74-2.47.08-2.56,1.11-2.18,1-1.46,4.35.23,5.21V11c-.27.27-1.49.54-.75,0a50.16,50.16,0,0,1-6.7-.83c0-.2.21-.23.27-.39s.61-.16,1-.17c-.48-.75.48-.79.34-1.79.15,0,.3,0,.26-.19h.25a17.61,17.61,0,0,1,2-.93l0-.8c.62-.51-.14-1.18-1.19-1,.2-.53-.49-.4-.72-.63a.3.3,0,0,1-.23-.41c-1,.17-1.14-.17-1.77.34a1.5,1.5,0,0,1-.74.3,13.71,13.71,0,0,0-1.68,2.62h0l0,.4c-.32.62.37.5.46.82.07.65.8.82,1.18,1.24.3,1.25-3.59-.14-4-.34l0-.8a1.53,1.53,0,0,0,1.3-1l.16,0a6.65,6.65,0,0,0-.58-4.14c-.41,0-.72-.14-.87.06-1.22.26-2.7.29-3.3,1.09-1,1.31-.19,3.24,1.28,4.25-.12.34.34.52,0,.6-2.32-.05-3.17,0-4.74,0-.83-.46-1.31,0-2.23-.28a5.1,5.1,0,0,1-1.75.14c.95-1,.44-2.37,2.63-2.51.13-.48-.43-.45-.2-1h0a5.49,5.49,0,0,1-.16-.58,2.25,2.25,0,0,1-.55-.85c-2.33.32-4,.06-4.84,1.84.13.93,1.12,1.22,1.13,2.24a1.64,1.64,0,0,1,1,.23c0,.12,0,.24.24.21l0,.4c-3-.39-4.34.13-7.23-.25-.84-.24.7,0,.28-.59.25,0,.3-.15.51-.18,0-1.21,1.14-1.37,1.61-2.15h.25c.87-.07.43-1.29.6-2-.19-.71.08-.65-.44-1.22a8.49,8.49,0,0,0-4.51.45.33.33,0,0,1-.11.14,13.13,13.13,0,0,0-1.33,2.8,13.67,13.67,0,0,1,.72,1.24c0,.16,0,.39.23.41,0,.29.39.35.47.62h.25c0,.33.68.14.73.43l-1.49-.05a5.78,5.78,0,0,0-2,.13c-.58.11-1.52.35-2-.07a6.21,6.21,0,0,1,1.09-1.76,7.92,7.92,0,0,1,1.11-1.12,3.53,3.53,0,0,0-.44-2.85c-.45-.17-.83-.32-1.21,0a10.14,10.14,0,0,1-2.46.49,5.34,5.34,0,0,0-.85,1.49,4.43,4.43,0,0,0-.23.79,3.62,3.62,0,0,1,.57,1.53c-.14.94,1.66.44,1.42,1.45-1.58,0-2.82-.19-5.23-.18-.28-.8.75-.46.8-1,.71-.51.87-1.51,1.65-2a3.76,3.76,0,0,0,.75-1.54,10.09,10.09,0,0,0,0-2.17,1.82,1.82,0,0,0-.55-.49c-.35.88-2.09-1-2.72-.49.25.26-.3.57-.3,1h-.25a3.29,3.29,0,0,1-1.71-.06,3,3,0,0,0-.43.18,1.75,1.75,0,0,0,.13.2,2,2,0,0,0-.66,3c-.07,1.4.92,2,1.86,2.66v.4c-.06.43-.65.41-1.27.36-2.11.15-3.77-.47-5,.23.27-.73-1.3-.41-1.48-.25,0-.24.07-.57-.22-.61.3-1.06.57-2.15,1.87-2.34s-.12-1.12.58-1.58a3,3,0,0,0-1.72-.46,10.25,10.25,0,0,0-4,.66,3.19,3.19,0,0,0,1.8,3.86v.2c.15,0,.29,0,.24.21a45.84,45.84,0,0,1-8.24.12,2.28,2.28,0,0,0,.09-1.8c.69-.3,1.59-.42,1.57-1.35h.23c0-.19.08-.39.12-.58a3.27,3.27,0,0,0-.5-1c-.23-.32-.51-.94-1-1.09-.28-.1-.38-.12-.56-.2-.74,0-1.48.1-2.27.11-.2,0-.38.1-.57.16a5.56,5.56,0,0,0-.94,2.87l0,.08c.08.24.2.46.27.69h.11c-.21.67.48.67.7,1V8A1.57,1.57,0,0,1,1031,9c-.68-.52-1.66-.14-2.37-.31a8.11,8.11,0,0,1-3,.12l0,0a1.13,1.13,0,0,1,0-1,5,5,0,0,0-1.42-3.87l-.06.06h-.25c-.25,0-.3.15-.51.18a2,2,0,0,0-1.19-.25,2.61,2.61,0,0,0-.26.27,7.55,7.55,0,0,1-.44,2.72c.76,0,.48.67.7,1-.06.46.34.58.7.73a13.53,13.53,0,0,1-4.33-.23c.05-.54-.39-.42,0-.8.08-.38-.26-.45-.21-.81.78-.18,1.72-1,1.09-1.76.15,0,.3,0,.26-.19a1,1,0,0,0,.32-1.39c0-.67-.19-1.93-.6-2.2l-.18-.05-.1,0c.06.34-.72.12-1.46-.16a5.53,5.53,0,0,0-.93.15c-.35.56-1,.67-.92,1.3-.57,0-1.11-.11-1.63-.16a3.79,3.79,0,0,0-.42.61,3.07,3.07,0,0,0-.3,1.67c.42,1.93,1.66,3.25,4.31,3.54-2.18.68-5.41.41-8.18.59a4.11,4.11,0,0,0,.18-1.54,1.6,1.6,0,0,1,.46-.3,6.94,6.94,0,0,0,.16-.92V6c0-.44-.1-1.32-.67-1.57-1.2.19-1.7,1.21-2.81.3-1,1.06-.58,2.94.28,4.12-1.12-.5-3.49.3-4.65-.58.29,0,.29-.31.28-.59,0-.55.44-.39,0-.8a12.43,12.43,0,0,0,1.65-2.95v-.2a2.31,2.31,0,0,0,.13-.74,3.37,3.37,0,0,0-1-1.34,2.33,2.33,0,0,0-1.78.19c-.07.36-.59.53-1.31.61A5.28,5.28,0,0,0,998.34,5c-.14.89.15,1.73,1.54,1.76-.21.54.47.42.46.82v.2c-.06.68,1.51.17,1.45.85a16.37,16.37,0,0,0-5.24,0c-1.1-.32-.2-1-.66-1.62.2,0,.49,0,.51-.18.49-.22,1.4-.64.81-1.17.3,0,.17-.22,0-.4a2.42,2.42,0,0,0,.2-.3V4.93a3.71,3.71,0,0,0-.78-2.3l-.29,0a.58.58,0,0,0,.15-.2l-.21-.21c-.42,0-1.26.2-1.2.57a1.86,1.86,0,0,1-1.43.28,3.07,3.07,0,0,0-1.43,1.11,5,5,0,0,0,1.07,4.35c-1,.28-2.63-.07-3.51.28h-.5l0-.4c-.17-1,.87-.91.6-2l0-.4a.29.29,0,0,1,.07-.32,3.57,3.57,0,0,0-.37-.94,4.39,4.39,0,0,1-.3-.6l-.05,0V4a1.45,1.45,0,0,1,0-.27c-.05-.11-.17-.18-.42-.14-.33.41.17.29-1,.17l0,.4c-1-.22-1,.49-1.92.39a1.65,1.65,0,0,0-.65.67,1.48,1.48,0,0,0,0,.25h-.13a3.62,3.62,0,0,0,0,2.57,10.57,10.57,0,0,0,1.74.88,36.34,36.34,0,0,1-4.76.24A6.22,6.22,0,0,1,982.4,7h0a5.69,5.69,0,0,0,.48-1.48,11.9,11.9,0,0,0-.6-1.54h0a.71.71,0,0,0,0-.09v0c0-.07-.07-.13-.22-.11a1.69,1.69,0,0,0-2,.33c-.8.09-.75-.4-1.25,0L978.4,4c-1,1-1,2.57-.92,3.85.42.87,2.06.83,2.54,1.65l-1.74-.06c-1.21.06-1.21-.09-1.77.54.19-.78-1.36-.28-2-.47a1.13,1.13,0,0,0-.45,0c0-.42-.08-.85.08-1a8.07,8.07,0,0,0-.5-3.13.18.18,0,0,1-.12-.08A.71.71,0,0,0,973.2,5l-1.87.12a2.14,2.14,0,0,0-.7.63c-.47,1.52-.15,3.11,1.6,3.78l-.2.1c-.36.07-.43.22-.75,0a.57.57,0,0,0,0-.08l-.38,0a12.74,12.74,0,0,0-2.87.13c-.21.18-.87,0-1.23,0s-.2-.49-.21-.81c.68.17.77-.17,1.1-.31a4,4,0,0,0,.67-2.38.14.14,0,0,1-.06-.12.87.87,0,0,0-.32-.61,3.42,3.42,0,0,0-3,0c-.95-.06-1.14.54-1.31,1.16-.8.79.1,2-.16,3,.57,0,.93.08,1,.43h-.25c-1,.15-2,.25-3,.36,0-.2,0-.55,0-.6a.86.86,0,0,0,.21-.09.14.14,0,0,1,0-.13A2.69,2.69,0,0,0,962,8.14a.15.15,0,0,1,.12-.14,2.56,2.56,0,0,0,.33-1.13,1.77,1.77,0,0,0-.68-.94.14.14,0,0,1-.12-.06l-.14-.06a13.3,13.3,0,0,1-2.13.17,2.81,2.81,0,0,0-.5,4.88l-.62.1a14.73,14.73,0,0,1-2.34-.38v3c2.92-.32,6.78-1,8.68-.78h.25A58,58,0,0,0,973,14.08a5.71,5.71,0,0,0,3,.1h.5a49.09,49.09,0,0,0,7.49.05l.5,0c5.71-.08,9.53-.18,15.22.12v.2c.87-.32,1.45.2,2.74.09,2,.31,2.82-.35,4.25-.06.6-.1,1.8.31,2-.13l1.25,0,1.49.05c.06-.15,0-.39.27-.39,0,.12,0,.24.24.21a12.84,12.84,0,0,0,3-.1c1.78.24,2.66,0,4.73.16,1.56-.17,3.61.09,5-.23h.25c-.19.32,1.16.36,1,0l.5,0a6.8,6.8,0,0,1,2,.07h.25l1.49.05c.2,0,.49,0,.51-.18a5.87,5.87,0,0,0,3,.1h.25c2,.18,3.82-.33,6-.2V14h.25c2-.15,8.28.5,10.26-.45,0,.07-.27.39-.27.39,2.16.51,4.94.11,7,0,3.82-.13,7.64-.12,11.74-.2h.25c5.27.34,7.88-.12,12.9.31-.05.36.22.48.73.42h.25v.2c1-.09,3.58-.86,3.05,0,4,.58,5.86,1.2,9.46.52a33.63,33.63,0,0,0,9.51-.48c-.12,0,3.69-.44,4-.44,6.66-.1,7.48-.28,12.32-.5V10.58a14.7,14.7,0,0,1-1.32-.91Z"/><path class="cls-1" d="M1118.66,9.33h-.25a.7.7,0,0,0-.77-.38c-.25-1-.42-1.65.39-2.21h.25c.12-.3.34-.52.46-.82a6.7,6.7,0,0,1,1.51.35l0,.4a11.15,11.15,0,0,1,1.3,1,3,3,0,0,1,2.07,1.54c0,.24.47.44,0,.6l0,.4h.25a6.76,6.76,0,0,1,3.26.3.3.3,0,0,0,.23-.41,11.8,11.8,0,0,0-1.59-1.75c-.18-.54-1.07-.46-1.06-1.17.19-.56,1.21-.51,1.19-1.24,2.64-.14,4.89,1.64,2.64,2.92,0,.62-.65.8-.94,1.23.69.79,3.45-.24,4.28.86a1.93,1.93,0,0,1,1.24-.24v.2c.25,0,.29-.17.49-.22.06.15,0,.39.27.39,0-.16,0-.39.23-.41.15.32.81.2,1.39.14,0-1.63-2.29-1.29-2.66-2.61.55-.33.45-.43.2-1,1.25.29.76-.72,1.72-.66,3,.15,4.24,3.15,1.87,4.25.58,0,.75.32,1.5.15.11-.28,1.66-.07,2,.14,1.15-.24,2.18.3,2.74-.09a3.5,3.5,0,0,0-2.11-2.33c-1.14,0-1.35-1.64-1.11-2.17-.58-.12.59-1-.06-1.2.62,0,.75-.4,1.25,0,.39,0,.17-.52.73-.42,0-.16,0-.39.23-.41.43.74,2.47.08,2.55,1.12,2.18,1,1.45,4.35-.24,5.21v.2c.27.27,1.49.55.75,0a50.42,50.42,0,0,0,6.7-.81c0-.2-.21-.23-.27-.39s-.61-.16-1-.17c.48-.75-.48-.79-.34-1.79-.15,0-.3,0-.26-.19h-.25a17.76,17.76,0,0,0-2-.94l0-.8c-.62-.52.14-1.18,1.2-1-.2-.53.5-.4.72-.62a.3.3,0,0,0,.23-.41c1,.17,1.14-.17,1.76.34a1.51,1.51,0,0,0,.74.3A13.64,13.64,0,0,1,1153.76,7h0l0,.4c.32.62-.37.5-.46.82-.08.65-.8.82-1.19,1.24-.3,1.25,3.59-.13,4-.33l0-.8a1.53,1.53,0,0,1-1.3-1l-.16,0a6.66,6.66,0,0,1,.59-4.14c.41,0,.72-.14.87.06,1.22.26,2.7.3,3.3,1.1,1,1.31.18,3.23-1.29,4.24.12.34-.34.52,0,.6,2.32,0,3.18.05,4.75,0,.83-.45,1.31,0,2.23-.27a5.07,5.07,0,0,0,1.75.14c-.94-1-.44-2.37-2.62-2.52-.13-.48.43-.45.2-1h0a5.59,5.59,0,0,0,.16-.58,2.26,2.26,0,0,0,.55-.85c2.33.32,4,.07,4.83,1.85-.14.93-1.13,1.22-1.14,2.24a1.64,1.64,0,0,0-1,.23c0,.12,0,.24-.24.21l0,.4c3-.38,4.34.14,7.23-.23.84-.24-.7,0-.28-.59-.25,0-.3-.15-.51-.18,0-1.21-1.14-1.38-1.6-2.15h-.25c-.87-.08-.43-1.29-.6-2,.19-.71-.08-.66.44-1.22a8.48,8.48,0,0,1,4.51.46.33.33,0,0,0,.11.14,13.17,13.17,0,0,1,1.32,2.81,13.55,13.55,0,0,0-.72,1.23c0,.16,0,.39-.23.41,0,.29-.39.35-.47.61h-.25c0,.33-.69.13-.73.42l1.49,0a5.77,5.77,0,0,1,2,.14c.58.11,1.52.35,2-.06a6.2,6.2,0,0,0-1.09-1.77,7.86,7.86,0,0,0-1.11-1.12,3.53,3.53,0,0,1,.45-2.85c.45-.17.83-.32,1.21,0a10.1,10.1,0,0,0,2.46.5,5.34,5.34,0,0,1,.84,1.49,4.4,4.4,0,0,1,.22.79,3.61,3.61,0,0,0-.57,1.53c.14.94-1.67.43-1.42,1.45,1.58,0,2.82-.18,5.23-.17.28-.8-.75-.46-.8-1-.71-.51-.86-1.51-1.65-2a3.77,3.77,0,0,1-.75-1.54,10.07,10.07,0,0,1,0-2.17,1.81,1.81,0,0,1,.55-.48c.35.88,2.1-1,2.72-.49-.25.26.3.57.3,1h.25a3.31,3.31,0,0,0,1.71-.05,2.87,2.87,0,0,1,.43.18,1.71,1.71,0,0,1-.13.21,2,2,0,0,1,.65,3c.07,1.4-.93,2-1.86,2.66v.4c.06.43.65.41,1.27.36,2.11.15,3.77-.46,5,.24-.27-.73,1.3-.41,1.49-.25,0-.24-.07-.57.22-.61-.3-1.06-.56-2.15-1.86-2.34s.12-1.12-.58-1.58a3,3,0,0,1,1.72-.46,10.23,10.23,0,0,1,4,.67,3.19,3.19,0,0,1-1.8,3.86v.2c-.15,0-.29,0-.24.21a45.84,45.84,0,0,0,8.24.14,2.28,2.28,0,0,1-.09-1.8c-.69-.3-1.59-.43-1.57-1.35h-.23c0-.19-.08-.39-.12-.58a3.29,3.29,0,0,1,.5-1c.23-.32.51-.94,1-1.09.28-.1.38-.12.56-.2.74.05,1.48.1,2.27.11.2,0,.38.11.57.16a5.57,5.57,0,0,1,.93,2.87s0,.06,0,.08c-.08.24-.2.46-.28.69h-.11c.21.67-.48.67-.7,1v.2a1.57,1.57,0,0,0-1.2,1c.68-.52,1.66-.14,2.37-.31a8.13,8.13,0,0,0,3,.13l0,0a1.13,1.13,0,0,0,0-1A5,5,0,0,1,1214.56,4l.06.06h.25c.25,0,.3.15.51.18a2,2,0,0,1,1.19-.25,2.45,2.45,0,0,1,.26.27,7.6,7.6,0,0,0,.43,2.72c-.76,0-.48.67-.7,1,.06.46-.34.58-.7.73a13.53,13.53,0,0,0,4.33-.22c-.05-.54.39-.42,0-.8-.08-.38.26-.45.21-.81-.78-.19-1.72-1-1.09-1.77-.15,0-.3,0-.26-.19a1,1,0,0,1-.32-1.39c0-.67.2-1.93.6-2.2l.18-.05.1,0c-.06.34.72.13,1.46-.15a5.53,5.53,0,0,1,.93.15c.35.56,1,.68.92,1.3.57,0,1.11-.11,1.63-.15a3.92,3.92,0,0,1,.42.61,3.07,3.07,0,0,1,.3,1.67c-.43,1.93-1.67,3.25-4.31,3.53,2.18.69,5.41.42,8.18.6a4.1,4.1,0,0,1-.18-1.54,1.57,1.57,0,0,0-.46-.3,7.15,7.15,0,0,1-.16-.92v0c0-.44.11-1.32.67-1.57,1.2.19,1.69,1.21,2.81.31,1,1.06.57,2.94-.29,4.12,1.12-.5,3.49.31,4.65-.57-.29,0-.29-.31-.28-.59,0-.55-.44-.39,0-.8a12.39,12.39,0,0,1-1.65-3v-.2a2.3,2.3,0,0,1-.13-.74,3.37,3.37,0,0,1,1-1.34,2.33,2.33,0,0,1,1.78.2c.07.36.59.53,1.31.62a5.29,5.29,0,0,1,2.22,2.57c.14.89-.15,1.73-1.54,1.75.21.54-.48.42-.46.81v.2c.06.68-1.51.16-1.45.85a16.37,16.37,0,0,1,5.24,0c1.1-.32.2-1,.67-1.62-.2,0-.49,0-.51-.18-.49-.22-1.39-.64-.81-1.18-.3,0-.16-.22,0-.4a2.36,2.36,0,0,1-.2-.3V5.06a3.72,3.72,0,0,1,.78-2.3l.29,0a.57.57,0,0,1-.15-.2l.21-.21c.42,0,1.26.21,1.19.57a1.85,1.85,0,0,0,1.43.29,3.06,3.06,0,0,1,1.43,1.11,5,5,0,0,1-1.07,4.35c1,.28,2.63-.06,3.51.29h.5l0-.4c.17-1-.87-.91-.6-2l0-.4a.28.28,0,0,0-.07-.32,3.55,3.55,0,0,1,.37-.94,4.54,4.54,0,0,0,.3-.6l.05,0v-.2a1.45,1.45,0,0,0,0-.27c.06-.11.17-.18.42-.14.33.41-.17.29,1,.17l0,.4c1-.22,1,.49,1.92.39a1.66,1.66,0,0,1,.64.68,1.47,1.47,0,0,1,0,.25h.13a3.62,3.62,0,0,1,0,2.57,10.66,10.66,0,0,1-1.74.88,36.47,36.47,0,0,0,4.75.25,6.19,6.19,0,0,0-.36-2.19h0a5.63,5.63,0,0,1-.48-1.48,11.9,11.9,0,0,1,.6-1.53h0a.7.7,0,0,1,0-.08V4c0-.07.07-.13.22-.11a1.69,1.69,0,0,1,2,.34c.8.09.75-.4,1.25,0l.41-.06c1,1,.95,2.57.91,3.86-.42.86-2.06.83-2.54,1.65l1.74-.06c1.21.07,1.21-.09,1.77.54-.19-.78,1.36-.28,2-.46a1.14,1.14,0,0,1,.45,0c0-.42.08-.85-.08-1a8.06,8.06,0,0,1,.5-3.13.18.18,0,0,0,.12-.08.72.72,0,0,1,.35-.27l1.87.13a2.16,2.16,0,0,1,.7.63c.47,1.52.15,3.11-1.61,3.78l.2.1c.36.07.43.23.75,0a.56.56,0,0,1,0-.08l.38,0a12.73,12.73,0,0,1,2.87.14c.21.19.87,0,1.23,0s.2-.49.21-.81c-.69.17-.77-.18-1.1-.31a4,4,0,0,1-.67-2.38.13.13,0,0,0,.06-.12.87.87,0,0,1,.32-.62,3.42,3.42,0,0,1,3,0c.95-.06,1.13.54,1.31,1.16.8.8-.11,2,.15,3-.57,0-.93.08-1,.43h.25c1,.16,2,.25,3,.37,0-.2,0-.55,0-.6a.82.82,0,0,1-.21-.09.13.13,0,0,0,0-.13,2.69,2.69,0,0,1-.56-1.39.15.15,0,0,0-.12-.14,2.57,2.57,0,0,1-.32-1.13,1.77,1.77,0,0,1,.68-.93.14.14,0,0,0,.12-.07l.14-.05a13.39,13.39,0,0,0,2.13.18,2.81,2.81,0,0,1,.49,4.88l.62.1a14.72,14.72,0,0,0,2.34-.38v3c-2.92-.33-6.78-1-8.68-.8h-.25a57.87,57.87,0,0,1-8.17,1.26,5.71,5.71,0,0,1-3,.1h-.5a49.09,49.09,0,0,1-7.49,0l-.5,0c-5.71-.09-9.53-.2-15.22.08v.2c-.87-.32-1.45.2-2.74.09-2,.31-2.82-.36-4.25-.07-.6-.1-1.79.31-2-.14l-1.25,0-1.49,0c-.06-.15,0-.39-.27-.39,0,.12,0,.24-.24.21a12.88,12.88,0,0,1-3-.1c-1.78.23-2.66,0-4.73.15-1.56-.17-3.61.08-5-.24h-.25c.2.32-1.16.36-1,0l-.5,0a6.79,6.79,0,0,0-2,.06H1210l-1.49,0c-.2,0-.49,0-.51-.18a5.87,5.87,0,0,1-3,.1h-.25c-2,.17-3.82-.33-6-.21V14h-.25c-2-.16-8.28.48-10.26-.47,0,.07.27.39.27.39-2.16.51-4.94.09-7,0-3.82-.14-7.64-.13-11.74-.23h-.25c-5.27.32-7.88-.14-12.9.28,0,.36-.23.48-.73.42h-.25v.2c-1-.09-3.58-.87-3.05,0-4,.57-5.86,1.18-9.46.5a33.65,33.65,0,0,1-9.51-.5c.12,0-3.69-.45-4-.45-6.66-.11-7.48-.29-12.32-.52V10.43a14.39,14.39,0,0,0,1.32-.91Z"/><path class="cls-1" d="M1439.4,9.54h.25a.7.7,0,0,1,.77-.37c.25-1,.43-1.65-.38-2.21h-.25c-.11-.3-.34-.52-.46-.82a6.68,6.68,0,0,0-1.52.35l0,.4a11.26,11.26,0,0,0-1.3,1,3,3,0,0,0-2.08,1.53c0,.23-.47.44,0,.6l0,.4h-.25a6.78,6.78,0,0,0-3.26.29.3.3,0,0,1-.23-.41,11.79,11.79,0,0,1,1.59-1.75c.18-.54,1.07-.46,1.06-1.17-.19-.56-1.21-.52-1.18-1.24-2.64-.15-4.89,1.63-2.65,2.91,0,.62.65.8.93,1.23-.69.79-3.45-.25-4.29.86a1.92,1.92,0,0,0-1.24-.24V11c-.25,0-.29-.17-.49-.22-.06.15,0,.39-.27.39,0-.16,0-.39-.23-.41-.15.32-.81.2-1.39.14,0-1.63,2.29-1.29,2.66-2.61-.55-.33-.45-.43-.2-1-1.25.28-.76-.72-1.71-.66-3,.14-4.25,3.15-1.88,4.25-.58,0-.75.32-1.5.15-.11-.28-1.66-.07-2,.13-1.14-.25-2.18.29-2.74-.09a3.5,3.5,0,0,1,2.12-2.33c1.14,0,1.35-1.64,1.11-2.16.58-.12-.59-1,.06-1.2-.62,0-.75-.4-1.25,0-.39,0-.17-.52-.73-.42,0-.16,0-.39-.23-.41-.43.74-2.47.08-2.56,1.11-2.18,1-1.46,4.35.23,5.21v.2c-.27.27-1.49.54-.75,0a50.16,50.16,0,0,1-6.7-.83c0-.2.21-.23.27-.39s.61-.16,1-.17c-.48-.75.48-.79.34-1.79.15,0,.3,0,.26-.19h.25a17.76,17.76,0,0,1,2-.93l0-.8c.62-.52-.14-1.18-1.19-1,.2-.53-.49-.4-.72-.62a.3.3,0,0,1-.23-.41c-1,.17-1.14-.17-1.77.34a1.5,1.5,0,0,1-.74.3,13.72,13.72,0,0,0-1.68,2.62h0l0,.4c-.32.62.37.5.46.82.07.65.8.82,1.18,1.24.3,1.25-3.59-.14-4-.34l0-.8a1.53,1.53,0,0,0,1.3-1l.16,0a6.65,6.65,0,0,0-.58-4.15c-.41,0-.72-.14-.87.06-1.22.26-2.7.29-3.3,1.09-1,1.31-.19,3.24,1.28,4.25-.12.34.34.52,0,.6-2.32-.05-3.17,0-4.74,0-.83-.46-1.31,0-2.23-.28a5.1,5.1,0,0,1-1.75.14c.95-1,.44-2.37,2.63-2.51.13-.48-.43-.45-.2-1h0a5.54,5.54,0,0,1-.16-.58,2.25,2.25,0,0,1-.55-.85c-2.33.32-4,.06-4.84,1.84.13.93,1.12,1.22,1.13,2.24a1.66,1.66,0,0,1,1,.23c0,.12,0,.24.24.21l0,.4c-3-.39-4.34.13-7.23-.25-.84-.24.7,0,.28-.59.25,0,.3-.15.51-.18,0-1.2,1.14-1.37,1.61-2.15h.25c.87-.07.43-1.29.6-2-.19-.71.08-.65-.44-1.22a8.49,8.49,0,0,0-4.51.45.32.32,0,0,1-.11.14,13.15,13.15,0,0,0-1.33,2.8,13.57,13.57,0,0,1,.72,1.24c0,.16,0,.39.23.41,0,.29.39.35.47.62h.25c0,.33.68.14.73.43L1381,9a5.76,5.76,0,0,0-2,.13c-.58.11-1.52.35-2-.07a6.19,6.19,0,0,1,1.09-1.76,7.88,7.88,0,0,1,1.11-1.12,3.53,3.53,0,0,0-.44-2.85c-.45-.18-.83-.32-1.21,0a10.14,10.14,0,0,1-2.46.49,5.33,5.33,0,0,0-.85,1.49A4.39,4.39,0,0,0,1374,6a3.62,3.62,0,0,1,.57,1.53c-.14.94,1.66.44,1.42,1.45-1.58,0-2.82-.19-5.23-.18-.28-.8.75-.46.8-1,.71-.51.87-1.51,1.65-2a3.77,3.77,0,0,0,.75-1.54,10.09,10.09,0,0,0,0-2.17,1.82,1.82,0,0,0-.55-.49c-.35.88-2.09-1-2.72-.49.25.26-.3.57-.3,1h-.25a3.29,3.29,0,0,1-1.71-.06,3.09,3.09,0,0,0-.43.18,1.69,1.69,0,0,0,.13.21,2,2,0,0,0-.66,3c-.07,1.4.92,2,1.86,2.67v.4c-.06.43-.65.41-1.27.36-2.11.15-3.77-.47-5,.23.27-.73-1.3-.41-1.48-.25,0-.24.07-.57-.22-.61.3-1.06.57-2.15,1.87-2.34s-.12-1.12.58-1.58a3,3,0,0,0-1.72-.46,10.25,10.25,0,0,0-4,.66,3.19,3.19,0,0,0,1.8,3.86v.2c.15,0,.29,0,.24.21a45.92,45.92,0,0,1-8.24.12,2.28,2.28,0,0,0,.09-1.8c.69-.3,1.59-.42,1.57-1.35h.23c0-.2.08-.39.12-.58a3.27,3.27,0,0,0-.5-1c-.23-.32-.51-.94-1-1.09-.28-.1-.38-.12-.56-.2-.74,0-1.48.1-2.27.11-.2,0-.38.1-.57.16a5.56,5.56,0,0,0-.94,2.87l0,.08c.08.24.2.46.27.69h.11c-.21.67.48.67.7,1v.2a1.57,1.57,0,0,1,1.19,1c-.68-.52-1.66-.14-2.37-.31a8.13,8.13,0,0,1-3,.12l0,0a1.13,1.13,0,0,1,0-1A5,5,0,0,0,1343.51,4l-.06.06h-.25c-.25,0-.3.15-.51.18a2,2,0,0,0-1.19-.25,2.61,2.61,0,0,0-.26.27,7.54,7.54,0,0,1-.44,2.72c.76,0,.48.67.7,1-.06.46.34.58.7.73a13.53,13.53,0,0,1-4.33-.23c.05-.54-.39-.42,0-.8.08-.38-.26-.45-.21-.81.78-.18,1.72-1,1.09-1.76.15,0,.3,0,.26-.19a1,1,0,0,0,.32-1.39c0-.67-.19-1.93-.6-2.2l-.18-.05-.1,0c.06.34-.72.12-1.46-.16a5.7,5.7,0,0,0-.93.15c-.35.56-1,.68-.92,1.3-.57,0-1.11-.11-1.63-.16a3.75,3.75,0,0,0-.42.61,3.07,3.07,0,0,0-.3,1.67c.42,1.93,1.66,3.25,4.31,3.54-2.18.68-5.41.41-8.18.59a4.11,4.11,0,0,0,.18-1.54,1.6,1.6,0,0,1,.46-.3,7,7,0,0,0,.16-.92v0c0-.44-.1-1.32-.67-1.57-1.2.19-1.7,1.21-2.81.3-1,1.06-.58,2.94.28,4.12-1.12-.5-3.49.3-4.65-.58.29,0,.29-.31.28-.59,0-.55.44-.39,0-.8A12.43,12.43,0,0,0,1323.87,4v-.2a2.31,2.31,0,0,0,.13-.74,3.37,3.37,0,0,0-1-1.34,2.33,2.33,0,0,0-1.78.19c-.07.36-.59.53-1.31.61a5.27,5.27,0,0,0-2.23,2.57c-.14.89.15,1.73,1.54,1.76-.21.54.47.42.46.82v.2c-.06.68,1.51.17,1.45.85a16.42,16.42,0,0,0-5.24,0c-1.1-.32-.2-1-.66-1.62.2,0,.49,0,.51-.18.49-.22,1.4-.64.81-1.17.3,0,.17-.22,0-.4a2.49,2.49,0,0,0,.2-.3V5a3.71,3.71,0,0,0-.78-2.3l-.29,0a.58.58,0,0,0,.15-.2l-.21-.22c-.42,0-1.26.21-1.2.57a1.86,1.86,0,0,1-1.43.28,3.07,3.07,0,0,0-1.43,1.11,5,5,0,0,0,1.07,4.35c-1,.28-2.63-.07-3.51.28h-.5l0-.4c-.17-1,.87-.91.6-2l0-.4a.29.29,0,0,1,.07-.32,3.57,3.57,0,0,0-.37-.94,4.4,4.4,0,0,1-.3-.6l-.05,0v-.2a1.45,1.45,0,0,1,0-.27c-.05-.11-.17-.18-.42-.14-.33.41.17.29-1,.17l0,.4c-1-.22-1,.49-1.92.39a1.65,1.65,0,0,0-.65.68,1.48,1.48,0,0,0,0,.25h-.13a3.62,3.62,0,0,0,0,2.57,10.57,10.57,0,0,0,1.74.88,36.34,36.34,0,0,1-4.76.24,6.22,6.22,0,0,1,.36-2.19h0a5.7,5.7,0,0,0,.48-1.48,12,12,0,0,0-.6-1.54h0a.69.69,0,0,0,0-.09V4c0-.07-.07-.13-.22-.11a1.69,1.69,0,0,0-2,.33c-.8.09-.75-.4-1.25,0l-.41-.06c-1,1-1,2.57-.92,3.85.42.87,2.06.83,2.54,1.65l-1.74-.06c-1.21.06-1.21-.09-1.77.54.19-.78-1.36-.28-2-.47a1.14,1.14,0,0,0-.45,0c0-.42-.08-.85.08-1a8.07,8.07,0,0,0-.5-3.13.18.18,0,0,1-.12-.08.72.72,0,0,0-.34-.27l-1.87.12a2.14,2.14,0,0,0-.7.63c-.47,1.52-.15,3.11,1.6,3.78l-.2.1c-.36.07-.43.22-.75,0a.56.56,0,0,0,0-.08l-.38,0a12.79,12.79,0,0,0-2.87.13c-.21.19-.87,0-1.23,0s-.2-.49-.21-.81c.68.17.77-.17,1.1-.31a4,4,0,0,0,.67-2.38.14.14,0,0,1-.06-.12.87.87,0,0,0-.32-.61,3.42,3.42,0,0,0-3,0c-.95-.06-1.14.54-1.31,1.16-.8.79.1,2-.16,3,.57,0,.93.08,1,.43h-.25c-1,.15-2,.25-3,.36,0-.2,0-.55,0-.6a.86.86,0,0,0,.21-.09.14.14,0,0,1,0-.13,2.69,2.69,0,0,0,.57-1.38.15.15,0,0,1,.12-.14,2.56,2.56,0,0,0,.33-1.13,1.77,1.77,0,0,0-.68-.94.14.14,0,0,1-.12-.06l-.14-.06a13.3,13.3,0,0,1-2.13.17,2.81,2.81,0,0,0-.5,4.88l-.62.1a14.85,14.85,0,0,1-2.34-.38v3c2.92-.32,6.78-1,8.68-.78h.25a58,58,0,0,0,8.17,1.28,5.71,5.71,0,0,0,3,.1h.5a49.2,49.2,0,0,0,7.49.05l.5,0c5.71-.08,9.53-.18,15.22.12v.2c.87-.32,1.45.2,2.74.09,2,.31,2.82-.35,4.25-.06.6-.1,1.8.31,2-.13l1.25,0,1.49.05c.06-.15,0-.39.27-.39,0,.12,0,.24.24.21a12.88,12.88,0,0,0,3-.1c1.78.24,2.66,0,4.73.16,1.56-.17,3.61.09,5-.23h.25c-.19.32,1.16.36,1,0l.5,0a6.8,6.8,0,0,1,2,.07h.25l1.49.05c.2,0,.49,0,.51-.18a5.87,5.87,0,0,0,3,.1h.25c2,.18,3.82-.33,6-.2V14h.25c2-.16,8.28.5,10.26-.45,0,.07-.27.39-.27.39,2.16.51,4.94.11,7,0,3.82-.13,7.64-.12,11.74-.2h.25c5.27.34,7.88-.12,12.9.31-.05.36.22.48.73.42h.25v.2c1-.09,3.58-.86,3.05,0,4,.58,5.86,1.19,9.46.52a33.66,33.66,0,0,0,9.51-.48c-.12,0,3.69-.44,4-.44,6.66-.1,7.48-.28,12.32-.5V10.65a14.37,14.37,0,0,1-1.32-.91Z"/><path class="cls-1" d="M1435.94,9.39h-.25a.7.7,0,0,0-.77-.38c-.25-1-.42-1.65.39-2.21h.25c.12-.3.34-.51.46-.82a6.75,6.75,0,0,1,1.51.35l0,.4a11.06,11.06,0,0,1,1.3,1,3,3,0,0,1,2.07,1.54c0,.23.47.44,0,.6l0,.4h.25a6.76,6.76,0,0,1,3.26.3.3.3,0,0,0,.23-.41,11.83,11.83,0,0,0-1.59-1.75c-.18-.54-1.07-.46-1.06-1.17.19-.56,1.21-.51,1.19-1.24,2.64-.14,4.89,1.64,2.64,2.92,0,.62-.65.8-.94,1.23.69.79,3.45-.24,4.28.87a1.93,1.93,0,0,1,1.24-.24v.2c.25,0,.29-.17.49-.21.06.15,0,.39.27.39,0-.16,0-.39.23-.41.15.32.81.2,1.39.14,0-1.63-2.29-1.29-2.66-2.61.55-.33.45-.43.2-1,1.25.29.76-.72,1.72-.66,3,.15,4.24,3.15,1.87,4.25.58,0,.75.32,1.5.15.11-.28,1.66-.07,2,.14,1.15-.25,2.18.3,2.74-.09a3.5,3.5,0,0,0-2.11-2.33c-1.14,0-1.35-1.64-1.11-2.17-.58-.12.59-1-.06-1.2.62,0,.75-.4,1.25,0,.39,0,.17-.52.73-.42,0-.16,0-.39.23-.41.43.74,2.47.08,2.55,1.12,2.18,1,1.45,4.35-.24,5.21V11c.27.27,1.49.54.75,0a50.15,50.15,0,0,0,6.7-.81c0-.2-.21-.23-.27-.39s-.61-.16-1-.17c.48-.75-.48-.79-.34-1.79-.15,0-.3,0-.26-.19h-.25a17.49,17.49,0,0,0-2-.94l0-.8c-.62-.52.14-1.18,1.2-1-.2-.53.5-.4.72-.62a.3.3,0,0,0,.23-.41c1,.17,1.14-.17,1.76.34a1.5,1.5,0,0,0,.74.3A13.61,13.61,0,0,1,1471,7.07h0l0,.4c.32.62-.37.5-.46.82-.08.65-.8.82-1.19,1.24-.3,1.25,3.59-.13,4-.33l0-.8a1.53,1.53,0,0,1-1.3-1l-.16,0a6.66,6.66,0,0,1,.59-4.14c.41,0,.72-.14.87.06,1.22.26,2.7.3,3.3,1.1,1,1.31.18,3.24-1.29,4.24.12.34-.34.52,0,.6,2.32,0,3.18.05,4.75,0,.83-.45,1.31,0,2.23-.27a5.09,5.09,0,0,0,1.75.14c-.94-1-.44-2.37-2.62-2.52-.13-.48.43-.45.2-1h0a5.59,5.59,0,0,0,.16-.58,2.26,2.26,0,0,0,.55-.85c2.33.32,4,.07,4.83,1.85-.14.93-1.13,1.22-1.14,2.24a1.65,1.65,0,0,0-1,.23c0,.12,0,.24-.24.21l0,.4c3-.38,4.34.14,7.23-.23.84-.24-.7,0-.28-.59-.25,0-.3-.15-.51-.18,0-1.2-1.14-1.38-1.6-2.15h-.25c-.87-.08-.43-1.29-.6-2,.19-.71-.08-.66.44-1.21a8.49,8.49,0,0,1,4.51.46.34.34,0,0,0,.11.14,13.13,13.13,0,0,1,1.32,2.81,13.56,13.56,0,0,0-.72,1.23c0,.16,0,.39-.23.41,0,.29-.39.35-.47.61h-.25c0,.33-.69.13-.73.42l1.49,0a5.73,5.73,0,0,1,2,.14c.58.11,1.52.35,2-.06a6.21,6.21,0,0,0-1.09-1.77,8,8,0,0,0-1.11-1.13,3.53,3.53,0,0,1,.45-2.85c.45-.17.83-.32,1.21,0a10.17,10.17,0,0,0,2.46.5,5.31,5.31,0,0,1,.84,1.49,4.37,4.37,0,0,1,.22.79,3.6,3.6,0,0,0-.57,1.52c.14.94-1.67.43-1.42,1.45,1.58,0,2.82-.18,5.23-.17.28-.8-.75-.46-.8-1-.71-.51-.86-1.51-1.65-2a3.76,3.76,0,0,1-.75-1.54,10.07,10.07,0,0,1,0-2.17,1.8,1.8,0,0,1,.55-.48c.35.88,2.1-1,2.72-.49-.25.26.3.57.3,1h.25a3.3,3.3,0,0,0,1.71-.05,2.87,2.87,0,0,1,.43.18,1.59,1.59,0,0,1-.13.21,2,2,0,0,1,.65,3c.07,1.4-.93,2-1.86,2.66v.4c.06.44.65.41,1.27.36,2.11.16,3.77-.46,5,.24-.27-.73,1.3-.4,1.49-.25,0-.24-.07-.57.22-.61-.3-1.06-.56-2.15-1.86-2.34s.12-1.12-.58-1.58a3,3,0,0,1,1.72-.46,10.27,10.27,0,0,1,4,.67,3.19,3.19,0,0,1-1.8,3.86v.2c-.15,0-.29,0-.24.21a45.91,45.91,0,0,0,8.24.14,2.28,2.28,0,0,1-.09-1.8c-.69-.3-1.59-.43-1.57-1.35h-.23c0-.2-.08-.39-.12-.58a3.27,3.27,0,0,1,.5-1c.23-.32.51-.94,1-1.09.28-.1.38-.12.56-.2.74.05,1.48.1,2.27.11.2,0,.38.1.57.16a5.57,5.57,0,0,1,.93,2.87s0,.06,0,.08c-.08.24-.2.46-.28.69h-.11c.21.67-.48.67-.7,1v.2a1.57,1.57,0,0,0-1.2,1c.68-.52,1.66-.14,2.37-.31a8.13,8.13,0,0,0,3,.13l0,0a1.13,1.13,0,0,0,0-1A5,5,0,0,1,1531.83,4l.06.06h.25c.25,0,.3.15.51.18a2,2,0,0,1,1.19-.25,2.45,2.45,0,0,1,.26.27,7.6,7.6,0,0,0,.43,2.72c-.76,0-.48.67-.7,1,.06.46-.34.58-.7.73a13.55,13.55,0,0,0,4.33-.22c-.05-.54.39-.42,0-.8-.08-.38.26-.45.21-.81-.78-.19-1.72-1-1.09-1.77-.15,0-.3,0-.26-.19a1,1,0,0,1-.32-1.39c0-.67.2-1.93.6-2.2l.18-.05.1,0c-.06.34.72.13,1.46-.15a5.7,5.7,0,0,1,.93.15c.35.56,1,.68.92,1.3.57,0,1.11-.11,1.63-.15a3.84,3.84,0,0,1,.42.61,3.06,3.06,0,0,1,.3,1.67c-.43,1.93-1.67,3.25-4.31,3.54,2.18.69,5.41.42,8.18.6a4.11,4.11,0,0,1-.18-1.54,1.6,1.6,0,0,0-.46-.3,7.17,7.17,0,0,1-.16-.92h0c0-.44.11-1.32.67-1.57,1.2.19,1.69,1.21,2.81.31,1,1.06.57,2.94-.29,4.12,1.12-.49,3.49.31,4.65-.57-.29,0-.29-.31-.28-.59,0-.55-.44-.39,0-.8a12.35,12.35,0,0,1-1.65-3v-.2a2.31,2.31,0,0,1-.13-.74,3.36,3.36,0,0,1,1-1.34,2.33,2.33,0,0,1,1.78.2c.07.36.59.53,1.31.62a5.28,5.28,0,0,1,2.22,2.57c.14.89-.15,1.73-1.54,1.76.21.54-.48.42-.46.82V8c.06.68-1.51.16-1.45.85a16.42,16.42,0,0,1,5.24,0c1.1-.32.2-1,.67-1.62-.2,0-.49,0-.51-.18-.49-.22-1.39-.64-.81-1.18-.3,0-.16-.22,0-.4a2.26,2.26,0,0,1-.2-.3V5.12a3.71,3.71,0,0,1,.78-2.3l.29,0a.56.56,0,0,1-.15-.2l.21-.21c.42,0,1.26.21,1.19.57a1.85,1.85,0,0,0,1.43.28,3.08,3.08,0,0,1,1.43,1.11,5,5,0,0,1-1.07,4.35c1,.28,2.63-.06,3.51.29h.5l0-.4c.17-1-.87-.91-.6-2l0-.4a.28.28,0,0,0-.07-.32,3.6,3.6,0,0,1,.37-.94,4.44,4.44,0,0,0,.3-.6l.05,0v-.2a1.44,1.44,0,0,0,0-.27c.06-.11.17-.17.42-.14.33.41-.17.29,1,.17l0,.4c1-.22,1,.49,1.92.39a1.66,1.66,0,0,1,.64.68,1.49,1.49,0,0,1,0,.25h.13a3.62,3.62,0,0,1,0,2.57,10.53,10.53,0,0,1-1.74.88,36.33,36.33,0,0,0,4.75.25,6.18,6.18,0,0,0-.36-2.19h0a5.65,5.65,0,0,1-.48-1.49,11.94,11.94,0,0,1,.6-1.53h0a.73.73,0,0,1,0-.09v0c0-.07.07-.13.22-.1a1.69,1.69,0,0,1,2,.34c.8.09.75-.4,1.25,0l.41-.06c1,1,.95,2.57.91,3.86-.42.86-2.06.82-2.54,1.65l1.74-.05c1.21.07,1.21-.09,1.77.54-.19-.78,1.36-.28,2-.46a1.14,1.14,0,0,1,.45,0c0-.42.08-.85-.08-1a8.07,8.07,0,0,1,.5-3.13.18.18,0,0,0,.12-.08.72.72,0,0,1,.35-.27l1.87.13a2.15,2.15,0,0,1,.7.63c.47,1.52.15,3.11-1.61,3.78l.2.1c.36.07.43.23.75,0a.57.57,0,0,1,0-.08l.38,0a12.83,12.83,0,0,1,2.87.14c.21.19.87,0,1.23,0s.2-.49.21-.81c-.69.17-.77-.17-1.1-.31a4,4,0,0,1-.67-2.38.14.14,0,0,0,.06-.12.87.87,0,0,1,.32-.62,3.42,3.42,0,0,1,3,0c.95-.06,1.13.54,1.31,1.16.8.8-.11,2,.15,3-.57,0-.93.08-1,.43h.25c1,.16,2,.26,3,.37,0-.2,0-.55,0-.6a.85.85,0,0,1-.21-.09.13.13,0,0,0,0-.13,2.69,2.69,0,0,1-.56-1.38.15.15,0,0,0-.12-.14,2.56,2.56,0,0,1-.32-1.13,1.77,1.77,0,0,1,.68-.93.14.14,0,0,0,.12-.07l.14-.05a13.29,13.29,0,0,0,2.13.18,2.81,2.81,0,0,1,.49,4.88l.62.11a14.84,14.84,0,0,0,2.34-.38v3c-2.92-.33-6.78-1-8.68-.8h-.25a57.87,57.87,0,0,1-8.17,1.26,5.7,5.7,0,0,1-3,.1h-.5a49.09,49.09,0,0,1-7.49,0l-.5,0c-5.71-.09-9.53-.2-15.22.08v.2c-.87-.32-1.45.2-2.74.09-2,.31-2.82-.36-4.25-.06-.6-.1-1.79.31-2-.14l-1.25,0-1.49,0c-.06-.16,0-.39-.27-.39,0,.12,0,.24-.24.21a12.88,12.88,0,0,1-3-.11c-1.78.23-2.66,0-4.73.15-1.56-.17-3.61.08-5-.24H1531c.2.32-1.16.36-1,0l-.5,0a6.77,6.77,0,0,0-2,.06h-.25l-1.49,0c-.2,0-.49,0-.51-.18a5.87,5.87,0,0,1-3,.1H1522c-2,.18-3.82-.33-6-.21v-.2h-.25c-2-.16-8.28.48-10.26-.47,0,.07.27.39.27.39-2.16.51-4.94.09-7,0-3.82-.14-7.64-.13-11.74-.23h-.25c-5.27.33-7.88-.14-12.9.28,0,.36-.23.48-.73.42h-.25v.2c-1-.09-3.58-.87-3.05,0-4,.57-5.86,1.18-9.46.5a33.63,33.63,0,0,1-9.51-.5c.12,0-3.69-.45-4-.45-6.66-.11-7.48-.29-12.32-.52V10.5a14.56,14.56,0,0,0,1.32-.91Z"/><path class="cls-1" d="M1757.36,10.29h.25a.7.7,0,0,1,.77-.37c.25-1,.43-1.65-.38-2.21h-.25c-.11-.3-.34-.52-.46-.82a6.76,6.76,0,0,0-1.52.35l0,.4a11.06,11.06,0,0,0-1.3,1,3,3,0,0,0-2.08,1.53c0,.23-.47.44,0,.6l0,.4h-.25a6.77,6.77,0,0,0-3.26.29.3.3,0,0,1-.23-.41,11.83,11.83,0,0,1,1.59-1.75c.18-.54,1.07-.46,1.06-1.17-.19-.56-1.21-.52-1.18-1.24-2.64-.15-4.89,1.63-2.65,2.91,0,.62.65.8.93,1.23-.69.79-3.45-.25-4.29.86a1.92,1.92,0,0,0-1.24-.24v.2c-.25,0-.29-.17-.49-.22-.06.15,0,.39-.27.39,0-.16,0-.4-.23-.41-.15.32-.81.2-1.39.14,0-1.63,2.29-1.29,2.66-2.61-.55-.33-.45-.43-.2-1-1.25.28-.76-.72-1.71-.66-3,.14-4.25,3.15-1.88,4.25-.58,0-.75.32-1.5.15-.11-.28-1.66-.07-2,.13-1.14-.25-2.18.29-2.74-.09a3.5,3.5,0,0,1,2.12-2.33c1.14,0,1.35-1.64,1.11-2.16.58-.12-.59-1,.06-1.2-.62,0-.75-.4-1.25,0-.39,0-.17-.52-.73-.43,0-.16,0-.39-.23-.41-.43.74-2.47.07-2.56,1.11-2.18,1-1.46,4.35.23,5.21v.2c-.27.27-1.49.54-.75,0a50.42,50.42,0,0,1-6.7-.83c0-.2.21-.23.27-.39s.61-.16,1-.17c-.48-.75.48-.79.34-1.79.15,0,.3,0,.26-.19h.25a17.49,17.49,0,0,1,2-.93l0-.8c.62-.51-.14-1.18-1.19-1,.2-.53-.49-.4-.72-.62a.3.3,0,0,1-.23-.41c-1,.17-1.14-.17-1.77.34a1.5,1.5,0,0,1-.74.29,13.76,13.76,0,0,0-1.68,2.62h0l0,.4c-.32.62.37.5.46.81.07.65.8.82,1.18,1.24.3,1.25-3.59-.14-4-.34l0-.8a1.53,1.53,0,0,0,1.3-1l.16,0a6.65,6.65,0,0,0-.58-4.15c-.41,0-.72-.14-.87.06-1.22.26-2.7.29-3.3,1.09-1,1.31-.19,3.24,1.28,4.25-.12.34.34.53,0,.6-2.32-.05-3.17,0-4.74,0-.83-.46-1.31,0-2.23-.28a5.06,5.06,0,0,1-1.75.14c.95-1,.44-2.37,2.63-2.51.13-.48-.43-.45-.2-1h0a5.44,5.44,0,0,1-.16-.58,2.24,2.24,0,0,1-.55-.85c-2.33.32-4,.06-4.84,1.84.13.93,1.12,1.22,1.13,2.24a1.66,1.66,0,0,1,1,.23c0,.12,0,.24.24.21l0,.4c-3-.38-4.34.13-7.23-.25-.84-.24.7,0,.28-.59.25,0,.3-.15.51-.18,0-1.21,1.14-1.37,1.61-2.15h.25c.87-.07.43-1.29.6-2-.19-.71.08-.66-.44-1.22a8.47,8.47,0,0,0-4.51.45.33.33,0,0,1-.11.14,13.12,13.12,0,0,0-1.33,2.8,13.57,13.57,0,0,1,.72,1.24c0,.16,0,.39.23.41,0,.29.39.35.47.62h.25c0,.33.68.14.73.43L1699,9.71a5.74,5.74,0,0,0-2,.13c-.58.11-1.52.35-2-.07A6.21,6.21,0,0,1,1696.08,8a8,8,0,0,1,1.11-1.12,3.53,3.53,0,0,0-.44-2.85c-.45-.17-.83-.32-1.21,0a10.1,10.1,0,0,1-2.46.49,5.35,5.35,0,0,0-.85,1.49,4.45,4.45,0,0,0-.23.8,3.61,3.61,0,0,1,.57,1.53c-.14.94,1.66.44,1.42,1.45-1.58,0-2.82-.19-5.23-.18-.28-.8.75-.46.8-1,.71-.51.87-1.51,1.65-2A3.77,3.77,0,0,0,1692,5.1a10.08,10.08,0,0,0,0-2.17,1.81,1.81,0,0,0-.55-.49c-.35.88-2.09-1-2.72-.49.25.26-.3.57-.3,1h-.25a3.29,3.29,0,0,1-1.71-.06,2.91,2.91,0,0,0-.43.18,1.83,1.83,0,0,0,.13.21,2,2,0,0,0-.66,3c-.07,1.4.92,2,1.86,2.67v.4c-.06.44-.65.41-1.27.36-2.11.15-3.77-.47-5,.23.27-.73-1.3-.41-1.48-.25,0-.24.07-.57-.22-.61.3-1.06.57-2.15,1.87-2.34s-.12-1.12.58-1.58a3,3,0,0,0-1.72-.46,10.28,10.28,0,0,0-4,.66,3.19,3.19,0,0,0,1.8,3.86v.2c.15,0,.29,0,.24.21a45.93,45.93,0,0,1-8.24.12,2.28,2.28,0,0,0,.09-1.8c.69-.3,1.59-.42,1.57-1.35h.23c0-.2.08-.39.12-.58a3.29,3.29,0,0,0-.5-1c-.23-.32-.51-.94-1-1.09-.28-.1-.38-.12-.56-.2-.74,0-1.48.1-2.27.11-.2,0-.38.1-.57.16a5.56,5.56,0,0,0-.94,2.87l0,.08c.08.24.2.46.27.69h.11c-.21.67.48.67.7,1v.2a1.57,1.57,0,0,1,1.19,1c-.68-.52-1.66-.14-2.37-.31a8.13,8.13,0,0,1-3,.12l0,0a1.13,1.13,0,0,1,0-1,5,5,0,0,0-1.42-3.87l-.06.06h-.25c-.25,0-.3.15-.51.18a2,2,0,0,0-1.19-.25,2.46,2.46,0,0,0-.26.27,7.55,7.55,0,0,1-.44,2.72c.76,0,.48.67.7,1-.06.46.34.58.7.73a13.55,13.55,0,0,1-4.33-.23c.05-.54-.39-.42,0-.8.08-.38-.26-.45-.21-.81.78-.18,1.72-1,1.09-1.76.15,0,.3,0,.26-.19a1,1,0,0,0,.32-1.39c0-.67-.19-1.93-.6-2.2l-.18-.05-.1,0c.06.34-.72.13-1.46-.16a5.7,5.7,0,0,0-.93.15c-.35.56-1,.67-.92,1.3-.57,0-1.11-.11-1.63-.16a3.72,3.72,0,0,0-.42.61,3.06,3.06,0,0,0-.3,1.67c.42,1.93,1.66,3.25,4.31,3.55-2.18.68-5.41.41-8.18.58a4.1,4.1,0,0,0,.18-1.54,1.61,1.61,0,0,1,.46-.3,7,7,0,0,0,.16-.92v0c0-.44-.1-1.32-.67-1.57-1.2.19-1.7,1.21-2.81.31-1,1.06-.58,2.94.28,4.12-1.12-.5-3.49.3-4.65-.58.29,0,.29-.31.28-.59,0-.55.44-.39,0-.8a12.47,12.47,0,0,0,1.65-2.95v-.2a2.31,2.31,0,0,0,.13-.74,3.38,3.38,0,0,0-1-1.35,2.34,2.34,0,0,0-1.78.19c-.07.36-.59.53-1.31.61a5.27,5.27,0,0,0-2.23,2.56c-.14.89.15,1.73,1.54,1.76-.21.54.47.42.46.82v.2c-.06.68,1.51.17,1.45.85a16.42,16.42,0,0,0-5.24,0c-1.1-.32-.2-1-.66-1.62.2,0,.49,0,.51-.18.49-.22,1.4-.64.81-1.18.3,0,.17-.22,0-.4a2.36,2.36,0,0,0,.2-.3V5.76a3.71,3.71,0,0,0-.78-2.3l-.29,0a.59.59,0,0,0,.15-.2l-.21-.22c-.42,0-1.26.21-1.2.57a1.86,1.86,0,0,1-1.43.28A3.09,3.09,0,0,0,1629.55,5a5,5,0,0,0,1.07,4.35c-1,.28-2.63-.07-3.51.28h-.5l0-.4c-.17-1,.87-.91.6-2l0-.4a.29.29,0,0,1,.07-.32,3.57,3.57,0,0,0-.37-.94,4.35,4.35,0,0,1-.3-.6l-.05,0v-.2a1.44,1.44,0,0,1,0-.27c-.05-.11-.17-.17-.42-.14-.33.41.17.29-1,.17l0,.4c-1-.22-1,.49-1.92.39a1.65,1.65,0,0,0-.65.67,1.49,1.49,0,0,0,0,.25h-.13a3.62,3.62,0,0,0,0,2.57,10.57,10.57,0,0,0,1.74.88,36.34,36.34,0,0,1-4.76.24,6.23,6.23,0,0,1,.36-2.19h0a5.71,5.71,0,0,0,.48-1.48,11.85,11.85,0,0,0-.6-1.54h0a.73.73,0,0,0,0-.09v0c0-.07-.07-.13-.22-.11a1.69,1.69,0,0,0-2,.33c-.8.09-.75-.4-1.25,0l-.41-.06c-1,1-1,2.57-.92,3.85.42.86,2.06.83,2.54,1.65l-1.74-.06c-1.21.06-1.21-.09-1.77.54.19-.78-1.36-.28-2-.47a1.17,1.17,0,0,0-.45,0c0-.42-.08-.85.08-1a8.07,8.07,0,0,0-.5-3.13.18.18,0,0,1-.12-.08.72.72,0,0,0-.34-.27l-1.87.12a2.15,2.15,0,0,0-.7.63c-.47,1.52-.15,3.11,1.6,3.78l-.2.1c-.36.07-.43.23-.75,0a.57.57,0,0,0,0-.08l-.38,0a12.74,12.74,0,0,0-2.87.13c-.21.19-.87,0-1.23,0s-.2-.49-.21-.81c.68.17.77-.17,1.1-.31a4,4,0,0,0,.67-2.38.14.14,0,0,1-.06-.12.87.87,0,0,0-.32-.62,3.42,3.42,0,0,0-3,0c-.95-.06-1.14.54-1.31,1.16-.8.79.1,2-.16,3,.57,0,.93.08,1,.43h-.25c-1,.16-2,.25-3,.36,0-.2,0-.55,0-.6a.86.86,0,0,0,.21-.09.13.13,0,0,1,0-.13,2.69,2.69,0,0,0,.57-1.38.15.15,0,0,1,.12-.14,2.57,2.57,0,0,0,.33-1.13,1.77,1.77,0,0,0-.68-.93.14.14,0,0,1-.12-.07l-.14-.05a13.29,13.29,0,0,1-2.13.17,2.81,2.81,0,0,0-.5,4.88c-.21,0-.42.08-.62.1a14.61,14.61,0,0,1-2.34-.38v3c2.92-.32,6.78-1,8.68-.78h.25a58.1,58.1,0,0,0,8.17,1.28,5.71,5.71,0,0,0,3,.1h.5a49.3,49.3,0,0,0,7.49.06l.5,0c5.71-.08,9.53-.18,15.22.12v.2c.87-.32,1.45.2,2.74.09,2,.31,2.82-.35,4.25-.06.6-.1,1.8.31,2-.13l1.25,0,1.49.05c.06-.16,0-.39.27-.39,0,.12,0,.24.24.21a12.88,12.88,0,0,0,3-.1c1.78.24,2.66,0,4.73.16,1.56-.17,3.61.09,5-.23h.25c-.19.32,1.16.36,1,0l.5,0a6.82,6.82,0,0,1,2,.07h.25l1.49.05c.2,0,.49,0,.51-.18a5.87,5.87,0,0,0,3,.1h.25c2,.18,3.82-.33,6-.2v-.2h.25c2-.15,8.28.5,10.26-.45,0,.07-.27.39-.27.39,2.16.51,4.94.11,7,0,3.82-.13,7.64-.12,11.74-.2h.25c5.27.34,7.88-.12,12.9.31-.05.36.22.48.73.42h.25v.2c1-.09,3.58-.86,3.05,0,4,.58,5.86,1.2,9.46.52a33.63,33.63,0,0,0,9.51-.48c-.12,0,3.69-.44,4-.44,6.66-.1,7.48-.28,12.32-.5V11.4a14.53,14.53,0,0,1-1.32-.91Z"/><path class="cls-1" d="M1756,10.15h-.25a.7.7,0,0,0-.77-.38c-.25-1-.42-1.65.39-2.21h.25c.12-.3.34-.51.46-.82a6.66,6.66,0,0,1,1.51.35l0,.4a11.44,11.44,0,0,1,1.3,1A3,3,0,0,1,1761,10c0,.23.47.44,0,.6l0,.4h.25a6.76,6.76,0,0,1,3.26.3.3.3,0,0,0,.23-.41,11.76,11.76,0,0,0-1.59-1.75c-.18-.54-1.07-.46-1.06-1.17.19-.56,1.21-.51,1.19-1.24,2.64-.14,4.89,1.64,2.64,2.92,0,.62-.65.8-.94,1.23.69.79,3.45-.25,4.28.86a1.93,1.93,0,0,1,1.24-.24v.2c.25,0,.29-.17.49-.22.06.15,0,.39.27.39,0-.16,0-.39.23-.41.15.32.81.2,1.39.14,0-1.63-2.29-1.29-2.66-2.61.55-.33.45-.43.2-1,1.25.29.76-.72,1.72-.66,3,.15,4.24,3.15,1.87,4.25.58,0,.75.32,1.5.15.11-.28,1.66-.06,2,.14,1.15-.24,2.18.3,2.74-.09a3.5,3.5,0,0,0-2.11-2.33c-1.14,0-1.35-1.64-1.11-2.17-.58-.12.59-1-.06-1.2.62,0,.75-.4,1.25,0,.39,0,.17-.52.73-.42,0-.16,0-.39.23-.41.43.74,2.47.08,2.55,1.12,2.18,1,1.45,4.35-.24,5.21v.2c.27.27,1.49.55.75,0a50.42,50.42,0,0,0,6.7-.81c0-.2-.21-.23-.27-.39s-.61-.17-1-.17c.48-.75-.48-.79-.34-1.79-.15,0-.3,0-.26-.19h-.25a18,18,0,0,0-2-.94l0-.8c-.62-.52.14-1.18,1.2-1-.2-.53.5-.4.72-.62a.3.3,0,0,0,.23-.41c1,.17,1.14-.17,1.76.34a1.52,1.52,0,0,0,.74.3,13.66,13.66,0,0,1,1.68,2.62h0l0,.4c.32.62-.37.5-.46.82-.08.65-.8.82-1.19,1.24-.3,1.25,3.59-.13,4-.33l0-.8a1.53,1.53,0,0,1-1.3-1l-.16,0a6.66,6.66,0,0,1,.59-4.14c.41,0,.72-.14.87.06,1.22.26,2.7.3,3.3,1.1,1,1.31.18,3.24-1.29,4.25.12.34-.34.52,0,.6,2.32,0,3.18.05,4.75,0,.83-.45,1.31,0,2.23-.27a5.09,5.09,0,0,0,1.75.14c-.94-1-.44-2.37-2.62-2.52-.13-.48.43-.45.2-1h0a5.83,5.83,0,0,0,.16-.58,2.27,2.27,0,0,0,.55-.85c2.33.32,4,.07,4.83,1.85-.14.93-1.13,1.22-1.14,2.24a1.64,1.64,0,0,0-1,.23c0,.12,0,.24-.24.21l0,.4c3-.38,4.34.14,7.23-.23.84-.24-.7,0-.28-.59-.25,0-.3-.15-.51-.18,0-1.21-1.14-1.38-1.6-2.15h-.25c-.87-.08-.43-1.29-.6-2,.19-.71-.08-.66.44-1.22a8.49,8.49,0,0,1,4.51.46.33.33,0,0,0,.11.14,13.18,13.18,0,0,1,1.32,2.81,13.32,13.32,0,0,0-.72,1.23c0,.16,0,.39-.23.41,0,.29-.39.35-.47.61h-.25c0,.33-.69.13-.73.42l1.49,0a5.81,5.81,0,0,1,2,.14c.58.11,1.52.35,2-.06A6.19,6.19,0,0,0,1817.27,8a7.87,7.87,0,0,0-1.11-1.13,3.53,3.53,0,0,1,.45-2.85c.45-.18.83-.32,1.21,0a10,10,0,0,0,2.46.5,5.33,5.33,0,0,1,.84,1.49,4.4,4.4,0,0,1,.22.79,3.62,3.62,0,0,0-.57,1.53c.14.94-1.67.43-1.42,1.45,1.58,0,2.82-.18,5.23-.17.28-.8-.75-.46-.8-1-.71-.51-.86-1.51-1.65-2a3.77,3.77,0,0,1-.75-1.54,10.08,10.08,0,0,1,0-2.17,1.82,1.82,0,0,1,.55-.48c.35.88,2.1-1,2.72-.49-.25.26.3.57.3,1h.25a3.29,3.29,0,0,0,1.71-.05,3,3,0,0,1,.43.18,1.59,1.59,0,0,1-.13.21,2,2,0,0,1,.65,3c.07,1.4-.93,2-1.86,2.66v.4c.06.43.65.41,1.27.36,2.11.16,3.77-.46,5,.24-.27-.73,1.3-.41,1.49-.25,0-.24-.07-.57.22-.61-.3-1.06-.56-2.15-1.86-2.34s.12-1.12-.58-1.58a3,3,0,0,1,1.72-.46,10.21,10.21,0,0,1,4,.67,3.19,3.19,0,0,1-1.8,3.86v.2c-.15,0-.29,0-.24.21a45.91,45.91,0,0,0,8.24.14,2.28,2.28,0,0,1-.09-1.8c-.69-.3-1.59-.43-1.57-1.35h-.23c0-.2-.08-.39-.12-.58a3.29,3.29,0,0,1,.5-1c.23-.32.51-.94,1-1.09.28-.1.38-.12.56-.2.74.05,1.48.1,2.27.11.2,0,.38.11.57.16a5.56,5.56,0,0,1,.93,2.87s0,.06,0,.08c-.08.24-.2.46-.28.69h-.11c.21.67-.48.67-.7,1v.2a1.57,1.57,0,0,0-1.2,1c.68-.51,1.66-.14,2.37-.3a8.17,8.17,0,0,0,3,.13l0,0a1.13,1.13,0,0,0,0-1,5,5,0,0,1,1.43-3.87l.06.06h.25c.25,0,.3.15.51.18a2,2,0,0,1,1.19-.25,2.6,2.6,0,0,1,.26.27,7.61,7.61,0,0,0,.43,2.72c-.76-.05-.48.67-.7,1,.06.46-.34.58-.7.73a13.51,13.51,0,0,0,4.33-.22c-.05-.54.39-.41,0-.8-.08-.37.26-.45.21-.81-.78-.19-1.72-1-1.09-1.77-.15,0-.3,0-.26-.19a1,1,0,0,1-.32-1.39c0-.67.2-1.93.6-2.2l.18-.05.1,0c-.06.34.72.13,1.46-.16a5.7,5.7,0,0,1,.93.15c.35.56,1,.68.92,1.3.57,0,1.11-.11,1.63-.15a3.92,3.92,0,0,1,.42.61,3.07,3.07,0,0,1,.3,1.67c-.43,1.93-1.67,3.25-4.31,3.53,2.18.69,5.41.42,8.18.6a4.1,4.1,0,0,1-.18-1.54,1.58,1.58,0,0,0-.46-.3,7.15,7.15,0,0,1-.16-.92v0c0-.44.11-1.32.67-1.57,1.2.19,1.69,1.21,2.81.31,1,1.06.57,2.94-.29,4.12,1.12-.49,3.49.31,4.65-.57-.29,0-.29-.31-.28-.59,0-.55-.44-.39,0-.8a12.37,12.37,0,0,1-1.65-2.95v-.2a2.3,2.3,0,0,1-.13-.74,3.38,3.38,0,0,1,1-1.34,2.33,2.33,0,0,1,1.78.2c.07.36.59.53,1.31.62A5.29,5.29,0,0,1,1877.69,6c.14.89-.15,1.73-1.54,1.76.21.54-.48.42-.46.81v.2c.06.68-1.51.16-1.45.85a16.37,16.37,0,0,1,5.24,0c1.1-.32.2-1,.67-1.62-.2,0-.49,0-.51-.18-.49-.22-1.39-.64-.81-1.18-.3,0-.16-.22,0-.4a2.37,2.37,0,0,1-.2-.3V5.88a3.71,3.71,0,0,1,.78-2.3l.29,0a.56.56,0,0,1-.15-.2l.21-.21c.42,0,1.26.21,1.19.57a1.86,1.86,0,0,0,1.43.28,3.06,3.06,0,0,1,1.43,1.11,5,5,0,0,1-1.07,4.35c1,.28,2.63-.06,3.51.29h.5l0-.4c.17-1-.87-.91-.6-2l0-.4a.28.28,0,0,0-.07-.32,3.55,3.55,0,0,1,.37-.94,4.55,4.55,0,0,0,.3-.6l.05,0V5a1.46,1.46,0,0,0,0-.27c.06-.11.17-.18.42-.14.33.41-.17.29,1,.17l0,.4c1-.22,1,.49,1.92.39a1.64,1.64,0,0,1,.64.68,1.46,1.46,0,0,1,0,.25h.13A3.62,3.62,0,0,1,1891,9a10.66,10.66,0,0,1-1.74.88,36.33,36.33,0,0,0,4.75.25,6.19,6.19,0,0,0-.36-2.19h0a5.61,5.61,0,0,1-.48-1.49,11.92,11.92,0,0,1,.6-1.53h0a.65.65,0,0,1,0-.09v0c0-.07.07-.13.22-.1a1.69,1.69,0,0,1,2,.34c.8.09.75-.4,1.25,0l.41-.06c1,1,.95,2.57.91,3.86-.42.87-2.06.83-2.54,1.65l1.74-.06c1.21.07,1.21-.08,1.77.54-.19-.78,1.36-.28,2-.46a1.14,1.14,0,0,1,.45,0c0-.42.08-.85-.08-1a8.07,8.07,0,0,1,.5-3.13.18.18,0,0,0,.12-.08.72.72,0,0,1,.35-.27l1.87.13a2.13,2.13,0,0,1,.7.63c.47,1.52.15,3.11-1.61,3.78l.2.1c.36.07.43.23.75,0a.57.57,0,0,1,0-.08l.38,0a12.73,12.73,0,0,1,2.87.14c.21.19.87,0,1.23,0s.2-.49.21-.81c-.69.17-.77-.18-1.1-.31a4,4,0,0,1-.67-2.38.14.14,0,0,0,.06-.12.87.87,0,0,1,.32-.61,3.42,3.42,0,0,1,3,0c.95-.06,1.13.54,1.31,1.16.8.8-.11,2,.15,3-.57,0-.93.08-1,.43h.25c1,.16,2,.26,3,.37,0-.2,0-.54,0-.6a.79.79,0,0,1-.21-.09.13.13,0,0,0,0-.13,2.69,2.69,0,0,1-.56-1.38.15.15,0,0,0-.12-.15,2.56,2.56,0,0,1-.32-1.13,1.77,1.77,0,0,1,.68-.93.14.14,0,0,0,.12-.06l.14-.05a13.3,13.3,0,0,0,2.13.18,2.81,2.81,0,0,1,.49,4.88c.21,0,.42.08.62.1a14.84,14.84,0,0,0,2.34-.38v3c-2.92-.33-6.78-1-8.68-.8h-.25a58.1,58.1,0,0,1-8.17,1.26,5.74,5.74,0,0,1-3,.1h-.5a49.09,49.09,0,0,1-7.49,0l-.5,0c-5.71-.09-9.53-.2-15.22.08v.2c-.87-.32-1.45.2-2.74.09-2,.3-2.82-.36-4.25-.07-.6-.1-1.79.31-2-.14l-1.25,0-1.49,0c-.06-.15,0-.39-.27-.39,0,.12,0,.24-.24.21a12.88,12.88,0,0,1-3-.11c-1.78.23-2.66,0-4.73.15-1.56-.17-3.61.08-5-.24h-.25c.2.32-1.16.36-1,0l-.5,0a6.82,6.82,0,0,0-2,.06h-.25l-1.49,0c-.2,0-.49,0-.51-.18a5.87,5.87,0,0,1-3,.1h-.25c-2,.18-3.82-.33-6-.21v-.2h-.25c-2-.16-8.28.48-10.26-.48,0,.07.27.39.27.39-2.16.51-4.94.09-7,0-3.82-.14-7.64-.13-11.74-.23h-.25c-5.27.32-7.88-.14-12.9.28,0,.36-.23.48-.73.42H1793v.2c-1-.09-3.58-.87-3.05,0-4,.57-5.86,1.18-9.46.5a33.62,33.62,0,0,1-9.51-.5c.12,0-3.69-.45-4-.45-6.66-.11-7.48-.29-12.32-.52V11.26a14.6,14.6,0,0,0,1.32-.9Z"/><path class="cls-1" d="M164.11,8.42h.25a.7.7,0,0,1,.77-.37c.25-1,.43-1.65-.38-2.22h-.25c-.11-.3-.34-.52-.46-.82a6.76,6.76,0,0,0-1.52.35l0,.4a11.23,11.23,0,0,0-1.3,1,3,3,0,0,0-2.08,1.53c0,.23-.47.44,0,.6l0,.4h-.25a6.78,6.78,0,0,0-3.26.29.3.3,0,0,1-.23-.41,11.87,11.87,0,0,1,1.59-1.75c.18-.54,1.07-.46,1.06-1.17-.19-.56-1.21-.52-1.18-1.24-2.64-.15-4.89,1.63-2.65,2.91,0,.62.65.8.93,1.23-.69.79-3.45-.25-4.29.86a1.92,1.92,0,0,0-1.24-.24v.2c-.25,0-.29-.17-.49-.22-.06.15,0,.39-.27.39,0-.16,0-.39-.23-.41-.15.32-.81.2-1.39.14,0-1.63,2.29-1.29,2.66-2.61-.55-.33-.45-.43-.2-1-1.25.28-.76-.72-1.71-.66-3,.14-4.25,3.15-1.88,4.25-.58,0-.75.32-1.5.15-.11-.28-1.66-.07-2,.13-1.14-.25-2.18.29-2.74-.09a3.5,3.5,0,0,1,2.12-2.33c1.14,0,1.35-1.64,1.11-2.16.58-.12-.59-1,.06-1.2-.62,0-.75-.4-1.25,0-.39,0-.17-.52-.73-.43,0-.16,0-.39-.23-.41-.43.74-2.47.08-2.56,1.11-2.18,1-1.46,4.35.23,5.21V10c-.27.27-1.49.54-.75,0a50.16,50.16,0,0,1-6.7-.83c0-.2.21-.23.27-.39s.61-.16,1-.17c-.48-.75.48-.79.34-1.79.15,0,.3,0,.26-.19h.25a17.61,17.61,0,0,1,2-.93l0-.8c.62-.51-.14-1.18-1.19-1,.2-.53-.49-.4-.72-.63a.3.3,0,0,1-.23-.41c-1,.17-1.14-.17-1.77.34a1.5,1.5,0,0,1-.74.3A13.71,13.71,0,0,0,129,6h0l0,.4c-.32.62.37.5.46.82.07.65.8.82,1.18,1.24.3,1.25-3.59-.14-4-.34l0-.8a1.53,1.53,0,0,0,1.3-1l.16,0a6.65,6.65,0,0,0-.58-4.14c-.41,0-.72-.14-.87.06-1.22.26-2.7.29-3.3,1.09-1,1.31-.19,3.24,1.28,4.25-.12.34.34.52,0,.6-2.32-.05-3.17,0-4.74,0-.83-.46-1.31,0-2.23-.28a5.1,5.1,0,0,1-1.75.14c.95-1,.44-2.37,2.63-2.51.13-.48-.43-.45-.2-1h0a5.49,5.49,0,0,1-.16-.58,2.25,2.25,0,0,1-.55-.85c-2.33.32-4,.06-4.84,1.84C113,6,114,6.3,114,7.32a1.64,1.64,0,0,1,1,.23c0,.12,0,.24.24.21l0,.4c-3-.39-4.34.13-7.23-.25-.84-.24.7,0,.28-.59.25,0,.3-.15.51-.18,0-1.21,1.14-1.37,1.61-2.15h.25c.87-.07.43-1.29.6-2-.19-.71.08-.65-.44-1.22a8.49,8.49,0,0,0-4.51.45.33.33,0,0,1-.11.14,13.13,13.13,0,0,0-1.33,2.8,13.67,13.67,0,0,1,.72,1.24c0,.16,0,.39.23.41,0,.29.39.35.47.62h.25c0,.33.68.14.73.43l-1.49-.05a5.78,5.78,0,0,0-2,.13c-.58.11-1.52.35-2-.07a6.21,6.21,0,0,1,1.09-1.76A7.92,7.92,0,0,1,103.93,5a3.53,3.53,0,0,0-.44-2.85c-.45-.17-.83-.32-1.21,0a10.14,10.14,0,0,1-2.46.49A5.34,5.34,0,0,0,99,4.1a4.43,4.43,0,0,0-.23.79,3.62,3.62,0,0,1,.57,1.53c-.14.94,1.66.44,1.42,1.45-1.58,0-2.82-.19-5.23-.18-.28-.8.75-.46.8-1,.71-.51.87-1.51,1.65-2a3.76,3.76,0,0,0,.75-1.54,10.09,10.09,0,0,0,0-2.17,1.82,1.82,0,0,0-.55-.49c-.35.88-2.09-1-2.72-.49.25.26-.3.57-.3,1h-.25A3.29,3.29,0,0,1,93.14,1a3,3,0,0,0-.43.18,1.75,1.75,0,0,0,.13.2,2,2,0,0,0-.66,3c-.07,1.4.92,2,1.86,2.66v.4c-.06.43-.65.41-1.27.36C90.65,8,89,7.33,87.75,8c.27-.73-1.3-.41-1.48-.25,0-.24.07-.57-.22-.61.3-1.06.57-2.15,1.87-2.34s-.12-1.12.58-1.58a3,3,0,0,0-1.72-.46,10.25,10.25,0,0,0-4,.66,3.19,3.19,0,0,0,1.8,3.86v.2c.15,0,.29,0,.24.21a45.84,45.84,0,0,1-8.24.12,2.28,2.28,0,0,0,.09-1.8c.69-.3,1.59-.42,1.57-1.35h.23c0-.19.08-.39.12-.58a3.27,3.27,0,0,0-.5-1c-.23-.32-.51-.94-1-1.09-.28-.1-.38-.12-.56-.2-.74,0-1.48.1-2.27.11-.2,0-.38.1-.57.16A5.56,5.56,0,0,0,72.74,5l0,.08c.08.24.2.46.27.69h.11c-.21.67.48.67.7,1V7A1.57,1.57,0,0,1,75,8c-.68-.52-1.66-.14-2.37-.31a8.11,8.11,0,0,1-3,.12l0,0a1.13,1.13,0,0,1,0-1,5,5,0,0,0-1.42-3.87l-.06.06h-.25c-.25,0-.3.15-.51.18a2,2,0,0,0-1.19-.25,2.61,2.61,0,0,0-.26.27,7.55,7.55,0,0,1-.44,2.72c.76,0,.48.67.7,1-.06.46.34.58.7.73a13.53,13.53,0,0,1-4.33-.23c.05-.54-.39-.42,0-.8.08-.38-.26-.45-.21-.81.78-.18,1.72-1,1.09-1.76.15,0,.3,0,.26-.19a1,1,0,0,0,.32-1.39c0-.67-.19-1.93-.6-2.2L63.3.17l-.1,0c.06.34-.72.12-1.46-.16a5.53,5.53,0,0,0-.93.15c-.35.56-1,.67-.92,1.3-.57,0-1.11-.11-1.63-.16a3.79,3.79,0,0,0-.42.61,3.07,3.07,0,0,0-.3,1.67C58,5.53,59.2,6.86,61.84,7.15c-2.18.68-5.41.41-8.18.59a4.11,4.11,0,0,0,.18-1.54,1.6,1.6,0,0,1,.46-.3A6.94,6.94,0,0,0,54.46,5V5c0-.44-.1-1.32-.67-1.57-1.2.19-1.7,1.21-2.81.3-1,1.06-.58,2.94.28,4.12-1.12-.5-3.49.3-4.65-.58.29,0,.29-.31.28-.59,0-.55.44-.39,0-.8A12.43,12.43,0,0,0,48.58,2.9V2.7A2.31,2.31,0,0,0,48.72,2a3.37,3.37,0,0,0-1-1.34,2.33,2.33,0,0,0-1.78.19c-.07.36-.59.53-1.31.61A5.28,5.28,0,0,0,42.4,4c-.14.89.15,1.73,1.54,1.76-.21.54.47.42.46.82v.2c-.06.68,1.51.17,1.45.85a16.37,16.37,0,0,0-5.24,0c-1.1-.32-.2-1-.66-1.62.2,0,.49,0,.51-.18.49-.22,1.4-.64.81-1.17.3,0,.17-.22,0-.4a2.42,2.42,0,0,0,.2-.3V3.89a3.71,3.71,0,0,0-.78-2.3l-.29,0a.58.58,0,0,0,.15-.2l-.21-.21c-.42,0-1.26.2-1.2.57a1.86,1.86,0,0,1-1.43.28,3.07,3.07,0,0,0-1.43,1.11,5,5,0,0,0,1.07,4.35c-1,.28-2.63-.07-3.51.28h-.5l0-.4c-.17-1,.87-.91.6-2L34,5a.29.29,0,0,1,.07-.32,3.57,3.57,0,0,0-.37-.94,4.39,4.39,0,0,1-.3-.6l-.05,0V3a1.45,1.45,0,0,1,0-.27c-.05-.11-.17-.18-.42-.14-.33.41.17.29-1,.17l0,.4c-1-.22-1,.49-1.92.39a1.65,1.65,0,0,0-.65.67,1.48,1.48,0,0,0,0,.25h-.13a3.62,3.62,0,0,0,0,2.57,10.57,10.57,0,0,0,1.74.88,36.34,36.34,0,0,1-4.76.24,6.22,6.22,0,0,1,.36-2.19h0A5.69,5.69,0,0,0,27,4.47a11.9,11.9,0,0,0-.6-1.54h0a.71.71,0,0,0,0-.09v0c0-.07-.07-.13-.22-.11a1.69,1.69,0,0,0-2,.33c-.8.09-.75-.4-1.25,0L22.46,3c-1,1-1,2.57-.92,3.85.42.87,2.06.83,2.54,1.65l-1.74-.06c-1.21.06-1.21-.09-1.77.54.19-.78-1.36-.28-2-.47a1.13,1.13,0,0,0-.45,0c0-.42-.08-.85.08-1a8.07,8.07,0,0,0-.5-3.13.18.18,0,0,1-.12-.08A.71.71,0,0,0,17.26,4l-1.87.12a2.14,2.14,0,0,0-.7.63c-.47,1.52-.15,3.11,1.6,3.78l-.2.1c-.36.07-.43.22-.75,0a.57.57,0,0,0,0-.08l-.38,0a12.74,12.74,0,0,0-2.87.13c-.21.18-.87,0-1.23,0s-.2-.49-.21-.81c.68.17.77-.17,1.1-.31a4,4,0,0,0,.67-2.38A.14.14,0,0,1,12.35,5,.87.87,0,0,0,12,4.38a3.42,3.42,0,0,0-3,0c-.95-.06-1.14.54-1.31,1.16-.8.79.1,2-.16,3,.57,0,.93.08,1,.43H8.33c-1,.15-2,.25-3,.36,0-.2,0-.55,0-.6a.86.86,0,0,0,.21-.09.14.14,0,0,1,0-.13,2.69,2.69,0,0,0,.57-1.38A.15.15,0,0,1,6.21,7a2.56,2.56,0,0,0,.33-1.13,1.77,1.77,0,0,0-.68-.94.14.14,0,0,1-.12-.06L5.6,4.76a13.3,13.3,0,0,1-2.13.17A2.81,2.81,0,0,0,3,9.82l-.62.1A14.73,14.73,0,0,1,0,9.54v3c2.92-.32,6.78-1,8.68-.78h.25A58,58,0,0,0,17.1,13a5.71,5.71,0,0,0,3,.1h.5a49.09,49.09,0,0,0,7.49.05l.5,0c5.71-.08,9.53-.18,15.22.12v.2c.87-.32,1.45.2,2.74.09,2,.31,2.82-.35,4.25-.06.6-.1,1.8.31,2-.13l1.25,0,1.49.05c.06-.15,0-.39.27-.39,0,.12,0,.24.24.21a12.84,12.84,0,0,0,3-.1c1.78.24,2.66,0,4.73.16,1.56-.17,3.61.09,5-.23H69c-.19.32,1.16.36,1,0l.5,0a6.8,6.8,0,0,1,2,.07h.25l1.49.05c.2,0,.49,0,.51-.18a5.87,5.87,0,0,0,3,.1H78c2,.18,3.82-.33,6-.2v-.2h.25c2-.15,8.28.5,10.26-.45,0,.07-.27.39-.27.39,2.16.51,4.94.11,7,0,3.82-.13,7.64-.12,11.74-.2h.25c5.27.34,7.88-.12,12.9.31-.05.36.22.48.73.42h.25v.2c1-.09,3.58-.86,3.05,0,4,.58,5.86,1.2,9.46.52a33.63,33.63,0,0,0,9.51-.48c-.12,0,3.69-.44,4-.44,6.66-.1,7.48-.28,12.32-.5V9.53a14.7,14.7,0,0,1-1.32-.91Z"/><path class="cls-1" d="M162.72,8.28h-.25a.7.7,0,0,0-.77-.38c-.25-1-.42-1.65.39-2.21h.25c.12-.3.34-.52.46-.82a6.7,6.7,0,0,1,1.51.35l0,.4a11.15,11.15,0,0,1,1.3,1,3,3,0,0,1,2.07,1.54c0,.24.47.44,0,.6l0,.4H168a6.76,6.76,0,0,1,3.26.3.3.3,0,0,0,.23-.41,11.8,11.8,0,0,0-1.59-1.75c-.18-.54-1.07-.46-1.06-1.17.19-.56,1.21-.51,1.19-1.24,2.64-.14,4.89,1.64,2.64,2.92,0,.62-.65.8-.94,1.23.69.79,3.45-.24,4.28.86a1.93,1.93,0,0,1,1.24-.24v.2c.25,0,.29-.17.49-.22.06.15,0,.39.27.39,0-.16,0-.39.23-.41.15.32.81.2,1.39.14,0-1.63-2.29-1.29-2.66-2.61.55-.33.45-.43.2-1,1.25.29.76-.72,1.72-.66,3,.15,4.24,3.15,1.87,4.25.58,0,.75.32,1.5.15.11-.28,1.66-.07,2,.14,1.15-.24,2.18.3,2.74-.09a3.5,3.5,0,0,0-2.11-2.33c-1.14,0-1.35-1.64-1.11-2.17-.58-.12.59-1-.06-1.2.62,0,.75-.4,1.25,0,.39,0,.17-.52.73-.42,0-.16,0-.39.23-.41.43.74,2.47.08,2.55,1.12,2.18,1,1.45,4.35-.24,5.21v.2c.27.27,1.49.55.75,0A50.42,50.42,0,0,0,195.7,9c0-.2-.21-.23-.27-.39s-.61-.16-1-.17c.48-.75-.48-.79-.34-1.79-.15,0-.3,0-.26-.19h-.25a17.76,17.76,0,0,0-2-.94l0-.8c-.62-.52.14-1.18,1.2-1-.2-.53.5-.4.72-.62a.3.3,0,0,0,.23-.41c1,.17,1.14-.17,1.76.34a1.51,1.51,0,0,0,.74.3A13.64,13.64,0,0,1,197.82,6h0l0,.4c.32.62-.37.5-.46.82-.08.65-.8.82-1.19,1.24-.3,1.25,3.59-.13,4-.33l0-.8a1.53,1.53,0,0,1-1.3-1l-.16,0a6.66,6.66,0,0,1,.59-4.14c.41,0,.72-.14.87.06,1.22.26,2.7.3,3.3,1.1,1,1.31.18,3.23-1.29,4.24.12.34-.34.52,0,.6,2.32,0,3.18.05,4.75,0,.83-.45,1.31,0,2.23-.27a5.07,5.07,0,0,0,1.75.14c-.94-1-.44-2.37-2.62-2.52-.13-.48.43-.45.2-1h0a5.59,5.59,0,0,0,.16-.58,2.26,2.26,0,0,0,.55-.85c2.33.32,4,.07,4.83,1.85-.14.93-1.13,1.22-1.14,2.24a1.64,1.64,0,0,0-1,.23c0,.12,0,.24-.24.21l0,.4c3-.38,4.34.14,7.23-.23.84-.24-.7,0-.28-.59-.25,0-.3-.15-.51-.18,0-1.21-1.14-1.38-1.6-2.15h-.25c-.87-.08-.43-1.29-.6-2,.19-.71-.08-.66.44-1.22a8.48,8.48,0,0,1,4.51.46.33.33,0,0,0,.11.14A13.17,13.17,0,0,1,222,5.19a13.55,13.55,0,0,0-.72,1.23c0,.16,0,.39-.23.41,0,.29-.39.35-.47.61h-.25c0,.33-.69.13-.73.42l1.49,0a5.77,5.77,0,0,1,2,.14c.58.11,1.52.35,2-.06A6.2,6.2,0,0,0,224,6.13,7.86,7.86,0,0,0,222.9,5a3.53,3.53,0,0,1,.45-2.85c.45-.17.83-.32,1.21,0a10.1,10.1,0,0,0,2.46.5,5.34,5.34,0,0,1,.84,1.49,4.4,4.4,0,0,1,.22.79,3.61,3.61,0,0,0-.57,1.53c.14.94-1.67.43-1.42,1.45,1.58,0,2.82-.18,5.23-.17.28-.8-.75-.46-.8-1-.71-.51-.86-1.51-1.65-2a3.77,3.77,0,0,1-.75-1.54,10.07,10.07,0,0,1,0-2.17,1.81,1.81,0,0,1,.55-.48c.35.88,2.1-1,2.72-.49-.25.26.3.57.3,1H232A3.31,3.31,0,0,0,233.7,1a2.87,2.87,0,0,1,.43.18,1.71,1.71,0,0,1-.13.21,2,2,0,0,1,.65,3c.07,1.4-.93,2-1.86,2.66v.4c.06.43.65.41,1.27.36,2.11.15,3.77-.46,5,.24-.27-.73,1.3-.41,1.49-.25,0-.24-.07-.57.22-.61-.3-1.06-.56-2.15-1.86-2.34s.12-1.12-.58-1.58a3,3,0,0,1,1.72-.46,10.23,10.23,0,0,1,4,.67,3.19,3.19,0,0,1-1.8,3.86v.2c-.15,0-.29,0-.24.21a45.84,45.84,0,0,0,8.24.14,2.28,2.28,0,0,1-.09-1.8c-.69-.3-1.59-.43-1.57-1.35h-.23c0-.19-.08-.39-.12-.58a3.29,3.29,0,0,1,.5-1c.23-.32.51-.94,1-1.09.28-.1.38-.12.56-.2.74.05,1.48.1,2.27.11.2,0,.38.11.57.16A5.57,5.57,0,0,1,254.1,5s0,.06,0,.08c-.08.24-.2.46-.28.69h-.11c.21.67-.48.67-.7,1V7a1.57,1.57,0,0,0-1.2,1c.68-.52,1.66-.14,2.37-.31a8.13,8.13,0,0,0,3,.13l0,0a1.13,1.13,0,0,0,0-1,5,5,0,0,1,1.43-3.87l.06.06h.25c.25,0,.3.15.51.18a2,2,0,0,1,1.19-.25,2.45,2.45,0,0,1,.26.27,7.6,7.6,0,0,0,.43,2.72c-.76,0-.48.67-.7,1,.06.46-.34.58-.7.73a13.53,13.53,0,0,0,4.33-.22c-.05-.54.39-.42,0-.8-.08-.38.26-.45.21-.81-.78-.19-1.72-1-1.09-1.77-.15,0-.3,0-.26-.19a1,1,0,0,1-.32-1.39c0-.67.2-1.93.6-2.2l.18-.05.1,0c-.06.34.72.13,1.46-.15a5.53,5.53,0,0,1,.93.15c.35.56,1,.68.92,1.3.57,0,1.11-.11,1.63-.15A3.92,3.92,0,0,1,269,2a3.07,3.07,0,0,1,.3,1.67c-.43,1.93-1.67,3.25-4.31,3.53,2.18.69,5.41.42,8.18.6A4.1,4.1,0,0,1,273,6.3a1.57,1.57,0,0,0-.46-.3,7.15,7.15,0,0,1-.16-.92v0c0-.44.11-1.32.67-1.57,1.2.19,1.69,1.21,2.81.31,1,1.06.57,2.94-.29,4.12,1.12-.5,3.49.31,4.65-.57-.29,0-.29-.31-.28-.59,0-.55-.44-.39,0-.8a12.39,12.39,0,0,1-1.65-3v-.2a2.3,2.3,0,0,1-.13-.74,3.37,3.37,0,0,1,1-1.34,2.33,2.33,0,0,1,1.78.2c.07.36.59.53,1.31.62a5.29,5.29,0,0,1,2.22,2.57c.14.89-.15,1.73-1.54,1.75.21.54-.48.42-.46.81v.2c.06.68-1.51.16-1.45.85a16.37,16.37,0,0,1,5.24,0c1.1-.32.2-1,.67-1.62-.2,0-.49,0-.51-.18-.49-.22-1.39-.64-.81-1.18-.3,0-.16-.22,0-.4a2.36,2.36,0,0,1-.2-.3V4a3.72,3.72,0,0,1,.78-2.3l.29,0a.57.57,0,0,1-.15-.2l.21-.21c.42,0,1.26.21,1.19.57a1.85,1.85,0,0,0,1.43.29,3.06,3.06,0,0,1,1.43,1.11,5,5,0,0,1-1.07,4.35c1,.28,2.63-.06,3.51.29h.5l0-.4c.17-1-.87-.91-.6-2l0-.4a.28.28,0,0,0-.07-.32,3.55,3.55,0,0,1,.37-.94,4.54,4.54,0,0,0,.3-.6l.05,0v-.2a1.45,1.45,0,0,0,0-.27c.06-.11.17-.18.42-.14.33.41-.17.29,1,.17l0,.4c1-.22,1,.49,1.92.39a1.66,1.66,0,0,1,.64.68,1.47,1.47,0,0,1,0,.25h.13a3.62,3.62,0,0,1,0,2.57A10.66,10.66,0,0,1,296,8a36.47,36.47,0,0,0,4.75.25,6.19,6.19,0,0,0-.36-2.19h0a5.63,5.63,0,0,1-.48-1.48,11.9,11.9,0,0,1,.6-1.53h0a.7.7,0,0,1,0-.08V3c0-.07.07-.13.22-.11a1.69,1.69,0,0,1,2,.34c.8.09.75-.4,1.25,0l.41-.06c1,1,.95,2.57.91,3.86-.42.86-2.06.83-2.54,1.65l1.74-.06c1.21.07,1.21-.09,1.77.54-.19-.78,1.36-.28,2-.46a1.14,1.14,0,0,1,.45,0c0-.42.08-.85-.08-1a8.06,8.06,0,0,1,.5-3.13.18.18,0,0,0,.12-.08.72.72,0,0,1,.35-.27l1.87.13a2.16,2.16,0,0,1,.7.63c.47,1.52.15,3.11-1.61,3.78l.2.1c.36.07.43.23.75,0a.56.56,0,0,1,0-.08l.38,0a12.73,12.73,0,0,1,2.87.14c.21.19.87,0,1.23,0s.2-.49.21-.81c-.69.17-.77-.18-1.1-.31a4,4,0,0,1-.67-2.38.13.13,0,0,0,.06-.12.87.87,0,0,1,.32-.62,3.42,3.42,0,0,1,3,0c.95-.06,1.13.54,1.31,1.16.8.8-.11,2,.15,3-.57,0-.93.08-1,.43h.25c1,.16,2,.25,3,.37,0-.2,0-.55,0-.6a.82.82,0,0,1-.21-.09.13.13,0,0,0,0-.13,2.69,2.69,0,0,1-.56-1.39.15.15,0,0,0-.12-.14A2.57,2.57,0,0,1,320.3,6a1.77,1.77,0,0,1,.68-.93A.14.14,0,0,0,321.1,5l.14-.05a13.39,13.39,0,0,0,2.13.18,2.81,2.81,0,0,1,.49,4.88l.62.1a14.72,14.72,0,0,0,2.34-.38v3c-2.92-.33-6.78-1-8.68-.8h-.25a57.87,57.87,0,0,1-8.17,1.26,5.71,5.71,0,0,1-3,.1h-.5a49.09,49.09,0,0,1-7.49,0l-.5,0c-5.71-.09-9.53-.2-15.22.08v.2c-.87-.32-1.45.2-2.74.09-2,.31-2.82-.36-4.25-.07-.6-.1-1.79.31-2-.14l-1.25,0-1.49,0c-.06-.15,0-.39-.27-.39,0,.12,0,.24-.24.21a12.88,12.88,0,0,1-3-.1c-1.78.23-2.66,0-4.73.15-1.56-.17-3.61.08-5-.24h-.25c.2.32-1.16.36-1,0l-.5,0a6.79,6.79,0,0,0-2,.06h-.25l-1.49,0c-.2,0-.49,0-.51-.18a5.87,5.87,0,0,1-3,.1h-.25c-2,.17-3.82-.33-6-.21v-.2h-.25c-2-.16-8.28.48-10.26-.47,0,.07.27.39.27.39-2.16.51-4.94.09-7,0-3.82-.14-7.64-.13-11.74-.23h-.25c-5.27.32-7.88-.14-12.9.28,0,.36-.23.48-.73.42h-.25v.2c-1-.09-3.58-.87-3.05,0-4,.57-5.86,1.18-9.46.5a33.65,33.65,0,0,1-9.51-.5c.12,0-3.69-.45-4-.45-6.66-.11-7.48-.29-12.32-.52V9.39a14.39,14.39,0,0,0,1.32-.91Z"/><path class="cls-1" d="M483.46,8.49h.25a.7.7,0,0,1,.77-.37c.25-1,.43-1.65-.38-2.21h-.25c-.11-.3-.34-.52-.46-.82a6.68,6.68,0,0,0-1.52.35l0,.4a11.26,11.26,0,0,0-1.3,1,3,3,0,0,0-2.08,1.53c0,.23-.47.44,0,.6l0,.4h-.25a6.78,6.78,0,0,0-3.26.29.3.3,0,0,1-.23-.41,11.79,11.79,0,0,1,1.59-1.75c.18-.54,1.07-.46,1.06-1.17-.19-.56-1.21-.52-1.18-1.24-2.64-.15-4.89,1.63-2.65,2.91,0,.62.65.8.93,1.23-.69.79-3.45-.25-4.29.86a1.92,1.92,0,0,0-1.24-.24V10c-.25,0-.29-.17-.49-.22-.06.15,0,.39-.27.39,0-.16,0-.39-.23-.41-.15.32-.81.2-1.39.14,0-1.63,2.29-1.29,2.66-2.61-.55-.33-.45-.43-.2-1-1.25.28-.76-.72-1.71-.66-3,.14-4.25,3.15-1.88,4.25-.58,0-.75.32-1.5.15-.11-.28-1.66-.07-2,.13-1.14-.25-2.18.29-2.74-.09a3.5,3.5,0,0,1,2.12-2.33c1.14,0,1.35-1.64,1.11-2.16.58-.12-.59-1,.06-1.2-.62,0-.75-.4-1.25,0-.39,0-.17-.52-.73-.42,0-.16,0-.39-.23-.41-.43.74-2.47.08-2.56,1.11-2.18,1-1.46,4.35.23,5.21V10c-.27.27-1.49.54-.75,0a50.16,50.16,0,0,1-6.7-.83c0-.2.21-.23.27-.39s.61-.16,1-.17c-.48-.75.48-.79.34-1.79.15,0,.3,0,.26-.19h.25a17.76,17.76,0,0,1,2-.93l0-.8c.62-.52-.14-1.18-1.19-1,.2-.53-.49-.4-.72-.62a.3.3,0,0,1-.23-.41c-1,.17-1.14-.17-1.77.34a1.5,1.5,0,0,1-.74.3,13.72,13.72,0,0,0-1.68,2.62h0l0,.4c-.32.62.37.5.46.82.07.65.8.82,1.18,1.24.3,1.25-3.59-.14-4-.34l0-.8a1.53,1.53,0,0,0,1.3-1l.16,0A6.65,6.65,0,0,0,447,2.36c-.41,0-.72-.14-.87.06-1.22.26-2.7.29-3.3,1.09-1,1.31-.19,3.24,1.28,4.25-.12.34.34.52,0,.6-2.32-.05-3.17,0-4.74,0-.83-.46-1.31,0-2.23-.28a5.1,5.1,0,0,1-1.75.14c.95-1,.44-2.37,2.63-2.51.13-.48-.43-.45-.2-1h0a5.54,5.54,0,0,1-.16-.58,2.25,2.25,0,0,1-.55-.85c-2.33.32-4,.06-4.84,1.84.13.93,1.12,1.22,1.13,2.24a1.66,1.66,0,0,1,1,.23c0,.12,0,.24.24.21l0,.4c-3-.39-4.34.13-7.23-.25-.84-.24.7,0,.28-.59.25,0,.3-.15.51-.18,0-1.2,1.14-1.37,1.61-2.15H430c.87-.07.43-1.29.6-2-.19-.71.08-.65-.44-1.22a8.49,8.49,0,0,0-4.51.45.32.32,0,0,1-.11.14,13.15,13.15,0,0,0-1.33,2.8,13.57,13.57,0,0,1,.72,1.24c0,.16,0,.39.23.41,0,.29.39.35.47.62h.25c0,.33.68.14.73.43l-1.49-.05a5.76,5.76,0,0,0-2,.13c-.58.11-1.52.35-2-.07a6.19,6.19,0,0,1,1.09-1.76,7.88,7.88,0,0,1,1.11-1.12,3.53,3.53,0,0,0-.44-2.85c-.45-.18-.83-.32-1.21,0a10.14,10.14,0,0,1-2.46.49,5.33,5.33,0,0,0-.85,1.49,4.39,4.39,0,0,0-.23.79,3.62,3.62,0,0,1,.57,1.53c-.14.94,1.66.44,1.42,1.45-1.58,0-2.82-.19-5.23-.18-.28-.8.75-.46.8-1,.71-.51.87-1.51,1.65-2a3.77,3.77,0,0,0,.75-1.54,10.09,10.09,0,0,0,0-2.17,1.82,1.82,0,0,0-.55-.49c-.35.88-2.09-1-2.72-.49.25.26-.3.57-.3,1h-.25a3.29,3.29,0,0,1-1.71-.06,3.09,3.09,0,0,0-.43.18,1.69,1.69,0,0,0,.13.21,2,2,0,0,0-.66,3c-.07,1.4.92,2,1.86,2.67v.4c-.06.43-.65.41-1.27.36-2.11.15-3.77-.47-5,.23.27-.73-1.3-.41-1.48-.25,0-.24.07-.57-.22-.61.3-1.06.57-2.15,1.87-2.34s-.12-1.12.58-1.58a3,3,0,0,0-1.72-.46,10.25,10.25,0,0,0-4,.66,3.19,3.19,0,0,0,1.8,3.86v.2c.15,0,.29,0,.24.21a45.92,45.92,0,0,1-8.24.12,2.28,2.28,0,0,0,.09-1.8c.69-.3,1.59-.42,1.57-1.35h.23c0-.2.08-.39.12-.58a3.27,3.27,0,0,0-.5-1c-.23-.32-.51-.94-1-1.09-.28-.1-.38-.12-.56-.2-.74,0-1.48.1-2.27.11-.2,0-.38.1-.57.16A5.56,5.56,0,0,0,392.09,5l0,.08c.08.24.2.46.27.69h.11c-.21.67.48.67.7,1V7a1.57,1.57,0,0,1,1.19,1c-.68-.52-1.66-.14-2.37-.31a8.13,8.13,0,0,1-3,.12l0,0a1.13,1.13,0,0,1,0-1,5,5,0,0,0-1.42-3.87l-.06.06h-.25c-.25,0-.3.15-.51.18a2,2,0,0,0-1.19-.25,2.61,2.61,0,0,0-.26.27,7.54,7.54,0,0,1-.44,2.72c.76,0,.48.67.7,1-.06.46.34.58.7.73a13.53,13.53,0,0,1-4.33-.23c.05-.54-.39-.42,0-.8.08-.38-.26-.45-.21-.81.78-.18,1.72-1,1.09-1.76.15,0,.3,0,.26-.19a1,1,0,0,0,.32-1.39c0-.67-.19-1.93-.6-2.2l-.18-.05-.1,0c.06.34-.72.12-1.46-.16a5.7,5.7,0,0,0-.93.15c-.35.56-1,.68-.92,1.3-.57,0-1.11-.11-1.63-.16a3.75,3.75,0,0,0-.42.61,3.07,3.07,0,0,0-.3,1.67c.42,1.93,1.66,3.25,4.31,3.54-2.18.68-5.41.41-8.18.59a4.11,4.11,0,0,0,.18-1.54,1.6,1.6,0,0,1,.46-.3,7,7,0,0,0,.16-.92V5c0-.44-.1-1.32-.67-1.57-1.2.19-1.7,1.21-2.81.3-1,1.06-.58,2.94.28,4.12-1.12-.5-3.49.3-4.65-.58.29,0,.29-.31.28-.59,0-.55.44-.39,0-.8A12.43,12.43,0,0,0,367.93,3v-.2a2.31,2.31,0,0,0,.13-.74,3.37,3.37,0,0,0-1-1.34,2.33,2.33,0,0,0-1.78.19c-.07.36-.59.53-1.31.61a5.27,5.27,0,0,0-2.23,2.57c-.14.89.15,1.73,1.54,1.76-.21.54.47.42.46.82v.2c-.06.68,1.51.17,1.45.85a16.42,16.42,0,0,0-5.24,0c-1.1-.32-.2-1-.66-1.62.2,0,.49,0,.51-.18.49-.22,1.4-.64.81-1.17.3,0,.17-.22,0-.4a2.49,2.49,0,0,0,.2-.3V4a3.71,3.71,0,0,0-.78-2.3l-.29,0a.58.58,0,0,0,.15-.2l-.21-.22c-.42,0-1.26.21-1.2.57a1.86,1.86,0,0,1-1.43.28,3.07,3.07,0,0,0-1.43,1.11,5,5,0,0,0,1.07,4.35c-1,.28-2.63-.07-3.51.28h-.5l0-.4c-.17-1,.87-.91.6-2l0-.4a.29.29,0,0,1,.07-.32,3.57,3.57,0,0,0-.37-.94,4.4,4.4,0,0,1-.3-.6l-.05,0V3a1.45,1.45,0,0,1,0-.27c-.05-.11-.17-.18-.42-.14-.33.41.17.29-1,.17l0,.4c-1-.22-1,.49-1.92.39a1.65,1.65,0,0,0-.65.68,1.48,1.48,0,0,0,0,.25h-.13a3.62,3.62,0,0,0,0,2.57A10.57,10.57,0,0,0,350.2,8a36.34,36.34,0,0,1-4.76.24A6.22,6.22,0,0,1,345.81,6h0a5.7,5.7,0,0,0,.48-1.48,12,12,0,0,0-.6-1.54h0a.69.69,0,0,0,0-.09v0c0-.07-.07-.13-.22-.11a1.69,1.69,0,0,0-2,.33c-.8.09-.75-.4-1.25,0L341.81,3c-1,1-1,2.57-.92,3.85.42.87,2.06.83,2.54,1.65l-1.74-.06c-1.21.06-1.21-.09-1.77.54.19-.78-1.36-.28-2-.47a1.14,1.14,0,0,0-.45,0c0-.42-.08-.85.08-1a8.07,8.07,0,0,0-.5-3.13A.18.18,0,0,1,337,4.3a.72.72,0,0,0-.34-.27l-1.87.12a2.14,2.14,0,0,0-.7.63c-.47,1.52-.15,3.11,1.6,3.78l-.2.1c-.36.07-.43.22-.75,0a.56.56,0,0,0,0-.08l-.38,0a12.79,12.79,0,0,0-2.87.13c-.21.19-.87,0-1.23,0s-.2-.49-.21-.81c.68.17.77-.17,1.1-.31a4,4,0,0,0,.67-2.38.14.14,0,0,1-.06-.12.87.87,0,0,0-.32-.61,3.42,3.42,0,0,0-3,0c-.95-.06-1.14.54-1.31,1.16-.8.79.1,2-.16,3,.57,0,.93.08,1,.43h-.25c-1,.15-2,.25-3,.36,0-.2,0-.55,0-.6a.86.86,0,0,0,.21-.09.14.14,0,0,1,0-.13,2.69,2.69,0,0,0,.57-1.38.15.15,0,0,1,.12-.14,2.56,2.56,0,0,0,.33-1.13,1.77,1.77,0,0,0-.68-.94.14.14,0,0,1-.12-.06L325,4.83a13.3,13.3,0,0,1-2.13.17,2.81,2.81,0,0,0-.5,4.88l-.62.1a14.85,14.85,0,0,1-2.34-.38v3c2.92-.32,6.78-1,8.68-.78h.25a58,58,0,0,0,8.17,1.28,5.71,5.71,0,0,0,3,.1h.5a49.2,49.2,0,0,0,7.49.05l.5,0c5.71-.08,9.53-.18,15.22.12v.2c.87-.32,1.45.2,2.74.09,2,.31,2.82-.35,4.25-.06.6-.1,1.8.31,2-.13l1.25,0,1.49.05c.06-.15,0-.39.27-.39,0,.12,0,.24.24.21a12.88,12.88,0,0,0,3-.1c1.78.24,2.66,0,4.73.16,1.56-.17,3.61.09,5-.23h.25c-.19.32,1.16.36,1,0l.5,0a6.8,6.8,0,0,1,2,.07h.25l1.49.05c.2,0,.49,0,.51-.18a5.87,5.87,0,0,0,3,.1h.25c2,.18,3.82-.33,6-.2V13h.25c2-.16,8.28.5,10.26-.45,0,.07-.27.39-.27.39,2.16.51,4.94.11,7,0,3.82-.13,7.64-.12,11.74-.2h.25c5.27.34,7.88-.12,12.9.31-.05.36.22.48.73.42h.25v.2c1-.09,3.58-.86,3.05,0,4,.58,5.86,1.19,9.46.52a33.66,33.66,0,0,0,9.51-.48c-.12,0,3.69-.44,4-.44,6.66-.1,7.48-.28,12.32-.5V9.6a14.37,14.37,0,0,1-1.32-.91Z"/><path class="cls-1" d="M480,8.35h-.25A.7.7,0,0,0,479,8c-.25-1-.42-1.65.39-2.21h.25c.12-.3.34-.51.46-.82a6.75,6.75,0,0,1,1.51.35l0,.4a11.06,11.06,0,0,1,1.3,1A3,3,0,0,1,485,8.19c0,.23.47.44,0,.6l0,.4h.25a6.76,6.76,0,0,1,3.26.3.3.3,0,0,0,.23-.41,11.83,11.83,0,0,0-1.59-1.75c-.18-.54-1.07-.46-1.06-1.17.19-.56,1.21-.51,1.19-1.24C490,4.77,492.2,6.55,490,7.83c0,.62-.65.8-.94,1.23.69.79,3.45-.24,4.28.87a1.93,1.93,0,0,1,1.24-.24v.2c.25,0,.29-.17.49-.21.06.15,0,.39.27.39,0-.16,0-.39.23-.41.15.32.81.2,1.39.14,0-1.63-2.29-1.29-2.66-2.61.55-.33.45-.43.2-1,1.25.29.76-.72,1.72-.66,3,.15,4.24,3.15,1.87,4.25.58,0,.75.32,1.5.15.11-.28,1.66-.07,2,.14,1.15-.25,2.18.3,2.74-.09a3.5,3.5,0,0,0-2.11-2.33c-1.14,0-1.35-1.64-1.11-2.17-.58-.12.59-1-.06-1.2.62,0,.75-.4,1.25,0,.39,0,.17-.52.73-.42,0-.16,0-.39.23-.41.43.74,2.47.08,2.55,1.12,2.18,1,1.45,4.35-.24,5.21v.2c.27.27,1.49.54.75,0A50.15,50.15,0,0,0,513,9.1c0-.2-.21-.23-.27-.39s-.61-.16-1-.17c.48-.75-.48-.79-.34-1.79-.15,0-.3,0-.26-.19h-.25a17.49,17.49,0,0,0-2-.94l0-.8c-.62-.52.14-1.18,1.2-1-.2-.53.5-.4.72-.62a.3.3,0,0,0,.23-.41c1,.17,1.14-.17,1.76.34a1.5,1.5,0,0,0,.74.3A13.61,13.61,0,0,1,515.1,6h0l0,.4c.32.62-.37.5-.46.82-.08.65-.8.82-1.19,1.24-.3,1.25,3.59-.13,4-.33l0-.8a1.53,1.53,0,0,1-1.3-1l-.16,0a6.66,6.66,0,0,1,.59-4.14c.41,0,.72-.14.87.06,1.22.26,2.7.3,3.3,1.1,1,1.31.18,3.24-1.29,4.24.12.34-.34.52,0,.6,2.32,0,3.18.05,4.75,0,.83-.45,1.31,0,2.23-.27a5.09,5.09,0,0,0,1.75.14c-.94-1-.44-2.37-2.62-2.52-.13-.48.43-.45.2-1h0a5.59,5.59,0,0,0,.16-.58,2.26,2.26,0,0,0,.55-.85c2.33.32,4,.07,4.83,1.85-.14.93-1.13,1.22-1.14,2.24a1.65,1.65,0,0,0-1,.23c0,.12,0,.24-.24.21l0,.4c3-.38,4.34.14,7.23-.23.84-.24-.7,0-.28-.59-.25,0-.3-.15-.51-.18,0-1.2-1.14-1.38-1.6-2.15h-.25c-.87-.08-.43-1.29-.6-2,.19-.71-.08-.66.44-1.21a8.49,8.49,0,0,1,4.51.46.34.34,0,0,0,.11.14,13.13,13.13,0,0,1,1.32,2.81,13.56,13.56,0,0,0-.72,1.23c0,.16,0,.39-.23.41,0,.29-.39.35-.47.61h-.25c0,.33-.69.13-.73.42l1.49,0a5.73,5.73,0,0,1,2,.14c.58.11,1.52.35,2-.06a6.21,6.21,0,0,0-1.09-1.77,8,8,0,0,0-1.11-1.13,3.53,3.53,0,0,1,.45-2.85c.45-.17.83-.32,1.21,0a10.17,10.17,0,0,0,2.46.5,5.31,5.31,0,0,1,.84,1.49,4.37,4.37,0,0,1,.22.79,3.6,3.6,0,0,0-.57,1.52c.14.94-1.67.43-1.42,1.45,1.58,0,2.82-.18,5.23-.17.28-.8-.75-.46-.8-1-.71-.51-.86-1.51-1.65-2a3.76,3.76,0,0,1-.75-1.54,10.07,10.07,0,0,1,0-2.17A1.8,1.8,0,0,1,546,.64c.35.88,2.1-1,2.72-.49-.25.26.3.57.3,1h.25A3.3,3.3,0,0,0,551,1.09a2.87,2.87,0,0,1,.43.18,1.59,1.59,0,0,1-.13.21,2,2,0,0,1,.65,3c.07,1.4-.93,2-1.86,2.66v.4c.06.44.65.41,1.27.36,2.11.16,3.77-.46,5,.24-.27-.73,1.3-.4,1.49-.25,0-.24-.07-.57.22-.61-.3-1.06-.56-2.15-1.86-2.34s.12-1.12-.58-1.58a3,3,0,0,1,1.72-.46,10.27,10.27,0,0,1,4,.67,3.19,3.19,0,0,1-1.8,3.86v.2c-.15,0-.29,0-.24.21a45.91,45.91,0,0,0,8.24.14,2.28,2.28,0,0,1-.09-1.8c-.69-.3-1.59-.43-1.57-1.35h-.23c0-.2-.08-.39-.12-.58a3.27,3.27,0,0,1,.5-1c.23-.32.51-.94,1-1.09.28-.1.38-.12.56-.2.74.05,1.48.1,2.27.11.2,0,.38.1.57.16a5.57,5.57,0,0,1,.93,2.87s0,.06,0,.08c-.08.24-.2.46-.28.69H571c.21.67-.48.67-.7,1v.2a1.57,1.57,0,0,0-1.2,1c.68-.52,1.66-.14,2.37-.31a8.13,8.13,0,0,0,3,.13l0,0a1.13,1.13,0,0,0,0-1A5,5,0,0,1,575.89,3l.06.06h.25c.25,0,.3.15.51.18A2,2,0,0,1,577.9,3a2.45,2.45,0,0,1,.26.27A7.6,7.6,0,0,0,578.59,6c-.76,0-.48.67-.7,1,.06.46-.34.58-.7.73a13.55,13.55,0,0,0,4.33-.22c-.05-.54.39-.42,0-.8-.08-.38.26-.45.21-.81-.78-.19-1.72-1-1.09-1.77-.15,0-.3,0-.26-.19A1,1,0,0,1,580,2.57c0-.67.2-1.93.6-2.2l.18-.05.1,0c-.06.34.72.13,1.46-.15a5.7,5.7,0,0,1,.93.15c.35.56,1,.68.92,1.3.57,0,1.11-.11,1.63-.15a3.84,3.84,0,0,1,.42.61,3.06,3.06,0,0,1,.3,1.67c-.43,1.93-1.67,3.25-4.31,3.54,2.18.69,5.41.42,8.18.6a4.11,4.11,0,0,1-.18-1.54,1.6,1.6,0,0,0-.46-.3,7.17,7.17,0,0,1-.16-.92h0c0-.44.11-1.32.67-1.57,1.2.19,1.69,1.21,2.81.31,1,1.06.57,2.94-.29,4.12,1.12-.49,3.49.31,4.65-.57-.29,0-.29-.31-.28-.59,0-.55-.44-.39,0-.8a12.35,12.35,0,0,1-1.65-3v-.2a2.31,2.31,0,0,1-.13-.74,3.36,3.36,0,0,1,1-1.34,2.33,2.33,0,0,1,1.78.2c.07.36.59.53,1.31.62a5.28,5.28,0,0,1,2.22,2.57c.14.89-.15,1.73-1.54,1.76.21.54-.48.42-.46.82v.2c.06.68-1.51.16-1.45.85a16.42,16.42,0,0,1,5.24,0c1.1-.32.2-1,.67-1.62-.2,0-.49,0-.51-.18-.49-.22-1.39-.64-.81-1.18-.3,0-.16-.22,0-.4a2.26,2.26,0,0,1-.2-.3V4.08a3.71,3.71,0,0,1,.78-2.3l.29,0a.56.56,0,0,1-.15-.2l.21-.21c.42,0,1.26.21,1.19.57a1.85,1.85,0,0,0,1.43.28,3.08,3.08,0,0,1,1.43,1.11,5,5,0,0,1-1.07,4.35c1,.28,2.63-.06,3.51.29h.5l0-.4c.17-1-.87-.91-.6-2l0-.4a.28.28,0,0,0-.07-.32,3.6,3.6,0,0,1,.37-.94,4.44,4.44,0,0,0,.3-.6l.05,0v-.2a1.44,1.44,0,0,0,0-.27c.06-.11.17-.17.42-.14.33.41-.17.29,1,.17l0,.4c1-.22,1,.49,1.92.39a1.66,1.66,0,0,1,.64.68,1.49,1.49,0,0,1,0,.25H615a3.62,3.62,0,0,1,0,2.57,10.53,10.53,0,0,1-1.74.88,36.33,36.33,0,0,0,4.75.25,6.18,6.18,0,0,0-.36-2.19h0a5.65,5.65,0,0,1-.48-1.49,11.94,11.94,0,0,1,.6-1.53h0a.73.73,0,0,1,0-.09v0c0-.07.07-.13.22-.1a1.69,1.69,0,0,1,2,.34c.8.09.75-.4,1.25,0l.41-.06c1,1,.95,2.57.91,3.86-.42.86-2.06.82-2.54,1.65l1.74-.05c1.21.07,1.21-.09,1.77.54-.19-.78,1.36-.28,2-.46a1.14,1.14,0,0,1,.45,0c0-.42.08-.85-.08-1a8.07,8.07,0,0,1,.5-3.13.18.18,0,0,0,.12-.08.72.72,0,0,1,.35-.27l1.87.13a2.15,2.15,0,0,1,.7.63c.47,1.52.15,3.11-1.61,3.78l.2.1c.36.07.43.23.75,0a.57.57,0,0,1,0-.08l.38,0a12.83,12.83,0,0,1,2.87.14c.21.19.87,0,1.23,0s.2-.49.21-.81c-.69.17-.77-.17-1.1-.31a4,4,0,0,1-.67-2.38.14.14,0,0,0,.06-.12.87.87,0,0,1,.32-.62,3.42,3.42,0,0,1,3,0c.95-.06,1.13.54,1.31,1.16.8.8-.11,2,.15,3-.57,0-.93.08-1,.43h.25c1,.16,2,.26,3,.37,0-.2,0-.55,0-.6a.85.85,0,0,1-.21-.09.13.13,0,0,0,0-.13A2.69,2.69,0,0,1,638,7.36a.15.15,0,0,0-.12-.14,2.56,2.56,0,0,1-.32-1.13,1.77,1.77,0,0,1,.68-.93.14.14,0,0,0,.12-.07l.14-.05a13.29,13.29,0,0,0,2.13.18,2.81,2.81,0,0,1,.49,4.88l.62.11a14.84,14.84,0,0,0,2.34-.38v3c-2.92-.33-6.78-1-8.68-.8h-.25A57.87,57.87,0,0,1,627,13.28a5.7,5.7,0,0,1-3,.1h-.5a49.09,49.09,0,0,1-7.49,0l-.5,0c-5.71-.09-9.53-.2-15.22.08v.2c-.87-.32-1.45.2-2.74.09-2,.31-2.82-.36-4.25-.06-.6-.1-1.79.31-2-.14l-1.25,0-1.49,0c-.06-.16,0-.39-.27-.39,0,.12,0,.24-.24.21a12.88,12.88,0,0,1-3-.11c-1.78.23-2.66,0-4.73.15-1.56-.17-3.61.08-5-.24h-.25c.2.32-1.16.36-1,0l-.5,0a6.77,6.77,0,0,0-2,.06h-.25l-1.49,0c-.2,0-.49,0-.51-.18a5.87,5.87,0,0,1-3,.1h-.25c-2,.18-3.82-.33-6-.21V13h-.25c-2-.16-8.28.48-10.26-.47,0,.07.27.39.27.39-2.16.51-4.94.09-7,0-3.82-.14-7.64-.13-11.74-.23h-.25c-5.27.33-7.88-.14-12.9.28,0,.36-.23.48-.73.42H517v.2c-1-.09-3.58-.87-3.05,0-4,.57-5.86,1.18-9.46.5a33.63,33.63,0,0,1-9.51-.5c.12,0-3.69-.45-4-.45-6.66-.11-7.48-.29-12.32-.52V9.45A14.56,14.56,0,0,0,480,8.55Z"/><path class="cls-1" d="M801.42,9.25h.25a.7.7,0,0,1,.77-.37c.25-1,.43-1.65-.38-2.21h-.25c-.11-.3-.34-.52-.46-.82a6.76,6.76,0,0,0-1.52.35l0,.4a11.06,11.06,0,0,0-1.3,1,3,3,0,0,0-2.08,1.53c0,.23-.47.44,0,.6l0,.4h-.25a6.77,6.77,0,0,0-3.26.29.3.3,0,0,1-.23-.41,11.83,11.83,0,0,1,1.59-1.75c.18-.54,1.07-.46,1.06-1.17-.19-.56-1.21-.52-1.18-1.24-2.64-.15-4.89,1.63-2.65,2.91,0,.62.65.8.93,1.23-.69.79-3.45-.25-4.29.86a1.92,1.92,0,0,0-1.24-.24v.2c-.25,0-.29-.17-.49-.22-.06.15,0,.39-.27.39,0-.16,0-.4-.23-.41-.15.32-.81.2-1.39.14,0-1.63,2.29-1.29,2.66-2.61-.55-.33-.45-.43-.2-1-1.25.28-.76-.72-1.71-.66-3,.14-4.25,3.15-1.88,4.25-.58,0-.75.32-1.5.15-.11-.28-1.66-.07-2,.13-1.14-.25-2.18.29-2.74-.09a3.5,3.5,0,0,1,2.12-2.33c1.14,0,1.35-1.64,1.11-2.16.58-.12-.59-1,.06-1.2-.62,0-.75-.4-1.25,0-.39,0-.17-.52-.73-.43,0-.16,0-.39-.23-.41-.43.74-2.47.07-2.56,1.11-2.18,1-1.46,4.35.23,5.21v.2c-.27.27-1.49.54-.75,0a50.42,50.42,0,0,1-6.7-.83c0-.2.21-.23.27-.39s.61-.16,1-.17c-.48-.75.48-.79.34-1.79.15,0,.3,0,.26-.19h.25a17.49,17.49,0,0,1,2-.93l0-.8c.62-.51-.14-1.18-1.19-1,.2-.53-.49-.4-.72-.62a.3.3,0,0,1-.23-.41c-1,.17-1.14-.17-1.77.34a1.5,1.5,0,0,1-.74.29,13.76,13.76,0,0,0-1.68,2.62h0l0,.4c-.32.62.37.5.46.81.07.65.8.82,1.18,1.24.3,1.25-3.59-.14-4-.34l0-.8a1.53,1.53,0,0,0,1.3-1l.16,0a6.65,6.65,0,0,0-.58-4.15c-.41,0-.72-.14-.87.06-1.22.26-2.7.29-3.3,1.09-1,1.31-.19,3.24,1.28,4.25-.12.34.34.53,0,.6-2.32-.05-3.17,0-4.74,0-.83-.46-1.31,0-2.23-.28a5.06,5.06,0,0,1-1.75.14c.95-1,.44-2.37,2.63-2.51.13-.48-.43-.45-.2-1h0a5.44,5.44,0,0,1-.16-.58,2.24,2.24,0,0,1-.55-.85c-2.33.32-4,.06-4.84,1.84.13.93,1.12,1.22,1.13,2.24a1.66,1.66,0,0,1,1,.23c0,.12,0,.24.24.21l0,.4c-3-.38-4.34.13-7.23-.25-.84-.24.7,0,.28-.59.25,0,.3-.15.51-.18,0-1.21,1.14-1.37,1.61-2.15h.25c.87-.07.43-1.29.6-2-.19-.71.08-.66-.44-1.22a8.47,8.47,0,0,0-4.51.45.33.33,0,0,1-.11.14A13.12,13.12,0,0,0,742.15,6a13.57,13.57,0,0,1,.72,1.24c0,.16,0,.39.23.41,0,.29.39.35.47.62h.25c0,.33.68.14.73.43L743,8.67a5.74,5.74,0,0,0-2,.13c-.58.11-1.52.35-2-.07A6.21,6.21,0,0,1,740.14,7a8,8,0,0,1,1.11-1.12A3.53,3.53,0,0,0,740.81,3c-.45-.17-.83-.32-1.21,0a10.1,10.1,0,0,1-2.46.49,5.35,5.35,0,0,0-.85,1.49,4.45,4.45,0,0,0-.23.8,3.61,3.61,0,0,1,.57,1.53c-.14.94,1.66.44,1.42,1.45-1.58,0-2.82-.19-5.23-.18-.28-.8.75-.46.8-1,.71-.51.87-1.51,1.65-2A3.77,3.77,0,0,0,736,4.06a10.08,10.08,0,0,0,0-2.17,1.81,1.81,0,0,0-.55-.49c-.35.88-2.09-1-2.72-.49.25.26-.3.57-.3,1h-.25a3.29,3.29,0,0,1-1.71-.06A2.91,2.91,0,0,0,730,2a1.83,1.83,0,0,0,.13.21,2,2,0,0,0-.66,3c-.07,1.4.92,2,1.86,2.67v.4c-.06.44-.65.41-1.27.36-2.11.15-3.77-.47-5,.23.27-.73-1.3-.41-1.48-.25,0-.24.07-.57-.22-.61.3-1.06.57-2.15,1.87-2.34s-.12-1.12.58-1.58a3,3,0,0,0-1.72-.46,10.28,10.28,0,0,0-4,.66,3.19,3.19,0,0,0,1.8,3.86v.2c.15,0,.29,0,.24.21a45.93,45.93,0,0,1-8.24.12,2.28,2.28,0,0,0,.09-1.8c.69-.3,1.59-.42,1.57-1.35h.23c0-.2.08-.39.12-.58a3.29,3.29,0,0,0-.5-1c-.23-.32-.51-.94-1-1.09-.28-.1-.38-.12-.56-.2-.74,0-1.48.1-2.27.11-.2,0-.38.1-.57.16a5.56,5.56,0,0,0-.94,2.87l0,.08c.08.24.2.46.27.69h.11c-.21.67.48.67.7,1v.2a1.57,1.57,0,0,1,1.19,1c-.68-.52-1.66-.14-2.37-.31a8.13,8.13,0,0,1-3,.12l0,0a1.13,1.13,0,0,1,0-1,5,5,0,0,0-1.42-3.87l-.06.06h-.25c-.25,0-.3.15-.51.18a2,2,0,0,0-1.19-.25,2.46,2.46,0,0,0-.26.27,7.55,7.55,0,0,1-.44,2.72c.76,0,.48.67.7,1-.06.46.34.58.7.73a13.55,13.55,0,0,1-4.33-.23c.05-.54-.39-.42,0-.8.08-.38-.26-.45-.21-.81.78-.18,1.72-1,1.09-1.76.15,0,.3,0,.26-.19a1,1,0,0,0,.32-1.39c0-.67-.19-1.93-.6-2.2L700.62,1l-.1,0c.06.34-.72.13-1.46-.16a5.7,5.7,0,0,0-.93.15c-.35.56-1,.67-.92,1.3-.57,0-1.11-.11-1.63-.16a3.72,3.72,0,0,0-.42.61,3.06,3.06,0,0,0-.3,1.67c.42,1.93,1.66,3.25,4.31,3.55-2.18.68-5.41.41-8.18.58A4.1,4.1,0,0,0,691.16,7a1.61,1.61,0,0,1,.46-.3,7,7,0,0,0,.16-.92v0c0-.44-.1-1.32-.67-1.57-1.2.19-1.7,1.21-2.81.31-1,1.06-.58,2.94.28,4.12-1.12-.5-3.49.3-4.65-.58.29,0,.29-.31.28-.59,0-.55.44-.39,0-.8a12.47,12.47,0,0,0,1.65-2.95v-.2a2.31,2.31,0,0,0,.13-.74,3.38,3.38,0,0,0-1-1.35,2.34,2.34,0,0,0-1.78.19c-.07.36-.59.53-1.31.61a5.27,5.27,0,0,0-2.23,2.56c-.14.89.15,1.73,1.54,1.76-.21.54.47.42.46.82v.2c-.06.68,1.51.17,1.45.85a16.42,16.42,0,0,0-5.24,0c-1.1-.32-.2-1-.66-1.62.2,0,.49,0,.51-.18.49-.22,1.4-.64.81-1.18.3,0,.17-.22,0-.4a2.36,2.36,0,0,0,.2-.3V4.71a3.71,3.71,0,0,0-.78-2.3l-.29,0a.59.59,0,0,0,.15-.2L677.67,2c-.42,0-1.26.21-1.2.57a1.86,1.86,0,0,1-1.43.28A3.09,3.09,0,0,0,673.61,4a5,5,0,0,0,1.07,4.35c-1,.28-2.63-.07-3.51.28h-.5l0-.4c-.17-1,.87-.91.6-2l0-.4a.29.29,0,0,1,.07-.32,3.57,3.57,0,0,0-.37-.94,4.35,4.35,0,0,1-.3-.6l-.05,0V3.8a1.44,1.44,0,0,1,0-.27c-.05-.11-.17-.17-.42-.14-.33.41.17.29-1,.17l0,.4c-1-.22-1,.49-1.92.39a1.65,1.65,0,0,0-.65.67,1.49,1.49,0,0,0,0,.25h-.13a3.62,3.62,0,0,0,0,2.57,10.57,10.57,0,0,0,1.74.88,36.34,36.34,0,0,1-4.76.24,6.23,6.23,0,0,1,.36-2.19h0a5.71,5.71,0,0,0,.48-1.48,11.85,11.85,0,0,0-.6-1.54h0a.73.73,0,0,0,0-.09v0c0-.07-.07-.13-.22-.11a1.69,1.69,0,0,0-2,.33c-.8.09-.75-.4-1.25,0l-.41-.06c-1,1-1,2.57-.92,3.85.42.86,2.06.83,2.54,1.65l-1.74-.06c-1.21.06-1.21-.09-1.77.54.19-.78-1.36-.28-2-.47a1.17,1.17,0,0,0-.45,0c0-.42-.08-.85.08-1a8.07,8.07,0,0,0-.5-3.13.18.18,0,0,1-.12-.08.72.72,0,0,0-.34-.27l-1.87.12a2.15,2.15,0,0,0-.7.63c-.47,1.52-.15,3.11,1.6,3.78l-.2.1c-.36.07-.43.23-.75,0a.57.57,0,0,0,0-.08l-.38,0a12.74,12.74,0,0,0-2.87.13c-.21.19-.87,0-1.23,0S648,9,648,8.64c.68.17.77-.17,1.1-.31a4,4,0,0,0,.67-2.38.14.14,0,0,1-.06-.12.87.87,0,0,0-.32-.62,3.42,3.42,0,0,0-3,0c-.95-.06-1.14.54-1.31,1.16-.8.79.1,2-.16,3,.57,0,.93.08,1,.43h-.25c-1,.16-2,.25-3,.36,0-.2,0-.55,0-.6a.86.86,0,0,0,.21-.09.13.13,0,0,1,0-.13,2.69,2.69,0,0,0,.57-1.38.15.15,0,0,1,.12-.14,2.57,2.57,0,0,0,.33-1.13,1.77,1.77,0,0,0-.68-.93.14.14,0,0,1-.12-.07l-.14-.05a13.29,13.29,0,0,1-2.13.17,2.81,2.81,0,0,0-.5,4.88c-.21,0-.42.08-.62.1a14.61,14.61,0,0,1-2.34-.38v3c2.92-.32,6.78-1,8.68-.78h.25a58.1,58.1,0,0,0,8.17,1.28,5.71,5.71,0,0,0,3,.1h.5a49.3,49.3,0,0,0,7.49.06l.5,0c5.71-.08,9.53-.18,15.22.12v.2c.87-.32,1.45.2,2.74.09,2,.31,2.82-.35,4.25-.06.6-.1,1.8.31,2-.13l1.25,0,1.49.05c.06-.16,0-.39.27-.39,0,.12,0,.24.24.21a12.88,12.88,0,0,0,3-.1c1.78.24,2.66,0,4.73.16,1.56-.17,3.61.09,5-.23h.25c-.19.32,1.16.36,1,0l.5,0a6.82,6.82,0,0,1,2,.07h.25l1.49.05c.2,0,.49,0,.51-.18a5.87,5.87,0,0,0,3,.1h.25c2,.18,3.82-.33,6-.2v-.2h.25c2-.15,8.28.5,10.26-.45,0,.07-.27.39-.27.39,2.16.51,4.94.11,7,0,3.82-.13,7.64-.12,11.74-.2h.25c5.27.34,7.88-.12,12.9.31-.05.36.22.48.73.42h.25v.2c1-.09,3.58-.86,3.05,0,4,.58,5.86,1.2,9.46.52a33.63,33.63,0,0,0,9.51-.48c-.12,0,3.69-.44,4-.44,6.66-.1,7.48-.28,12.32-.5V10.36a14.53,14.53,0,0,1-1.32-.91Z"/><path class="cls-1" d="M800,9.11h-.25a.7.7,0,0,0-.77-.38c-.25-1-.42-1.65.39-2.21h.25c.12-.3.34-.51.46-.82a6.66,6.66,0,0,1,1.51.35l0,.4a11.44,11.44,0,0,1,1.3,1A3,3,0,0,1,805,8.95c0,.23.47.44,0,.6l0,.4h.25a6.76,6.76,0,0,1,3.26.3.3.3,0,0,0,.23-.41,11.76,11.76,0,0,0-1.59-1.75c-.18-.54-1.07-.46-1.06-1.17.19-.56,1.21-.51,1.19-1.24,2.64-.14,4.89,1.64,2.64,2.92,0,.62-.65.8-.94,1.23.69.79,3.45-.25,4.28.86a1.93,1.93,0,0,1,1.24-.24v.2c.25,0,.29-.17.49-.22.06.15,0,.39.27.39,0-.16,0-.39.23-.41.15.32.81.2,1.39.14,0-1.63-2.29-1.29-2.66-2.61.55-.33.45-.43.2-1,1.25.29.76-.72,1.72-.66,3,.15,4.24,3.15,1.87,4.25.58,0,.75.32,1.5.15.11-.28,1.66-.06,2,.14,1.15-.24,2.18.3,2.74-.09a3.5,3.5,0,0,0-2.11-2.33c-1.14,0-1.35-1.64-1.11-2.17-.58-.12.59-1-.06-1.2.62,0,.75-.4,1.25,0,.39,0,.17-.52.73-.42,0-.16,0-.39.23-.41.43.74,2.47.08,2.55,1.12,2.18,1,1.45,4.35-.24,5.21v.2c.27.27,1.49.55.75,0a50.42,50.42,0,0,0,6.7-.81c0-.2-.21-.23-.27-.39s-.61-.17-1-.17c.48-.75-.48-.79-.34-1.79-.15,0-.3,0-.26-.19h-.25a18,18,0,0,0-2-.94l0-.8c-.62-.52.14-1.18,1.2-1-.2-.53.5-.4.72-.62a.3.3,0,0,0,.23-.41c1,.17,1.14-.17,1.76.34a1.52,1.52,0,0,0,.74.3,13.66,13.66,0,0,1,1.68,2.62h0l0,.4c.32.62-.37.5-.46.82-.08.65-.8.82-1.19,1.24-.3,1.25,3.59-.13,4-.33l0-.8a1.53,1.53,0,0,1-1.3-1l-.16,0a6.66,6.66,0,0,1,.59-4.14c.41,0,.72-.14.87.06,1.22.26,2.7.3,3.3,1.1,1,1.31.18,3.24-1.29,4.25.12.34-.34.52,0,.6,2.32,0,3.18.05,4.75,0,.83-.45,1.31,0,2.23-.27A5.09,5.09,0,0,0,848.2,9c-.94-1-.44-2.37-2.62-2.52-.13-.48.43-.45.2-1h0a5.83,5.83,0,0,0,.16-.58,2.27,2.27,0,0,0,.55-.85c2.33.32,4,.07,4.83,1.85-.14.93-1.13,1.22-1.14,2.24a1.64,1.64,0,0,0-1,.23c0,.12,0,.24-.24.21l0,.4c3-.38,4.34.14,7.23-.23.84-.24-.7,0-.28-.59-.25,0-.3-.15-.51-.18,0-1.21-1.14-1.38-1.6-2.15h-.25c-.87-.08-.43-1.29-.6-2,.19-.71-.08-.66.44-1.22a8.49,8.49,0,0,1,4.51.46.33.33,0,0,0,.11.14A13.18,13.18,0,0,1,859.32,6a13.32,13.32,0,0,0-.72,1.23c0,.16,0,.39-.23.41,0,.29-.39.35-.47.61h-.25c0,.33-.69.13-.73.42l1.49,0a5.81,5.81,0,0,1,2,.14c.58.11,1.52.35,2-.06A6.19,6.19,0,0,0,861.33,7a7.87,7.87,0,0,0-1.11-1.13A3.53,3.53,0,0,1,860.67,3c.45-.18.83-.32,1.21,0a10,10,0,0,0,2.46.5,5.33,5.33,0,0,1,.84,1.49,4.4,4.4,0,0,1,.22.79,3.62,3.62,0,0,0-.57,1.53c.14.94-1.67.43-1.42,1.45,1.58,0,2.82-.18,5.23-.17.28-.8-.75-.46-.8-1-.71-.51-.86-1.51-1.65-2a3.77,3.77,0,0,1-.75-1.54,10.08,10.08,0,0,1,0-2.17A1.82,1.82,0,0,1,866,1.4c.35.88,2.1-1,2.72-.49-.25.26.3.57.3,1h.25A3.29,3.29,0,0,0,871,1.85a3,3,0,0,1,.43.18,1.59,1.59,0,0,1-.13.21,2,2,0,0,1,.65,3c.07,1.4-.93,2-1.86,2.66v.4c.06.43.65.41,1.27.36,2.11.16,3.77-.46,5,.24-.27-.73,1.3-.41,1.49-.25,0-.24-.07-.57.22-.61-.3-1.06-.56-2.15-1.86-2.34s.12-1.12-.58-1.58a3,3,0,0,1,1.72-.46,10.21,10.21,0,0,1,4,.67,3.19,3.19,0,0,1-1.8,3.86v.2c-.15,0-.29,0-.24.21a45.91,45.91,0,0,0,8.24.14,2.28,2.28,0,0,1-.09-1.8c-.69-.3-1.59-.43-1.57-1.35h-.23c0-.2-.08-.39-.12-.58a3.29,3.29,0,0,1,.5-1c.23-.32.51-.94,1-1.09.28-.1.38-.12.56-.2.74.05,1.48.1,2.27.11.2,0,.38.11.57.16a5.56,5.56,0,0,1,.93,2.87s0,.06,0,.08c-.08.24-.2.46-.28.69H891c.21.67-.48.67-.7,1v.2a1.57,1.57,0,0,0-1.2,1c.68-.51,1.66-.14,2.37-.3a8.17,8.17,0,0,0,3,.13l0,0a1.13,1.13,0,0,0,0-1,5,5,0,0,1,1.43-3.87l.06.06h.25c.25,0,.3.15.51.18a2,2,0,0,1,1.19-.25,2.6,2.6,0,0,1,.26.27,7.61,7.61,0,0,0,.43,2.72c-.76-.05-.48.67-.7,1,.06.46-.34.58-.7.73a13.51,13.51,0,0,0,4.33-.22c-.05-.54.39-.41,0-.8-.08-.37.26-.45.21-.81-.78-.19-1.72-1-1.09-1.77-.15,0-.3,0-.26-.19a1,1,0,0,1-.32-1.39c0-.67.2-1.93.6-2.2l.18-.05.1,0c-.06.34.72.13,1.46-.16a5.7,5.7,0,0,1,.93.15c.35.56,1,.68.92,1.3.57,0,1.11-.11,1.63-.15a3.92,3.92,0,0,1,.42.61,3.07,3.07,0,0,1,.3,1.67c-.43,1.93-1.67,3.25-4.31,3.53,2.18.69,5.41.42,8.18.6a4.1,4.1,0,0,1-.18-1.54,1.58,1.58,0,0,0-.46-.3,7.15,7.15,0,0,1-.16-.92v0c0-.44.11-1.32.67-1.57,1.2.19,1.69,1.21,2.81.31,1,1.06.57,2.94-.29,4.12,1.12-.49,3.49.31,4.65-.57-.29,0-.29-.31-.28-.59,0-.55-.44-.39,0-.8a12.37,12.37,0,0,1-1.65-2.95v-.2a2.3,2.3,0,0,1-.13-.74,3.38,3.38,0,0,1,1-1.34,2.33,2.33,0,0,1,1.78.2c.07.36.59.53,1.31.62a5.29,5.29,0,0,1,2.22,2.57c.14.89-.15,1.73-1.54,1.76.21.54-.48.42-.46.81v.2c.06.68-1.51.16-1.45.85a16.37,16.37,0,0,1,5.24,0c1.1-.32.2-1,.67-1.62-.2,0-.49,0-.51-.18-.49-.22-1.39-.64-.81-1.18-.3,0-.16-.22,0-.4a2.37,2.37,0,0,1-.2-.3V4.84a3.71,3.71,0,0,1,.78-2.3l.29,0a.56.56,0,0,1-.15-.2l.21-.21c.42,0,1.26.21,1.19.57a1.86,1.86,0,0,0,1.43.28,3.06,3.06,0,0,1,1.43,1.11,5,5,0,0,1-1.07,4.35c1,.28,2.63-.06,3.51.29h.5l0-.4c.17-1-.87-.91-.6-2l0-.4a.28.28,0,0,0-.07-.32,3.55,3.55,0,0,1,.37-.94,4.55,4.55,0,0,0,.3-.6l.05,0v-.2a1.46,1.46,0,0,0,0-.27c.06-.11.17-.18.42-.14.33.41-.17.29,1,.17l0,.4c1-.22,1,.49,1.92.39a1.64,1.64,0,0,1,.64.68,1.46,1.46,0,0,1,0,.25H935A3.62,3.62,0,0,1,935,8a10.66,10.66,0,0,1-1.74.88,36.33,36.33,0,0,0,4.75.25,6.19,6.19,0,0,0-.36-2.19h0a5.61,5.61,0,0,1-.48-1.49,11.92,11.92,0,0,1,.6-1.53h0a.65.65,0,0,1,0-.09v0c0-.07.07-.13.22-.1a1.69,1.69,0,0,1,2,.34c.8.09.75-.4,1.25,0L941.7,4c1,1,.95,2.57.91,3.86-.42.87-2.06.83-2.54,1.65l1.74-.06c1.21.07,1.21-.08,1.77.54-.19-.78,1.36-.28,2-.46a1.14,1.14,0,0,1,.45,0c0-.42.08-.85-.08-1a8.07,8.07,0,0,1,.5-3.13.18.18,0,0,0,.12-.08A.72.72,0,0,1,946.9,5l1.87.13a2.13,2.13,0,0,1,.7.63c.47,1.52.15,3.11-1.61,3.78l.2.1c.36.07.43.23.75,0a.57.57,0,0,1,0-.08l.38,0a12.73,12.73,0,0,1,2.87.14c.21.19.87,0,1.23,0s.2-.49.21-.81c-.69.17-.77-.18-1.1-.31a4,4,0,0,1-.67-2.38A.14.14,0,0,0,951.8,6a.87.87,0,0,1,.32-.61,3.42,3.42,0,0,1,3,0c.95-.06,1.13.54,1.31,1.16.8.8-.11,2,.15,3-.57,0-.93.08-1,.43h.25c1,.16,2,.26,3,.37,0-.2,0-.54,0-.6a.79.79,0,0,1-.21-.09.13.13,0,0,0,0-.13,2.69,2.69,0,0,1-.56-1.38.15.15,0,0,0-.12-.15,2.56,2.56,0,0,1-.32-1.13,1.77,1.77,0,0,1,.68-.93.14.14,0,0,0,.12-.06l.14-.05a13.3,13.3,0,0,0,2.13.18,2.81,2.81,0,0,1,.49,4.88c.21,0,.42.08.62.1a14.84,14.84,0,0,0,2.34-.38v3c-2.92-.33-6.78-1-8.68-.8h-.25A58.1,58.1,0,0,1,947,14a5.74,5.74,0,0,1-3,.1h-.5a49.09,49.09,0,0,1-7.49,0l-.5,0c-5.71-.09-9.53-.2-15.22.08v.2c-.87-.32-1.45.2-2.74.09-2,.3-2.82-.36-4.25-.07-.6-.1-1.79.31-2-.14l-1.25,0-1.49,0c-.06-.15,0-.39-.27-.39,0,.12,0,.24-.24.21a12.88,12.88,0,0,1-3-.11c-1.78.23-2.66,0-4.73.15-1.56-.17-3.61.08-5-.24h-.25c.2.32-1.16.36-1,0l-.5,0a6.82,6.82,0,0,0-2,.06h-.25l-1.49,0c-.2,0-.49,0-.51-.18a5.87,5.87,0,0,1-3,.1h-.25c-2,.18-3.82-.33-6-.21v-.2h-.25c-2-.16-8.28.48-10.26-.48,0,.07.27.39.27.39-2.16.51-4.94.09-7,0-3.82-.14-7.64-.13-11.74-.23h-.25c-5.27.32-7.88-.14-12.9.28,0,.36-.23.48-.73.42H837v.2c-1-.09-3.58-.87-3.05,0-4,.57-5.86,1.18-9.46.5a33.62,33.62,0,0,1-9.51-.5c.12,0-3.69-.45-4-.45-6.66-.11-7.48-.29-12.32-.52V10.21a14.6,14.6,0,0,0,1.32-.9Z"/></g></g></svg>