<svg xmlns="http://www.w3.org/2000/svg" viewBox="0 0 2008.59 21.66"><defs><style>.cls-1{fill:#89c6c5;}</style></defs><title>Asset 30</title><g id="Layer_2" data-name="Layer 2"><g id="Layer_1-2" data-name="Layer 1"><path class="cls-1" d="M1561.54,13.2h.35a1,1,0,0,1,1.07-.52c.35-1.37.59-2.3-.53-3.09h-.35c-.16-.42-.48-.72-.64-1.14a9.43,9.43,0,0,0-2.11.49l0,.56a15.66,15.66,0,0,0-1.81,1.33,4.23,4.23,0,0,0-2.9,2.14c-.07.33-.65.61,0,.84l0,.56h-.35c-1.76-.08-3.55-.19-4.55.4a.42.42,0,0,1-.32-.57,16.55,16.55,0,0,1,2.22-2.44c.25-.75,1.49-.64,1.48-1.62-.26-.79-1.69-.72-1.65-1.73-3.68-.21-6.82,2.28-3.69,4.06,0,.86.91,1.11,1.3,1.72-1,1.1-4.81-.35-6,1.19a2.68,2.68,0,0,0-1.72-.34v.28c-.35,0-.4-.24-.68-.3-.09.21,0,.55-.38.54-.07-.22,0-.55-.32-.57-.21.44-1.12.27-1.93.19,0-2.27,3.2-1.8,3.72-3.63-.77-.46-.63-.6-.27-1.4-1.75.39-1.06-1-2.39-.92-4.14.2-5.93,4.38-2.61,5.93-.81,0-1,.44-2.09.21-.15-.39-2.31-.1-2.79.18-1.6-.34-3,.41-3.82-.13a4.88,4.88,0,0,1,3-3.25c1.59,0,1.88-2.29,1.55-3,.82-.17-.82-1.34.09-1.67-.86-.06-1-.56-1.74-.06-.55,0-.24-.72-1-.59-.07-.22,0-.55-.32-.57-.6,1-3.44.11-3.56,1.55-3,1.38-2,6.06.32,7.27v.28c-.38.37-2.08.76-1,0-4.61-.2-4.94-.55-9.34-1.15,0-.28.3-.32.38-.54.09-.41.85-.23,1.4-.23-.66-1,.67-1.1.48-2.49.21,0,.41,0,.36-.27h.35a24.56,24.56,0,0,1,2.85-1.3l.06-1.11c.87-.72-.19-1.64-1.66-1.45.28-.74-.69-.56-1-.87a.41.41,0,0,1-.32-.57c-1.42.23-1.59-.24-2.46.47a2.09,2.09,0,0,1-1,.41,19.11,19.11,0,0,0-2.35,3.65h0l0,.56c-.44.86.51.7.64,1.14.1.91,1.11,1.15,1.65,1.73.42,1.75-5-.19-5.54-.47l.06-1.11a2.14,2.14,0,0,0,1.81-1.33l.22.06a9.27,9.27,0,0,0-.8-5.78c-.57,0-1-.2-1.21.08-1.71.36-3.76.41-4.6,1.52-1.4,1.82-.27,4.51,1.78,5.92-.16.48.48.73,0,.84-3.24-.07-4.43.06-6.61.05-1.15-.64-1.83,0-3.11-.39a7.11,7.11,0,0,1-2.45.2c1.32-1.36.62-3.3,3.66-3.5.18-.67-.6-.63-.27-1.4h0a7.65,7.65,0,0,1-.23-.81,3.13,3.13,0,0,1-.76-1.18c-3.25.44-5.62.08-6.75,2.56.18,1.29,1.57,1.7,1.58,3.12A2.29,2.29,0,0,1,1493,12c0,.17,0,.33.33.29l0,.56c-4.2-.54-6,.19-10.08-.34-1.17-.34,1-.06.39-.82.35,0,.42-.21.71-.25,0-1.68,1.59-1.92,2.24-3h.35c1.22-.1.61-1.8.84-2.76-.26-1,.11-.91-.61-1.7a11.84,11.84,0,0,0-6.29.62.46.46,0,0,1-.16.2,18.3,18.3,0,0,0-1.85,3.91,19.06,19.06,0,0,1,1,1.72c.07.22,0,.55.32.57.06.4.55.49.65.86h.35c0,.46,1,.19,1,.59l-2.08-.07a8.05,8.05,0,0,0-2.79.18c-.8.15-2.13.48-2.78-.09A8.65,8.65,0,0,1,1476.1,10a11,11,0,0,1,1.55-1.57,4.92,4.92,0,0,0-.62-4c-.62-.24-1.15-.45-1.68-.07a14.14,14.14,0,0,1-3.44.68,7.44,7.44,0,0,0-1.18,2.08,6.18,6.18,0,0,0-.31,1.11,5,5,0,0,1,.79,2.13c-.2,1.31,2.32.61,2,2-2.2,0-3.93-.26-7.3-.25-.39-1.12,1-.64,1.12-1.36,1-.71,1.21-2.1,2.3-2.73a5.24,5.24,0,0,0,1-2.14,14.06,14.06,0,0,0,0-3,2.54,2.54,0,0,0-.77-.68c-.49,1.22-2.92-1.38-3.79-.69.36.36-.42.8-.42,1.38H1465a4.59,4.59,0,0,1-2.39-.08,4.18,4.18,0,0,0-.61.26,2.43,2.43,0,0,0,.19.29,2.84,2.84,0,0,0-.91,4.16c-.1,1.95,1.28,2.8,2.59,3.72v.56c-.08.61-.91.57-1.77.5-2.94.21-5.26-.65-7,.32.37-1-1.81-.57-2.07-.35,0-.33.1-.79-.3-.85.42-1.48.79-3,2.61-3.26s-.17-1.57.81-2.2a4.16,4.16,0,0,0-2.4-.64,14.29,14.29,0,0,0-5.62.93c-.85,2.21.58,4.4,2.5,5.39v.28c.21,0,.41.05.33.29-4.42.51-5.87.33-11.49.17a3.17,3.17,0,0,0,.13-2.51c1-.42,2.22-.59,2.19-1.88h.32c0-.27.11-.54.16-.82a4.56,4.56,0,0,0-.7-1.41c-.32-.45-.71-1.31-1.33-1.52-.39-.14-.53-.17-.78-.28-1,.07-2.07.14-3.16.15-.27.06-.53.14-.8.22a7.75,7.75,0,0,0-1.31,4s0,.08,0,.12c.11.33.28.64.38,1h.15c-.29.93.67.94,1,1.43v.28a2.19,2.19,0,0,1,1.66,1.45c-.95-.72-2.32-.2-3.3-.43a11.31,11.31,0,0,1-4.16.17l0,0a1.57,1.57,0,0,1,0-1.46c0-2-.35-3.93-2-5.39l-.08.09h-.35c-.35,0-.42.21-.71.25a2.8,2.8,0,0,0-1.65-.35,3.64,3.64,0,0,0-.37.38,10.53,10.53,0,0,1-.61,3.79c1.06-.07.67.93,1,1.43-.09.64.48.8,1,1a18.86,18.86,0,0,1-6-.32c.07-.76-.55-.58.06-1.11.11-.52-.36-.63-.29-1.13,1.08-.26,2.4-1.41,1.52-2.46.21,0,.41,0,.36-.27a1.43,1.43,0,0,0,.45-1.94c0-.93-.27-2.69-.83-3.07l-.25-.07-.15,0c.09.48-1,.17-2-.22a7.72,7.72,0,0,0-1.3.21c-.48.78-1.46.94-1.28,1.81-.79,0-1.55-.15-2.28-.22a5.28,5.28,0,0,0-.58.85,4.27,4.27,0,0,0-.43,2.33c.59,2.69,2.32,4.54,6,4.94-3,1-7.54.57-11.4.82a5.73,5.73,0,0,0,.26-2.15,2.23,2.23,0,0,1,.64-.41,9.68,9.68,0,0,0,.22-1.28v0c0-.61-.15-1.84-.93-2.19-1.67.26-2.37,1.69-3.92.42-1.44,1.47-.8,4.1.39,5.74-1.56-.69-4.86.42-6.48-.81.41,0,.4-.43.39-.82,0-.76.61-.54.06-1.11a17.32,17.32,0,0,0,2.3-4.11V5.22a3.22,3.22,0,0,0,.18-1,4.7,4.7,0,0,0-1.39-1.87,3.25,3.25,0,0,0-2.48.27c-.09.5-.82.73-1.83.85A7.36,7.36,0,0,0,1391.86,7c-.2,1.24.2,2.41,2.14,2.45-.29.75.66.58.64,1.14v.28c-.08,1,2.11.23,2,1.19a22.83,22.83,0,0,0-7.31,0c-1.53-.45-.28-1.37-.93-2.26.27-.05.69,0,.71-.25.69-.31,1.95-.89,1.13-1.64.42,0,.23-.3,0-.56a3.38,3.38,0,0,0,.29-.42V6.88a5.18,5.18,0,0,0-1.08-3.2l-.4,0a.8.8,0,0,0,.21-.27l-.3-.3c-.59-.07-1.76.29-1.67.79a2.59,2.59,0,0,1-2,.39,4.28,4.28,0,0,0-2,1.54c-.45,2.55.27,4.94,1.49,6.07-1.33.39-3.67-.1-4.89.39h-.69l0-.56c-.24-1.38,1.22-1.27.84-2.76l0-.56a.4.4,0,0,1,.1-.45,5,5,0,0,0-.51-1.31,6.12,6.12,0,0,1-.42-.84l-.08.06V5.61a2,2,0,0,1-.07-.38c-.08-.15-.24-.24-.58-.2-.46.57.24.41-1.4.23l0,.56c-1.45-.31-1.42.68-2.68.54a2.3,2.3,0,0,0-.9.94,2.06,2.06,0,0,0,0,.35h-.18a5,5,0,0,0-.07,3.59,14.74,14.74,0,0,0,2.43,1.23,50.67,50.67,0,0,1-6.63.33,8.68,8.68,0,0,1,.51-3.05h.06a7.93,7.93,0,0,0,.67-2.07,16.58,16.58,0,0,0-.83-2.14h0a1,1,0,0,0,0-.12v0c0-.1-.1-.18-.31-.15a2.36,2.36,0,0,0-2.81.46c-1.12.13-1-.56-1.74-.06l-.57-.09c-1.35,1.35-1.33,3.58-1.28,5.37.58,1.21,2.87,1.16,3.54,2.3l-2.43-.08c-1.68.09-1.69-.12-2.47.75.27-1.09-1.89-.39-2.75-.65a1.57,1.57,0,0,0-.63,0c0-.59-.11-1.19.12-1.42a11.25,11.25,0,0,0-.69-4.37.25.25,0,0,1-.17-.11,1,1,0,0,0-.48-.38c-.85,0-1.72.11-2.61.17a3,3,0,0,0-1,.88c-.66,2.12-.21,4.34,2.23,5.28a1.65,1.65,0,0,0-.28.13c-.5.09-.6.31-1,0a.8.8,0,0,0,0-.11l-.54-.05a17.76,17.76,0,0,0-4,.19c-.29.26-1.22,0-1.72,0s-.28-.68-.29-1.13c1,.24,1.08-.24,1.54-.44a5.51,5.51,0,0,0,.94-3.32.19.19,0,0,1-.09-.17,1.21,1.21,0,0,0-.44-.86,4.77,4.77,0,0,0-4.13,0c-1.32-.08-1.58.75-1.82,1.61-1.12,1.11.14,2.74-.22,4.18.8-.05,1.3.11,1.36.6h-.35c-1.33.22-2.76.35-4.17.5,0-.28,0-.76,0-.83a1.19,1.19,0,0,0,.29-.12.19.19,0,0,1,0-.19,3.74,3.74,0,0,0,.79-1.93.21.21,0,0,1,.16-.2,3.57,3.57,0,0,0,.45-1.58,2.47,2.47,0,0,0-.95-1.3.2.2,0,0,1-.16-.09l-.19-.08c-1.21.36-1.9.06-3,.24a3.92,3.92,0,0,0-.7,6.81c-.29.06-.58.11-.87.14a20.54,20.54,0,0,1-3.26-.53v4.17c4.07-.45,9.46-1.37,12.11-1.09h.35a80.84,80.84,0,0,0,11.39,1.78,8,8,0,0,0,4.17.14h.69a68.45,68.45,0,0,0,10.44.08l.69,0c8-.11,13.29-.25,21.22.16v.28c1.21-.44,2,.28,3.82.13,2.84.43,3.93-.49,5.92-.08.84-.14,2.5.43,2.79-.18l1.74.06,2.08.07c.09-.21,0-.55.38-.55,0,.17,0,.33.33.29a17.9,17.9,0,0,0,4.18-.14c2.48.33,3.71.07,6.6.22,2.17-.24,5,.12,7-.32h.35c-.27.44,1.61.51,1.39,0l.69,0a9.48,9.48,0,0,1,2.78.1h.35l2.08.07c.27-.05.69,0,.71-.25a8.18,8.18,0,0,0,4.17.14h.35c2.81.25,5.33-.45,8.37-.27v-.28h.35c2.8-.22,11.54.7,14.3-.63.05.1-.38.54-.38.54,3,.71,6.89.15,9.74.05,5.33-.18,10.65-.16,16.37-.28h.35c7.34.47,11-.17,18,.43-.07.5.31.66,1,.59h.35v.28c1.35-.12,5-1.2,4.26-.06,5.59.81,8.17,1.67,13.19.73,3.4.3,9.58.31,13.26-.67-.17,0,5.14-.61,5.55-.61,9.28-.13,10.42-.38,17.18-.69V14.75a20.49,20.49,0,0,1-1.84-1.27Z"/><path class="cls-1" d="M1559.61,13h-.35a1,1,0,0,0-1.07-.52c-.34-1.37-.59-2.3.54-3.09h.35c.16-.42.48-.72.64-1.14a9.34,9.34,0,0,1,2.11.49l0,.56a15.55,15.55,0,0,1,1.81,1.34,4.22,4.22,0,0,1,2.89,2.14c.07.33.65.61,0,.84l0,.56h.35c1.76-.08,3.55-.18,4.54.41a.41.41,0,0,0,.32-.57,16.45,16.45,0,0,0-2.21-2.44c-.25-.75-1.49-.65-1.47-1.63.27-.79,1.69-.71,1.65-1.73,3.68-.2,6.81,2.29,3.68,4.07,0,.86-.91,1.11-1.3,1.71,1,1.1,4.81-.34,6,1.21a2.69,2.69,0,0,1,1.72-.33v.28c.35,0,.4-.24.68-.3.09.21,0,.55.37.55.07-.22,0-.55.32-.57.21.44,1.12.28,1.93.2,0-2.27-3.19-1.8-3.71-3.64.77-.46.63-.6.28-1.4,1.75.4,1.06-1,2.39-.91,4.14.21,5.91,4.4,2.6,5.93.81,0,1,.45,2.09.21.15-.39,2.31-.09,2.79.19,1.6-.34,3,.42,3.82-.12a4.88,4.88,0,0,0-2.95-3.26c-1.59,0-1.88-2.29-1.54-3-.82-.17.82-1.34-.08-1.67.86-.06,1-.56,1.74-.06.55,0,.24-.72,1-.59.07-.22,0-.55.32-.57.6,1,3.44.11,3.56,1.56,3,1.39,2,6.07-.33,7.27v.28c.38.37,2.08.76,1,0,4.61-.2,4.95-.54,9.34-1.13,0-.28-.3-.32-.38-.55-.09-.41-.85-.23-1.4-.23.67-1-.67-1.11-.47-2.5-.21,0-.41,0-.36-.27h-.35a24.76,24.76,0,0,0-2.85-1.3l-.06-1.11c-.87-.72.2-1.64,1.67-1.45-.28-.74.69-.56,1-.87a.41.41,0,0,0,.32-.57c1.42.24,1.59-.24,2.46.48a2.1,2.1,0,0,0,1,.41,19,19,0,0,1,2.34,3.65h0l0,.56c.44.86-.51.69-.64,1.14-.11.91-1.11,1.14-1.65,1.73-.42,1.74,5-.18,5.54-.46l-.06-1.11a2.14,2.14,0,0,1-1.81-1.34l-.22.06a9.29,9.29,0,0,1,.82-5.78c.57,0,1-.2,1.21.08,1.7.36,3.76.41,4.6,1.53,1.4,1.83.26,4.51-1.79,5.92.16.48-.48.73,0,.84,3.24-.07,4.43.07,6.62.07,1.15-.63,1.83,0,3.11-.38a7.07,7.07,0,0,0,2.44.2c-1.32-1.37-.61-3.31-3.65-3.51-.18-.67.6-.63.28-1.4h0a7.8,7.8,0,0,0,.23-.81,3.15,3.15,0,0,0,.76-1.18c3.24.45,5.62.1,6.74,2.58-.19,1.29-1.57,1.7-1.58,3.12a2.29,2.29,0,0,0-1.38.32c0,.17,0,.33-.33.29l0,.56c4.2-.53,6,.2,10.07-.32,1.17-.34-1-.06-.39-.83-.35,0-.42-.21-.71-.26,0-1.68-1.58-1.92-2.24-3h-.35c-1.22-.1-.6-1.8-.84-2.76.26-1-.11-.91.61-1.69a11.83,11.83,0,0,1,6.29.64.46.46,0,0,0,.16.2,18.36,18.36,0,0,1,1.84,3.91,18.89,18.89,0,0,0-1,1.72c-.07.22,0,.55-.32.57-.06.4-.55.49-.65.86h-.35c0,.46-1,.19-1,.59l2.08-.07a8,8,0,0,1,2.79.19c.81.15,2.13.49,2.78-.09a8.64,8.64,0,0,0-1.51-2.46,11,11,0,0,0-1.54-1.57,4.92,4.92,0,0,1,.63-4c.62-.24,1.15-.44,1.68-.06a14.08,14.08,0,0,0,3.43.69,7.44,7.44,0,0,1,1.18,2.08,6.14,6.14,0,0,1,.31,1.11,5,5,0,0,0-.8,2.13c.2,1.31-2.32.6-2,2,2.2,0,3.93-.25,7.29-.23.39-1.11-1-.64-1.11-1.36-1-.71-1.2-2.1-2.3-2.73a5.25,5.25,0,0,1-1-2.14,14,14,0,0,1,.05-3,2.53,2.53,0,0,1,.77-.68c.49,1.22,2.92-1.37,3.79-.68-.36.36.42.8.42,1.38h.35a4.61,4.61,0,0,0,2.39-.07,4,4,0,0,1,.6.26,2.39,2.39,0,0,1-.19.29,2.84,2.84,0,0,1,.9,4.16c.1,1.95-1.29,2.8-2.6,3.71v.56c.08.61.91.57,1.77.5,2.94.22,5.26-.64,7,.34-.37-1,1.81-.57,2.07-.35,0-.33-.1-.79.3-.85-.42-1.48-.78-3-2.6-3.27S1666,6.67,1665,6a4.15,4.15,0,0,1,2.4-.63,14.26,14.26,0,0,1,5.61.94c.85,2.21-.58,4.4-2.51,5.38V12c-.21,0-.41.05-.33.29,4.42.52,5.87.34,11.49.19a3.17,3.17,0,0,1-.13-2.51c-1-.42-2.22-.59-2.18-1.88h-.32c0-.27-.11-.54-.16-.81a4.59,4.59,0,0,1,.7-1.41c.32-.45.72-1.31,1.33-1.52.39-.13.53-.17.78-.28,1,.07,2.07.14,3.16.15.27.06.53.15.8.22a7.76,7.76,0,0,1,1.3,4s0,.08,0,.12c-.11.33-.28.64-.38,1h-.15c.29.93-.67.94-1,1.43v.28a2.19,2.19,0,0,0-1.67,1.45c1-.72,2.32-.2,3.31-.43a11.33,11.33,0,0,0,4.15.18l0,0a1.57,1.57,0,0,0,0-1.46c.05-2,.36-3.93,2-5.39l.08.09h.35c.35,0,.42.21.71.26a2.79,2.79,0,0,1,1.66-.35,3.42,3.42,0,0,1,.37.38,10.59,10.59,0,0,0,.6,3.79c-1.06-.07-.67.93-1,1.43.08.64-.48.8-1,1a18.86,18.86,0,0,0,6-.3c-.07-.76.55-.58-.06-1.11-.11-.52.36-.63.29-1.13-1.08-.26-2.4-1.41-1.52-2.46-.21,0-.41,0-.36-.27a1.43,1.43,0,0,1-.45-1.94c0-.93.27-2.69.84-3.07l.25-.07.15,0c-.09.48,1,.18,2-.21a7.71,7.71,0,0,1,1.3.21c.48.79,1.45.94,1.28,1.81.79,0,1.55-.15,2.28-.21a5.46,5.46,0,0,1,.58.85,4.28,4.28,0,0,1,.42,2.33c-.6,2.68-2.33,4.53-6,4.93,3,1,7.54.58,11.4.84a5.72,5.72,0,0,1-.25-2.15,2.19,2.19,0,0,0-.64-.42,10,10,0,0,1-.22-1.29h0c0-.62.15-1.85.94-2.19,1.67.27,2.36,1.69,3.92.43,1.43,1.47.8,4.1-.4,5.74,1.56-.69,4.86.43,6.48-.8-.41,0-.4-.43-.39-.82,0-.76-.61-.54-.06-1.11a17.28,17.28,0,0,1-2.29-4.11V5.37a3.21,3.21,0,0,1-.18-1,4.7,4.7,0,0,1,1.4-1.87,3.25,3.25,0,0,1,2.48.27c.09.5.82.74,1.83.86a7.37,7.37,0,0,1,3.1,3.58c.19,1.24-.21,2.41-2.15,2.45.29.75-.66.58-.64,1.14V11c.08,1-2.11.23-2,1.18a22.83,22.83,0,0,1,7.31,0c1.53-.45.28-1.37.93-2.26-.27-.05-.68,0-.71-.26-.69-.31-1.94-.89-1.12-1.64-.42,0-.23-.3,0-.56a3.3,3.3,0,0,1-.28-.42V7.05a5.18,5.18,0,0,1,1.09-3.2l.4,0a.79.79,0,0,1-.21-.27l.3-.3c.59-.06,1.76.29,1.67.79a2.58,2.58,0,0,0,2,.4,4.27,4.27,0,0,1,2,1.55c.44,2.55-.28,4.93-1.5,6.07,1.33.4,3.67-.09,4.89.4h.69l0-.56c.24-1.37-1.21-1.27-.83-2.76l0-.56a.4.4,0,0,0-.1-.45,5,5,0,0,1,.51-1.31,6.33,6.33,0,0,0,.42-.84l.08.06V5.81a2,2,0,0,0,.07-.38c.08-.15.23-.24.58-.2.46.57-.24.41,1.41.23l0,.56c1.46-.3,1.42.69,2.68.55a2.31,2.31,0,0,1,.9.94,2,2,0,0,1,0,.35h.18a5.05,5.05,0,0,1,.06,3.59,14.86,14.86,0,0,1-2.43,1.22A50.85,50.85,0,0,0,1752,13a8.63,8.63,0,0,0-.5-3.05h-.06a7.85,7.85,0,0,1-.67-2.07,16.58,16.58,0,0,1,.84-2.14h0a1,1,0,0,1,0-.12v0c0-.1.1-.18.31-.15a2.35,2.35,0,0,1,2.81.47c1.12.13,1-.56,1.74-.06l.57-.09c1.34,1.36,1.32,3.59,1.27,5.38-.59,1.21-2.87,1.15-3.54,2.3l2.43-.08c1.68.09,1.69-.12,2.47.76-.27-1.09,1.89-.39,2.75-.65a1.59,1.59,0,0,1,.63,0c0-.59.12-1.19-.11-1.42a11.24,11.24,0,0,1,.7-4.37.26.26,0,0,0,.17-.11,1,1,0,0,1,.48-.37c.85,0,1.72.12,2.61.18a3,3,0,0,1,1,.88c.65,2.12.2,4.34-2.24,5.27a1.52,1.52,0,0,1,.28.13c.5.09.6.32,1,0a.78.78,0,0,1,0-.11l.54-.05a17.75,17.75,0,0,1,4,.19c.29.26,1.22,0,1.72,0s.29-.68.29-1.13c-1,.24-1.08-.24-1.54-.44a5.52,5.52,0,0,1-.93-3.32.19.19,0,0,0,.09-.17,1.21,1.21,0,0,1,.44-.86,4.77,4.77,0,0,1,4.13,0c1.32-.08,1.58.76,1.82,1.62,1.12,1.11-.15,2.74.21,4.18-.79-.05-1.3.11-1.36.6h.35c1.33.22,2.76.36,4.17.51,0-.28,0-.76,0-.83a1.15,1.15,0,0,1-.29-.12.19.19,0,0,0,0-.19,3.75,3.75,0,0,1-.78-1.93.21.21,0,0,0-.16-.2,3.58,3.58,0,0,1-.45-1.58,2.47,2.47,0,0,1,.95-1.3.2.2,0,0,0,.16-.09l.19-.08c1.2.36,1.9.06,3,.25a3.92,3.92,0,0,1,.68,6.81c.29.06.58.11.87.15a20.52,20.52,0,0,0,3.27-.52v4.17c-4.07-.45-9.45-1.39-12.1-1.12h-.35a80.68,80.68,0,0,1-11.39,1.76,8,8,0,0,1-4.17.13h-.69a68.45,68.45,0,0,1-10.44.05l-.69,0c-8-.13-13.29-.28-21.22.12v.28c-1.21-.44-2,.28-3.82.12-2.84.43-3.93-.5-5.92-.09-.84-.14-2.5.43-2.79-.19l-1.74.05-2.08.07c-.09-.21,0-.55-.38-.55,0,.17,0,.33-.33.29a18,18,0,0,1-4.18-.15c-2.48.32-3.71.06-6.6.21-2.17-.24-5,.11-7-.34h-.35c.27.44-1.62.5-1.39,0l-.7,0a9.47,9.47,0,0,0-2.78.09H1687l-2.08.07c-.27-.05-.69,0-.71-.26a8.19,8.19,0,0,1-4.17.13h-.35c-2.82.24-5.33-.47-8.36-.29l0-.28h-.35c-2.8-.22-11.55.67-14.3-.66-.05.1.38.55.38.55-3,.71-6.89.13-9.74,0-5.33-.19-10.65-.19-16.37-.32h-.35c-7.34.45-11-.19-18,.39.07.5-.31.66-1,.59h-.35v.28c-1.35-.13-5-1.21-4.26-.06-5.59.8-8.17,1.65-13.19.7-3.4.29-9.58.29-13.26-.69.17,0-5.14-.62-5.55-.62-9.28-.15-10.42-.41-17.18-.73V14.55a20.06,20.06,0,0,0,1.84-1.26Z"/><path class="cls-1" d="M2006.77,13.3h.35a1,1,0,0,1,1.07-.52c.35-1.37.59-2.3-.53-3.09h-.35c-.16-.42-.48-.72-.64-1.14a9.31,9.31,0,0,0-2.11.49l0,.56a15.69,15.69,0,0,0-1.81,1.33,4.23,4.23,0,0,0-2.9,2.13c-.07.33-.65.61,0,.84l0,.56h-.35c-1.76-.08-3.55-.19-4.55.4a.42.42,0,0,1-.32-.57,16.44,16.44,0,0,1,2.22-2.44c.25-.75,1.49-.64,1.48-1.62-.26-.79-1.69-.72-1.65-1.73-3.68-.21-6.82,2.28-3.69,4.06,0,.86.91,1.12,1.3,1.72-1,1.1-4.81-.35-6,1.19a2.68,2.68,0,0,0-1.72-.34v.28c-.35,0-.4-.24-.68-.3-.09.21,0,.55-.38.54-.07-.22,0-.55-.32-.57-.21.44-1.12.27-1.93.19,0-2.27,3.2-1.8,3.72-3.63-.77-.46-.63-.6-.27-1.4-1.75.39-1.06-1-2.39-.92-4.14.2-5.93,4.38-2.61,5.93-.81,0-1,.44-2.09.21-.15-.39-2.31-.1-2.79.18-1.6-.34-3,.41-3.82-.13a4.88,4.88,0,0,1,3-3.25c1.59,0,1.88-2.29,1.55-3,.82-.17-.82-1.34.09-1.67-.86-.06-1-.56-1.74-.06-.55,0-.24-.72-1-.59-.07-.22,0-.55-.32-.57-.6,1-3.44.11-3.56,1.55-3,1.38-2,6.06.32,7.27v.28c-.38.37-2.08.76-1,0-4.61-.2-4.94-.55-9.34-1.15,0-.28.3-.32.38-.54.09-.41.85-.23,1.4-.23-.66-1,.67-1.11.48-2.49.21,0,.41,0,.36-.27h.35a24.76,24.76,0,0,1,2.85-1.3l.06-1.11c.87-.72-.19-1.64-1.66-1.45.28-.74-.69-.56-1-.87a.41.41,0,0,1-.32-.57c-1.42.23-1.59-.24-2.46.47a2.1,2.1,0,0,1-1,.41,19.13,19.13,0,0,0-2.35,3.65h0l0,.56c-.44.86.51.69.64,1.14.1.91,1.11,1.15,1.65,1.73.42,1.75-5-.19-5.54-.47l.06-1.11a2.14,2.14,0,0,0,1.81-1.33l.22.06a9.28,9.28,0,0,0-.8-5.78c-.57,0-1-.2-1.21.08-1.71.36-3.76.41-4.6,1.52-1.4,1.82-.27,4.51,1.78,5.92-.16.48.48.73,0,.84-3.24-.07-4.43.06-6.61.05-1.15-.64-1.83,0-3.11-.38a7.11,7.11,0,0,1-2.45.2c1.32-1.36.62-3.3,3.66-3.5.18-.67-.6-.63-.27-1.4h0a7.73,7.73,0,0,1-.23-.81,3.13,3.13,0,0,1-.76-1.18c-3.25.44-5.62.08-6.75,2.56.18,1.29,1.57,1.7,1.58,3.12a2.31,2.31,0,0,1,1.37.33c0,.17,0,.33.33.29l0,.56c-4.2-.54-6,.18-10.08-.34-1.17-.34,1-.06.39-.83.35,0,.42-.21.71-.25,0-1.68,1.59-1.92,2.24-3h.35c1.22-.1.61-1.8.84-2.76-.26-1,.11-.91-.61-1.7a11.84,11.84,0,0,0-6.29.62.45.45,0,0,1-.16.2,18.34,18.34,0,0,0-1.85,3.91,18.91,18.91,0,0,1,1,1.72c.07.22,0,.55.32.57.06.4.55.49.65.86h.35c0,.46,1,.19,1,.59l-2.08-.07a8,8,0,0,0-2.79.18c-.8.15-2.13.48-2.78-.09a8.64,8.64,0,0,1,1.52-2.46,11,11,0,0,1,1.55-1.57,4.92,4.92,0,0,0-.62-4c-.62-.25-1.15-.45-1.68-.07a14.14,14.14,0,0,1-3.44.69A7.43,7.43,0,0,0,1916,7.27a6.12,6.12,0,0,0-.31,1.11,5,5,0,0,1,.79,2.13c-.2,1.31,2.32.61,2,2-2.2,0-3.93-.26-7.3-.25-.39-1.12,1-.64,1.12-1.36,1-.71,1.21-2.1,2.3-2.72a5.25,5.25,0,0,0,1-2.14,14.06,14.06,0,0,0,0-3,2.54,2.54,0,0,0-.77-.68c-.49,1.22-2.92-1.38-3.79-.69.36.36-.42.8-.42,1.38h-.35a4.59,4.59,0,0,1-2.39-.08,4.31,4.31,0,0,0-.61.26,2.36,2.36,0,0,0,.19.29,2.84,2.84,0,0,0-.91,4.15c-.1,1.95,1.28,2.8,2.59,3.72v.56c-.08.61-.91.57-1.77.5-2.94.21-5.26-.65-7,.32.37-1-1.81-.57-2.07-.35,0-.33.1-.79-.3-.85.42-1.48.79-3,2.61-3.26s-.17-1.57.81-2.2a4.16,4.16,0,0,0-2.4-.64,14.29,14.29,0,0,0-5.62.93c-.85,2.21.58,4.4,2.5,5.39V12c.21,0,.41.06.33.29-4.42.51-5.87.33-11.49.17a3.17,3.17,0,0,0,.13-2.51c1-.42,2.22-.59,2.19-1.88h.32c0-.27.11-.54.16-.82a4.56,4.56,0,0,0-.7-1.41c-.32-.45-.71-1.31-1.33-1.52-.39-.14-.53-.17-.78-.28-1,.07-2.07.14-3.16.15-.27.06-.53.14-.8.22a7.75,7.75,0,0,0-1.31,4s0,.08,0,.12c.11.33.28.64.38,1h.15c-.29.93.67.94,1,1.43v.28a2.19,2.19,0,0,1,1.66,1.45c-.95-.72-2.32-.2-3.3-.43a11.34,11.34,0,0,1-4.16.17l0,0a1.57,1.57,0,0,1,0-1.46c0-2-.35-3.93-2-5.39l-.08.09h-.35c-.35,0-.42.21-.71.25a2.8,2.8,0,0,0-1.65-.35,3.64,3.64,0,0,0-.37.38,10.52,10.52,0,0,1-.61,3.79c1.06-.07.67.93,1,1.43-.09.64.48.81,1,1a18.86,18.86,0,0,1-6-.32c.07-.76-.55-.58.06-1.11.11-.52-.36-.63-.29-1.13,1.08-.26,2.4-1.41,1.52-2.46.21,0,.41,0,.36-.27a1.43,1.43,0,0,0,.45-1.94c0-.93-.27-2.69-.83-3.07l-.25-.07-.15,0c.09.47-1,.17-2-.22a8,8,0,0,0-1.3.21c-.48.79-1.46.94-1.28,1.81-.79,0-1.55-.15-2.28-.22a5.23,5.23,0,0,0-.58.85,4.27,4.27,0,0,0-.43,2.33c.59,2.69,2.32,4.54,6,4.94-3,1-7.54.57-11.4.82a5.73,5.73,0,0,0,.26-2.15,2.23,2.23,0,0,1,.64-.41,9.68,9.68,0,0,0,.22-1.28v0c0-.61-.15-1.84-.93-2.19-1.67.26-2.37,1.68-3.92.42-1.44,1.47-.8,4.1.39,5.74-1.56-.69-4.86.42-6.48-.81.41,0,.4-.43.39-.82,0-.76.61-.54.06-1.11a17.33,17.33,0,0,0,2.3-4.11V5.31a3.22,3.22,0,0,0,.18-1,4.7,4.7,0,0,0-1.39-1.87,3.25,3.25,0,0,0-2.48.27c-.09.5-.82.73-1.83.85a7.35,7.35,0,0,0-3.11,3.58c-.2,1.24.2,2.41,2.14,2.45-.29.75.66.58.64,1.14V11c-.08,1,2.11.23,2,1.18a22.89,22.89,0,0,0-7.31,0c-1.53-.45-.28-1.37-.93-2.26.27-.05.69,0,.71-.25.69-.31,1.95-.89,1.13-1.64.42,0,.23-.3,0-.56a3.47,3.47,0,0,0,.29-.42V7a5.18,5.18,0,0,0-1.08-3.2l-.4,0a.8.8,0,0,0,.21-.27l-.3-.3c-.59-.07-1.76.29-1.67.79a2.59,2.59,0,0,1-2,.39,4.28,4.28,0,0,0-2,1.54c-.45,2.55.27,4.94,1.49,6.07-1.33.39-3.67-.1-4.89.39h-.69l0-.56c-.24-1.37,1.22-1.27.84-2.76l0-.56a.4.4,0,0,1,.1-.45,5,5,0,0,0-.51-1.31,6.14,6.14,0,0,1-.42-.84l-.08.06V5.7a2,2,0,0,1-.07-.38c-.08-.15-.24-.24-.58-.2-.46.57.24.41-1.4.23l0,.56c-1.45-.31-1.42.68-2.68.54a2.3,2.3,0,0,0-.9.94,2.06,2.06,0,0,0,0,.35h-.18a5,5,0,0,0-.07,3.59,14.74,14.74,0,0,0,2.43,1.23,50.67,50.67,0,0,1-6.63.33,8.67,8.67,0,0,1,.51-3.05h.06a7.94,7.94,0,0,0,.67-2.07,16.71,16.71,0,0,0-.83-2.14h0a1,1,0,0,0,0-.12v0c0-.1-.1-.18-.31-.15a2.36,2.36,0,0,0-2.81.46c-1.12.13-1-.56-1.74-.06l-.57-.09C1807.95,7,1808,9.27,1808,11.06c.58,1.21,2.87,1.16,3.54,2.3l-2.43-.08c-1.68.09-1.69-.12-2.47.75.27-1.09-1.89-.39-2.75-.65a1.59,1.59,0,0,0-.63,0c0-.59-.11-1.18.12-1.42a11.25,11.25,0,0,0-.69-4.37.26.26,0,0,1-.17-.11,1,1,0,0,0-.48-.38c-.85,0-1.72.11-2.61.17a3,3,0,0,0-1,.88c-.66,2.12-.21,4.34,2.23,5.28a1.56,1.56,0,0,0-.28.13c-.5.09-.6.31-1,0a.78.78,0,0,0,0-.11l-.54-.05a17.83,17.83,0,0,0-4,.19c-.29.26-1.22,0-1.72,0s-.28-.68-.29-1.13c1,.24,1.08-.24,1.54-.44a5.51,5.51,0,0,0,.94-3.32.19.19,0,0,1-.09-.17,1.21,1.21,0,0,0-.44-.86,4.76,4.76,0,0,0-4.13,0c-1.32-.08-1.58.75-1.82,1.61-1.12,1.11.14,2.74-.22,4.18.8-.05,1.3.11,1.36.6h-.35c-1.33.22-2.76.35-4.17.5,0-.28,0-.76,0-.83a1.19,1.19,0,0,0,.29-.12.19.19,0,0,1,0-.19,3.75,3.75,0,0,0,.79-1.93.21.21,0,0,1,.16-.2,3.57,3.57,0,0,0,.45-1.58,2.47,2.47,0,0,0-.95-1.3.2.2,0,0,1-.16-.09l-.19-.08c-1.21.36-1.9.06-3,.24a3.92,3.92,0,0,0-.7,6.81c-.29.06-.58.11-.87.14a20.71,20.71,0,0,1-3.26-.53V19c4.07-.45,9.46-1.37,12.11-1.09h.35a80.84,80.84,0,0,0,11.39,1.78,8,8,0,0,0,4.17.14h.69a68.59,68.59,0,0,0,10.44.08l.69,0c8-.11,13.29-.25,21.22.16v.28c1.21-.44,2,.28,3.82.13,2.84.43,3.93-.49,5.92-.08.84-.14,2.5.44,2.79-.18l1.74.06,2.08.07c.09-.21,0-.55.38-.55,0,.17,0,.33.33.29a18,18,0,0,0,4.18-.14c2.48.33,3.71.07,6.6.22,2.17-.24,5,.12,7-.32h.35c-.27.44,1.61.51,1.39,0l.69,0a9.48,9.48,0,0,1,2.78.1h.35l2.08.07c.27-.05.69,0,.71-.25a8.18,8.18,0,0,0,4.17.14h.35c2.81.25,5.33-.45,8.37-.27v-.28h.35c2.8-.22,11.54.7,14.3-.63.05.1-.38.55-.38.55,3,.71,6.89.15,9.74.05,5.33-.18,10.65-.16,16.37-.28h.35c7.34.47,11-.17,18,.43-.07.5.31.66,1,.59h.35v.28c1.35-.12,5-1.2,4.26-.06,5.59.81,8.17,1.67,13.19.73,3.4.3,9.58.31,13.26-.67-.17,0,5.14-.61,5.55-.61,9.28-.13,10.42-.38,17.18-.69V14.84a20,20,0,0,1-1.84-1.27Z"/><path class="cls-1" d="M228.79,11.75h.35a1,1,0,0,1,1.07-.52c.35-1.37.59-2.3-.53-3.09h-.35c-.16-.42-.48-.72-.64-1.14a9.43,9.43,0,0,0-2.11.49l0,.56a15.66,15.66,0,0,0-1.81,1.33,4.23,4.23,0,0,0-2.9,2.14c-.07.33-.65.61,0,.84l0,.56h-.35c-1.76-.08-3.55-.19-4.55.4a.42.42,0,0,1-.32-.57,16.55,16.55,0,0,1,2.22-2.44c.25-.75,1.49-.64,1.48-1.62-.26-.79-1.69-.72-1.65-1.73-3.68-.21-6.82,2.28-3.69,4.06,0,.86.91,1.11,1.3,1.72-1,1.1-4.81-.35-6,1.19a2.68,2.68,0,0,0-1.72-.34v.28c-.35,0-.4-.24-.68-.3-.09.21,0,.55-.38.54-.07-.22,0-.55-.32-.57-.21.44-1.12.27-1.93.19,0-2.27,3.2-1.8,3.72-3.63-.77-.46-.63-.6-.27-1.4-1.75.39-1.06-1-2.39-.92-4.14.2-5.93,4.38-2.61,5.93-.81,0-1,.44-2.09.21-.15-.39-2.31-.1-2.79.18-1.6-.34-3,.41-3.82-.13a4.88,4.88,0,0,1,3-3.25c1.59,0,1.88-2.29,1.55-3,.82-.17-.82-1.34.09-1.67-.86-.06-1-.56-1.74-.06-.55,0-.24-.72-1-.59-.07-.22,0-.55-.32-.57-.6,1-3.44.11-3.56,1.55-3,1.38-2,6.06.32,7.27v.28c-.38.37-2.08.76-1,0-4.61-.2-4.94-.55-9.34-1.15,0-.28.3-.32.38-.54.09-.41.85-.23,1.4-.23-.66-1,.67-1.1.48-2.49.21,0,.41,0,.36-.27h.35a24.56,24.56,0,0,1,2.85-1.3l.06-1.11c.87-.72-.19-1.64-1.66-1.45.28-.74-.69-.56-1-.87a.41.41,0,0,1-.32-.57c-1.42.23-1.59-.24-2.46.47a2.09,2.09,0,0,1-1,.41,19.11,19.11,0,0,0-2.35,3.65h0l0,.56c-.44.86.51.7.64,1.14.1.91,1.11,1.15,1.65,1.73.42,1.75-5-.19-5.54-.47l.06-1.11a2.14,2.14,0,0,0,1.81-1.33l.22.06a9.27,9.27,0,0,0-.8-5.78c-.57,0-1-.2-1.21.08-1.71.36-3.76.41-4.6,1.52-1.4,1.82-.27,4.51,1.78,5.92-.16.48.48.73,0,.84-3.24-.07-4.43.06-6.61.05-1.15-.64-1.83,0-3.11-.39a7.11,7.11,0,0,1-2.45.2c1.32-1.36.62-3.3,3.66-3.5.18-.67-.6-.63-.27-1.4h0a7.65,7.65,0,0,1-.23-.81,3.13,3.13,0,0,1-.76-1.18c-3.25.44-5.62.08-6.75,2.56.18,1.29,1.57,1.7,1.58,3.12a2.29,2.29,0,0,1,1.37.33c0,.17,0,.33.33.29l0,.56c-4.2-.54-6,.19-10.08-.34-1.17-.34,1-.06.39-.82.35,0,.42-.21.71-.25,0-1.68,1.59-1.92,2.24-3h.35c1.22-.1.61-1.8.84-2.76-.26-1,.11-.91-.61-1.7a11.84,11.84,0,0,0-6.29.62.46.46,0,0,1-.16.2,18.3,18.3,0,0,0-1.85,3.91,19.06,19.06,0,0,1,1,1.72c.07.22,0,.55.32.57.06.4.55.49.65.86h.35c0,.46,1,.19,1,.59l-2.08-.07a8.05,8.05,0,0,0-2.79.18c-.8.15-2.13.48-2.78-.09a8.65,8.65,0,0,1,1.52-2.46A11,11,0,0,1,144.9,7a4.92,4.92,0,0,0-.62-4c-.62-.24-1.15-.45-1.68-.07a14.14,14.14,0,0,1-3.44.68A7.44,7.44,0,0,0,138,5.72a6.18,6.18,0,0,0-.31,1.11A5,5,0,0,1,138.46,9c-.2,1.31,2.32.61,2,2-2.2,0-3.93-.26-7.3-.25-.39-1.12,1-.64,1.12-1.36,1-.71,1.21-2.1,2.3-2.73a5.24,5.24,0,0,0,1-2.14,14.06,14.06,0,0,0,0-3,2.54,2.54,0,0,0-.77-.68C136.31,2,133.88-.57,133,.12c.36.36-.42.8-.42,1.38h-.35a4.59,4.59,0,0,1-2.39-.08,4.18,4.18,0,0,0-.61.26,2.43,2.43,0,0,0,.19.29,2.84,2.84,0,0,0-.91,4.16c-.1,1.95,1.28,2.8,2.59,3.72v.56c-.08.61-.91.57-1.77.5-2.94.21-5.26-.65-7,.32.37-1-1.81-.57-2.07-.35,0-.33.1-.79-.3-.85.42-1.48.79-3,2.61-3.26s-.17-1.57.81-2.2A4.16,4.16,0,0,0,121,3.9a14.29,14.29,0,0,0-5.62.93c-.85,2.21.58,4.4,2.5,5.39v.28c.21,0,.41.05.33.29-4.42.51-5.87.33-11.49.17a3.17,3.17,0,0,0,.13-2.51c1-.42,2.22-.59,2.19-1.88h.32c0-.27.11-.54.16-.82a4.56,4.56,0,0,0-.7-1.41c-.32-.45-.71-1.31-1.33-1.52-.39-.14-.53-.17-.78-.28-1,.07-2.07.14-3.16.15-.27.06-.53.14-.8.22a7.75,7.75,0,0,0-1.31,4s0,.08,0,.12c.11.33.28.64.38,1H102c-.29.93.67.94,1,1.43V9.7a2.19,2.19,0,0,1,1.66,1.45c-.95-.72-2.32-.2-3.3-.43a11.31,11.31,0,0,1-4.16.17l0,0a1.57,1.57,0,0,1,0-1.46c0-2-.35-3.93-2-5.39L95,4.09h-.35c-.35,0-.42.21-.71.25A2.8,2.8,0,0,0,92.32,4a3.64,3.64,0,0,0-.37.38,10.53,10.53,0,0,1-.61,3.79c1.06-.07.67.93,1,1.43-.09.64.48.8,1,1a18.86,18.86,0,0,1-6-.32c.07-.76-.55-.58.06-1.11.11-.52-.36-.63-.29-1.13,1.08-.26,2.4-1.41,1.52-2.46.21,0,.41,0,.36-.27a1.43,1.43,0,0,0,.45-1.94c0-.93-.27-2.69-.83-3.07L88.26.23l-.15,0c.09.48-1,.17-2-.22a7.72,7.72,0,0,0-1.3.21c-.48.78-1.46.94-1.28,1.81-.79,0-1.55-.15-2.28-.22a5.28,5.28,0,0,0-.58.85A4.27,4.27,0,0,0,80.21,5c.59,2.69,2.32,4.54,6,4.94-3,1-7.54.57-11.4.82a5.73,5.73,0,0,0,.26-2.15,2.23,2.23,0,0,1,.64-.41,9.68,9.68,0,0,0,.22-1.28v0c0-.61-.15-1.84-.93-2.19-1.67.26-2.37,1.69-3.92.42-1.44,1.47-.8,4.1.39,5.74-1.56-.69-4.86.42-6.48-.81.41,0,.4-.43.39-.82,0-.76.61-.54.06-1.11A17.32,17.32,0,0,0,67.73,4V3.76a3.22,3.22,0,0,0,.18-1A4.7,4.7,0,0,0,66.54.86a3.25,3.25,0,0,0-2.48.27c-.09.5-.82.73-1.83.85a7.36,7.36,0,0,0-3.11,3.58C58.92,6.8,59.32,8,61.26,8c-.29.75.66.58.64,1.14v.28c-.08,1,2.11.23,2,1.19a22.83,22.83,0,0,0-7.31,0c-1.53-.45-.28-1.37-.93-2.26.27-.05.69,0,.71-.25.69-.31,1.95-.89,1.13-1.64.42,0,.23-.3,0-.56a3.38,3.38,0,0,0,.29-.42V5.42a5.18,5.18,0,0,0-1.08-3.2l-.4,0A.8.8,0,0,0,56.55,2l-.3-.3c-.59-.07-1.76.29-1.67.79a2.59,2.59,0,0,1-2,.39,4.28,4.28,0,0,0-2,1.54c-.45,2.55.27,4.94,1.49,6.07-1.33.39-3.67-.1-4.89.39H46.5l0-.56c-.24-1.38,1.22-1.27.84-2.76l0-.56a.4.4,0,0,1,.1-.45A5,5,0,0,0,47,5.21a6.12,6.12,0,0,1-.42-.84l-.08.06V4.15a2,2,0,0,1-.07-.38c-.08-.15-.24-.24-.58-.2-.46.57.24.41-1.4.23l0,.56c-1.45-.31-1.42.68-2.68.54a2.3,2.3,0,0,0-.9.94,2.06,2.06,0,0,0,0,.35h-.18a5,5,0,0,0-.07,3.59A14.74,14.74,0,0,0,43,11a50.67,50.67,0,0,1-6.63.33,8.68,8.68,0,0,1,.51-3.05h.06a7.93,7.93,0,0,0,.67-2.07,16.58,16.58,0,0,0-.83-2.14h0a1,1,0,0,0,0-.12V4c0-.1-.1-.18-.31-.15a2.36,2.36,0,0,0-2.81.46c-1.12.13-1-.56-1.74-.06l-.57-.09C30,5.49,30,7.72,30,9.51c.58,1.21,2.87,1.16,3.54,2.3l-2.43-.08c-1.68.09-1.69-.12-2.47.75.27-1.09-1.89-.39-2.75-.65a1.57,1.57,0,0,0-.63,0c0-.59-.11-1.19.12-1.42A11.25,11.25,0,0,0,24.71,6a.25.25,0,0,1-.17-.11,1,1,0,0,0-.48-.38c-.85,0-1.72.11-2.61.17a3,3,0,0,0-1,.88c-.66,2.12-.21,4.34,2.23,5.28a1.65,1.65,0,0,0-.28.13c-.5.09-.6.31-1,0a.8.8,0,0,0,0-.11l-.54-.05a17.76,17.76,0,0,0-4,.19c-.29.26-1.22,0-1.72,0s-.28-.68-.29-1.13c1,.24,1.08-.24,1.54-.44a5.51,5.51,0,0,0,.94-3.32A.19.19,0,0,1,17.22,7a1.21,1.21,0,0,0-.44-.86,4.77,4.77,0,0,0-4.13,0c-1.32-.08-1.58.75-1.82,1.61-1.12,1.11.14,2.74-.22,4.18.8-.05,1.3.11,1.36.6h-.35c-1.33.22-2.76.35-4.17.5,0-.28,0-.76,0-.83A1.19,1.19,0,0,0,7.69,12a.19.19,0,0,1,0-.19,3.74,3.74,0,0,0,.79-1.93.21.21,0,0,1,.16-.2,3.57,3.57,0,0,0,.45-1.58,2.47,2.47,0,0,0-.95-1.3A.2.2,0,0,1,8,6.72L7.8,6.64c-1.21.36-1.9.06-3,.24a3.92,3.92,0,0,0-.7,6.81c-.29.06-.58.11-.87.14A20.54,20.54,0,0,1,0,13.3v4.17C4.07,17,9.46,16.1,12.11,16.38h.35a80.84,80.84,0,0,0,11.39,1.78,8,8,0,0,0,4.17.14h.69a68.45,68.45,0,0,0,10.44.08l.69,0c8-.11,13.29-.25,21.22.16v.28c1.21-.44,2,.28,3.82.13,2.84.43,3.93-.49,5.92-.08.84-.14,2.5.43,2.79-.18l1.74.06,2.08.07c.09-.21,0-.55.38-.55,0,.17,0,.33.33.29a17.9,17.9,0,0,0,4.18-.14c2.48.33,3.71.07,6.6.22,2.17-.24,5,.12,7-.32h.35c-.27.44,1.61.51,1.39,0l.69,0a9.48,9.48,0,0,1,2.78.1h.35l2.08.07c.27-.05.69,0,.71-.25a8.18,8.18,0,0,0,4.17.14h.35c2.81.25,5.33-.45,8.37-.27V18h.35c2.8-.22,11.54.7,14.3-.63.05.1-.38.54-.38.54,3,.71,6.89.15,9.74.05,5.33-.18,10.65-.16,16.37-.28h.35c7.34.47,11-.17,18,.43-.07.5.31.66,1,.59h.35V19c1.35-.12,5-1.2,4.26-.06,5.59.81,8.17,1.67,13.19.73,3.4.3,9.58.31,13.26-.67-.17,0,5.14-.61,5.55-.61,9.28-.13,10.42-.38,17.18-.69V13.29A20.49,20.49,0,0,1,228.78,12Z"/><path class="cls-1" d="M226.86,11.55h-.35a1,1,0,0,0-1.07-.52c-.34-1.37-.59-2.3.54-3.09h.35c.16-.42.48-.72.64-1.14a9.34,9.34,0,0,1,2.11.49l0,.56a15.55,15.55,0,0,1,1.81,1.34,4.22,4.22,0,0,1,2.89,2.14c.07.33.65.61,0,.84l0,.56h.35c1.76-.08,3.55-.18,4.54.41a.41.41,0,0,0,.32-.57,16.45,16.45,0,0,0-2.21-2.44c-.25-.75-1.49-.65-1.47-1.63.27-.79,1.69-.71,1.65-1.73,3.68-.2,6.81,2.29,3.68,4.07,0,.86-.91,1.11-1.3,1.71,1,1.1,4.81-.34,6,1.21a2.69,2.69,0,0,1,1.72-.33v.28c.35,0,.4-.24.68-.3.09.21,0,.55.37.55.07-.22,0-.55.32-.57.21.44,1.12.28,1.93.2,0-2.27-3.19-1.8-3.71-3.64.77-.46.63-.6.28-1.4,1.75.4,1.06-1,2.39-.91,4.14.21,5.91,4.4,2.6,5.93.81,0,1,.45,2.09.21.15-.39,2.31-.09,2.79.19,1.6-.34,3,.42,3.82-.12a4.88,4.88,0,0,0-2.95-3.26c-1.59,0-1.88-2.29-1.54-3-.82-.17.82-1.34-.08-1.67.86-.06,1-.56,1.74-.06.55,0,.24-.72,1-.59.07-.22,0-.55.32-.57.6,1,3.44.11,3.56,1.56,3,1.39,2,6.07-.33,7.27v.28c.38.37,2.08.76,1,0,4.61-.2,4.95-.54,9.34-1.13,0-.28-.3-.32-.38-.55-.09-.41-.85-.23-1.4-.23.67-1-.67-1.11-.47-2.5-.21,0-.41,0-.36-.27h-.35A24.76,24.76,0,0,0,267,7.76L267,6.64c-.87-.72.2-1.64,1.67-1.45-.28-.74.69-.56,1-.87a.41.41,0,0,0,.32-.57c1.42.24,1.59-.24,2.46.48a2.1,2.1,0,0,0,1,.41,19,19,0,0,1,2.34,3.65h0l0,.56c.44.86-.51.69-.64,1.14-.11.91-1.11,1.14-1.65,1.73-.42,1.74,5-.18,5.54-.46L279,10.17a2.14,2.14,0,0,1-1.81-1.34l-.22.06a9.29,9.29,0,0,1,.82-5.78c.57,0,1-.2,1.21.08,1.7.36,3.76.41,4.6,1.53,1.4,1.83.26,4.51-1.79,5.92.16.48-.48.73,0,.84,3.24-.07,4.43.07,6.62.07,1.15-.63,1.83,0,3.11-.38a7.07,7.07,0,0,0,2.44.2c-1.32-1.37-.61-3.31-3.65-3.51-.18-.67.6-.63.28-1.4h0a7.8,7.8,0,0,0,.23-.81,3.15,3.15,0,0,0,.76-1.18c3.24.45,5.62.1,6.74,2.58-.19,1.29-1.57,1.7-1.58,3.12a2.29,2.29,0,0,0-1.38.32c0,.17,0,.33-.33.29l0,.56c4.2-.53,6,.2,10.07-.32,1.17-.34-1-.06-.39-.83-.35,0-.42-.21-.71-.26,0-1.68-1.58-1.92-2.24-3h-.35c-1.22-.1-.6-1.8-.84-2.76.26-1-.11-.91.61-1.69a11.83,11.83,0,0,1,6.29.64.46.46,0,0,0,.16.2,18.36,18.36,0,0,1,1.84,3.91,18.89,18.89,0,0,0-1,1.72c-.07.22,0,.55-.32.57-.06.4-.55.49-.65.86h-.35c0,.46-1,.19-1,.59l2.08-.07a8,8,0,0,1,2.79.19c.81.15,2.13.49,2.78-.09a8.64,8.64,0,0,0-1.51-2.46A11,11,0,0,0,310.76,7a4.92,4.92,0,0,1,.63-4c.62-.24,1.15-.44,1.68-.06a14.08,14.08,0,0,0,3.43.69,7.44,7.44,0,0,1,1.18,2.08A6.14,6.14,0,0,1,318,6.83,5,5,0,0,0,317.2,9c.2,1.31-2.32.6-2,2,2.2,0,3.93-.25,7.29-.23.39-1.11-1-.64-1.11-1.36-1-.71-1.2-2.1-2.3-2.73a5.25,5.25,0,0,1-1-2.14,14,14,0,0,1,.05-3,2.53,2.53,0,0,1,.77-.68c.49,1.22,2.92-1.37,3.79-.68-.36.36.42.8.42,1.38h.35a4.61,4.61,0,0,0,2.39-.07,4,4,0,0,1,.6.26,2.39,2.39,0,0,1-.19.29,2.84,2.84,0,0,1,.9,4.16c.1,1.95-1.29,2.8-2.6,3.71v.56c.08.61.91.57,1.77.5,2.94.22,5.26-.64,7,.34-.37-1,1.81-.57,2.07-.35,0-.33-.1-.79.3-.85-.42-1.48-.78-3-2.6-3.27s.17-1.56-.81-2.21a4.15,4.15,0,0,1,2.4-.63,14.26,14.26,0,0,1,5.61.94c.85,2.21-.58,4.4-2.51,5.38v.28c-.21,0-.41.05-.33.29,4.42.52,5.87.34,11.49.19a3.17,3.17,0,0,1-.13-2.51c-1-.42-2.22-.59-2.18-1.88h-.32c0-.27-.11-.54-.16-.81a4.59,4.59,0,0,1,.7-1.41c.32-.45.72-1.31,1.33-1.52.39-.13.53-.17.78-.28,1,.07,2.07.14,3.16.15.27.06.53.15.8.22a7.76,7.76,0,0,1,1.3,4s0,.08,0,.12c-.11.33-.28.64-.38,1h-.15c.29.93-.67.94-1,1.43v.28a2.19,2.19,0,0,0-1.67,1.45c1-.72,2.32-.2,3.31-.43a11.33,11.33,0,0,0,4.15.18l0,0a1.57,1.57,0,0,0,0-1.46c.05-2,.36-3.93,2-5.39l.08.09H361c.35,0,.42.21.71.26a2.79,2.79,0,0,1,1.66-.35,3.42,3.42,0,0,1,.37.38,10.59,10.59,0,0,0,.6,3.79c-1.06-.07-.67.93-1,1.43.08.64-.48.8-1,1a18.86,18.86,0,0,0,6-.3c-.07-.76.55-.58-.06-1.11-.11-.52.36-.63.29-1.13-1.08-.26-2.4-1.41-1.52-2.46-.21,0-.41,0-.36-.27a1.43,1.43,0,0,1-.45-1.94c0-.93.27-2.69.84-3.07l.25-.07.15,0c-.09.48,1,.18,2-.21a7.71,7.71,0,0,1,1.3.21c.48.79,1.45.94,1.28,1.81.79,0,1.55-.15,2.28-.21a5.46,5.46,0,0,1,.58.85,4.28,4.28,0,0,1,.42,2.33c-.6,2.68-2.33,4.53-6,4.93,3,1,7.54.58,11.4.84a5.72,5.72,0,0,1-.25-2.15,2.19,2.19,0,0,0-.64-.42,10,10,0,0,1-.22-1.29v0c0-.61.15-1.84.94-2.19,1.67.27,2.36,1.69,3.92.43,1.43,1.47.8,4.1-.4,5.74,1.56-.69,4.86.43,6.48-.8-.41,0-.4-.43-.39-.82,0-.76-.61-.54-.06-1.11a17.28,17.28,0,0,1-2.29-4.11V3.92a3.21,3.21,0,0,1-.18-1A4.7,4.7,0,0,1,389.14,1a3.25,3.25,0,0,1,2.48.27c.09.5.82.74,1.83.86a7.37,7.37,0,0,1,3.1,3.58c.19,1.24-.21,2.41-2.15,2.45.29.75-.66.58-.64,1.14v.28c.08,1-2.11.23-2,1.18a22.83,22.83,0,0,1,7.31,0c1.53-.45.28-1.37.93-2.26-.27-.05-.68,0-.71-.26-.69-.31-1.94-.89-1.12-1.64-.42,0-.23-.3,0-.56a3.3,3.3,0,0,1-.28-.42V5.59a5.18,5.18,0,0,1,1.09-3.2l.4,0a.79.79,0,0,1-.21-.27l.3-.3c.59-.06,1.76.29,1.67.79a2.58,2.58,0,0,0,2,.4,4.27,4.27,0,0,1,2,1.55c.44,2.55-.28,4.93-1.5,6.07,1.33.4,3.67-.09,4.89.4h.69l0-.56c.24-1.37-1.21-1.27-.83-2.76l0-.56a.4.4,0,0,0-.1-.45,5,5,0,0,1,.51-1.31,6.33,6.33,0,0,0,.42-.84l.08.06V4.35a2,2,0,0,0,.07-.38c.08-.15.23-.24.58-.2.46.57-.24.41,1.41.23l0,.56c1.46-.3,1.42.69,2.68.55a2.31,2.31,0,0,1,.9.94,2,2,0,0,1,0,.35H415a5.05,5.05,0,0,1,.06,3.59,14.86,14.86,0,0,1-2.43,1.22,50.85,50.85,0,0,0,6.63.35,8.63,8.63,0,0,0-.5-3.05h-.06A7.85,7.85,0,0,1,418,6.46a16.58,16.58,0,0,1,.84-2.14h0a1,1,0,0,1,0-.12v0c0-.1.1-.18.31-.15a2.35,2.35,0,0,1,2.81.47c1.12.13,1-.56,1.74-.06l.57-.09c1.34,1.36,1.32,3.59,1.27,5.38-.59,1.21-2.87,1.15-3.54,2.3l2.43-.08c1.68.09,1.69-.12,2.47.76-.27-1.09,1.89-.39,2.75-.65a1.59,1.59,0,0,1,.63,0c0-.59.12-1.19-.11-1.42a11.24,11.24,0,0,1,.7-4.37.26.26,0,0,0,.17-.11,1,1,0,0,1,.48-.37c.85,0,1.72.12,2.61.18a3,3,0,0,1,1,.88c.65,2.12.2,4.34-2.24,5.27a1.51,1.51,0,0,1,.28.13c.5.09.6.32,1,0a.78.78,0,0,1,0-.11l.54-.05a17.75,17.75,0,0,1,4,.19c.29.26,1.22,0,1.72,0s.29-.68.29-1.13c-1,.24-1.08-.24-1.54-.44a5.52,5.52,0,0,1-.93-3.32.19.19,0,0,0,.09-.17,1.21,1.21,0,0,1,.44-.86,4.77,4.77,0,0,1,4.13,0c1.32-.08,1.58.76,1.82,1.62,1.12,1.11-.15,2.74.21,4.18-.79-.05-1.3.11-1.36.6H444c1.33.22,2.76.36,4.17.51,0-.28,0-.76,0-.83a1.15,1.15,0,0,1-.29-.12.19.19,0,0,0,0-.19,3.75,3.75,0,0,1-.78-1.93A.21.21,0,0,0,447,10a3.58,3.58,0,0,1-.45-1.58,2.47,2.47,0,0,1,.95-1.3.2.2,0,0,0,.16-.09l.19-.08c1.2.36,1.9.06,3,.25a3.92,3.92,0,0,1,.68,6.81c.29.06.58.11.87.15a20.52,20.52,0,0,0,3.27-.52v4.17c-4.07-.45-9.45-1.39-12.1-1.12h-.35a80.68,80.68,0,0,1-11.39,1.76,8,8,0,0,1-4.17.13h-.69a68.45,68.45,0,0,1-10.44.05l-.69,0c-8-.13-13.29-.28-21.22.12v.28c-1.21-.44-2,.28-3.82.12-2.84.43-3.93-.5-5.92-.09-.84-.14-2.5.43-2.79-.19l-1.74.05-2.08.07c-.09-.21,0-.55-.38-.55,0,.17,0,.33-.33.29a18,18,0,0,1-4.18-.15c-2.48.32-3.71.06-6.6.21-2.17-.24-5,.11-7-.34h-.35c.27.44-1.62.5-1.39,0l-.7,0a9.47,9.47,0,0,0-2.78.09h-.35l-2.08.07c-.27-.05-.69,0-.71-.26a8.19,8.19,0,0,1-4.17.13h-.35c-2.82.24-5.33-.47-8.36-.29l0-.28h-.35c-2.8-.22-11.55.67-14.3-.66-.05.1.38.55.38.55-3,.71-6.89.13-9.74,0-5.33-.19-10.65-.19-16.37-.32h-.35c-7.34.45-11-.19-18,.39.07.5-.31.66-1,.59h-.35v.28c-1.35-.13-5-1.21-4.26-.06-5.59.8-8.17,1.65-13.19.7-3.4.29-9.58.29-13.26-.69.17,0-5.14-.62-5.55-.62-9.28-.15-10.42-.41-17.18-.73V13.09a20.06,20.06,0,0,0,1.84-1.26Z"/><path class="cls-1" d="M674,11.84h.35a1,1,0,0,1,1.07-.52c.35-1.37.59-2.3-.53-3.09h-.35c-.16-.42-.48-.72-.64-1.14a9.31,9.31,0,0,0-2.11.49l0,.56A15.69,15.69,0,0,0,670,9.47a4.23,4.23,0,0,0-2.9,2.13c-.07.33-.65.61,0,.84l0,.56h-.35c-1.76-.08-3.55-.19-4.55.4a.42.42,0,0,1-.32-.57A16.44,16.44,0,0,1,664,10.38c.25-.75,1.49-.64,1.48-1.62C665.22,8,663.8,8,663.84,7c-3.68-.21-6.82,2.28-3.69,4.06,0,.86.91,1.12,1.3,1.72-1,1.1-4.81-.35-6,1.19a2.68,2.68,0,0,0-1.72-.34v.28c-.35,0-.4-.24-.68-.3-.09.21,0,.55-.38.54-.07-.22,0-.55-.32-.57-.21.44-1.12.27-1.93.19,0-2.27,3.2-1.8,3.72-3.63-.77-.46-.63-.6-.27-1.4-1.75.39-1.06-1-2.39-.92-4.14.2-5.93,4.38-2.61,5.93-.81,0-1,.44-2.09.21-.15-.39-2.31-.1-2.79.18-1.6-.34-3,.41-3.82-.13a4.88,4.88,0,0,1,3-3.25c1.59,0,1.88-2.29,1.55-3,.82-.17-.82-1.34.09-1.67-.86-.06-1-.56-1.74-.06-.55,0-.24-.72-1-.59-.07-.22,0-.55-.32-.57-.6,1-3.44.11-3.56,1.55-3,1.38-2,6.06.32,7.27V14c-.38.37-2.08.76-1,0-4.61-.2-4.94-.55-9.34-1.15,0-.28.3-.32.38-.54.09-.41.85-.23,1.4-.23-.66-1,.67-1.11.48-2.49.21,0,.41,0,.36-.27H631A24.76,24.76,0,0,1,633.86,8l.06-1.11c.87-.72-.19-1.64-1.66-1.45.28-.74-.69-.56-1-.87a.41.41,0,0,1-.32-.57c-1.42.23-1.59-.24-2.46.47a2.1,2.1,0,0,1-1,.41,19.13,19.13,0,0,0-2.35,3.65h0l0,.56c-.44.86.51.69.64,1.14.1.91,1.11,1.15,1.65,1.73.42,1.75-5-.19-5.54-.47l.06-1.11A2.14,2.14,0,0,0,623.72,9l.22.06a9.28,9.28,0,0,0-.8-5.78c-.57,0-1-.2-1.21.08-1.71.36-3.76.41-4.6,1.52-1.4,1.82-.27,4.51,1.78,5.92-.16.48.48.73,0,.84-3.24-.07-4.43.06-6.61.05-1.15-.64-1.83,0-3.11-.38a7.11,7.11,0,0,1-2.45.2c1.32-1.36.62-3.3,3.66-3.5.18-.67-.6-.63-.27-1.4h0a7.73,7.73,0,0,1-.23-.81,3.13,3.13,0,0,1-.76-1.18c-3.25.44-5.62.08-6.75,2.56.18,1.29,1.57,1.7,1.58,3.12a2.31,2.31,0,0,1,1.37.33c0,.17,0,.33.33.29l0,.56c-4.2-.54-6,.18-10.08-.34-1.17-.34,1-.06.39-.83.35,0,.42-.21.71-.25,0-1.68,1.59-1.92,2.24-3h.35c1.22-.1.61-1.8.84-2.76-.26-1,.11-.91-.61-1.7a11.84,11.84,0,0,0-6.29.62.45.45,0,0,1-.16.2,18.34,18.34,0,0,0-1.85,3.91,18.91,18.91,0,0,1,1,1.72c.07.22,0,.55.32.57.06.4.55.49.65.86h.35c0,.46,1,.19,1,.59L592.64,11a8,8,0,0,0-2.79.18c-.8.15-2.13.48-2.78-.09a8.64,8.64,0,0,1,1.52-2.46,11,11,0,0,1,1.55-1.57,4.92,4.92,0,0,0-.62-4c-.62-.25-1.15-.45-1.68-.07a14.14,14.14,0,0,1-3.44.69,7.43,7.43,0,0,0-1.18,2.08,6.12,6.12,0,0,0-.31,1.11A5,5,0,0,1,583.7,9c-.2,1.31,2.32.61,2,2-2.2,0-3.93-.26-7.3-.25-.39-1.12,1-.64,1.12-1.36,1-.71,1.21-2.1,2.3-2.72a5.25,5.25,0,0,0,1-2.14,14.06,14.06,0,0,0,0-3A2.54,2.54,0,0,0,582,.9c-.49,1.22-2.92-1.38-3.79-.69.36.36-.42.8-.42,1.38h-.35a4.59,4.59,0,0,1-2.39-.08,4.31,4.31,0,0,0-.61.26,2.36,2.36,0,0,0,.19.29,2.84,2.84,0,0,0-.91,4.15c-.1,1.95,1.28,2.8,2.59,3.72v.56c-.08.61-.91.57-1.77.5-2.94.21-5.26-.65-7,.32.37-1-1.81-.57-2.07-.35,0-.33.1-.79-.3-.85.42-1.48.79-3,2.61-3.26s-.17-1.57.81-2.2a4.16,4.16,0,0,0-2.4-.64,14.29,14.29,0,0,0-5.62.93c-.85,2.21.58,4.4,2.5,5.39v.28c.21,0,.41.06.33.29-4.42.51-5.87.33-11.49.17a3.17,3.17,0,0,0,.13-2.51c1-.42,2.22-.59,2.19-1.88h.32c0-.27.11-.54.16-.82a4.56,4.56,0,0,0-.7-1.41c-.32-.45-.71-1.31-1.33-1.52-.39-.14-.53-.17-.78-.28-1,.07-2.07.14-3.16.15-.27.06-.53.14-.8.22a7.75,7.75,0,0,0-1.31,4s0,.08,0,.12c.11.33.28.64.38,1h.15c-.29.93.67.94,1,1.43V9.8a2.19,2.19,0,0,1,1.66,1.45c-.95-.72-2.32-.2-3.3-.43a11.34,11.34,0,0,1-4.16.17l0,0a1.57,1.57,0,0,1,0-1.46c0-2-.35-3.93-2-5.39l-.08.09h-.35c-.35,0-.42.21-.71.25a2.8,2.8,0,0,0-1.65-.35,3.64,3.64,0,0,0-.37.38,10.52,10.52,0,0,1-.61,3.79c1.06-.07.67.93,1,1.43-.09.64.48.81,1,1a18.86,18.86,0,0,1-6-.32c.07-.76-.55-.58.06-1.11.11-.52-.36-.63-.29-1.13,1.08-.26,2.4-1.41,1.52-2.46.21,0,.41,0,.36-.27a1.43,1.43,0,0,0,.45-1.94c0-.93-.27-2.69-.83-3.07l-.25-.07-.15,0c.09.47-1,.17-2-.22a8,8,0,0,0-1.3.21c-.48.79-1.46.94-1.28,1.81-.79,0-1.55-.15-2.28-.22a5.23,5.23,0,0,0-.58.85,4.27,4.27,0,0,0-.43,2.33c.59,2.69,2.32,4.54,6,4.94-3,1-7.54.57-11.4.82a5.73,5.73,0,0,0,.26-2.15,2.23,2.23,0,0,1,.64-.41A9.68,9.68,0,0,0,521.16,7V7c0-.61-.15-1.84-.93-2.19-1.67.26-2.37,1.68-3.92.42-1.44,1.47-.8,4.1.39,5.74-1.56-.69-4.86.42-6.48-.81.41,0,.4-.43.39-.82,0-.76.61-.54.06-1.11A17.33,17.33,0,0,0,513,4.13V3.86a3.22,3.22,0,0,0,.18-1A4.7,4.7,0,0,0,511.77,1a3.25,3.25,0,0,0-2.48.27c-.09.5-.82.73-1.83.85a7.35,7.35,0,0,0-3.11,3.58c-.2,1.24.2,2.41,2.14,2.45-.29.75.66.58.64,1.14v.28c-.08,1,2.11.23,2,1.18a22.89,22.89,0,0,0-7.31,0c-1.53-.45-.28-1.37-.93-2.26.27-.05.69,0,.71-.25.69-.31,1.95-.89,1.13-1.64.42,0,.23-.3,0-.56a3.47,3.47,0,0,0,.29-.42V5.51A5.18,5.18,0,0,0,502,2.31l-.4,0a.8.8,0,0,0,.21-.27l-.3-.3c-.59-.07-1.76.29-1.67.79a2.59,2.59,0,0,1-2,.39,4.28,4.28,0,0,0-2,1.54c-.45,2.55.27,4.94,1.49,6.07-1.33.39-3.67-.1-4.89.39h-.69l0-.56c-.24-1.37,1.22-1.27.84-2.76l0-.56a.4.4,0,0,1,.1-.45,5,5,0,0,0-.51-1.31,6.14,6.14,0,0,1-.42-.84l-.08.06V4.25a2,2,0,0,1-.07-.38c-.08-.15-.24-.24-.58-.2-.46.57.24.41-1.4.23l0,.56c-1.45-.31-1.42.68-2.68.54a2.3,2.3,0,0,0-.9.94,2.06,2.06,0,0,0,0,.35h-.18a5,5,0,0,0-.07,3.59,14.74,14.74,0,0,0,2.43,1.23,50.67,50.67,0,0,1-6.63.33,8.67,8.67,0,0,1,.51-3.05h.06a7.94,7.94,0,0,0,.67-2.07A16.71,16.71,0,0,0,482,4.19h0a1,1,0,0,0,0-.12v0c0-.1-.1-.18-.31-.15a2.36,2.36,0,0,0-2.81.46c-1.12.13-1-.56-1.74-.06l-.57-.09c-1.35,1.35-1.33,3.58-1.28,5.37.58,1.21,2.87,1.16,3.54,2.3l-2.43-.08c-1.68.09-1.69-.12-2.47.75.27-1.09-1.89-.39-2.75-.65a1.59,1.59,0,0,0-.63,0c0-.59-.11-1.18.12-1.42a11.25,11.25,0,0,0-.69-4.37.26.26,0,0,1-.17-.11,1,1,0,0,0-.48-.38c-.85,0-1.72.11-2.61.17a3,3,0,0,0-1,.88c-.66,2.12-.21,4.34,2.23,5.28a1.56,1.56,0,0,0-.28.13c-.5.09-.6.31-1,0a.78.78,0,0,0,0-.11l-.54-.05a17.83,17.83,0,0,0-4,.19c-.29.26-1.22,0-1.72,0s-.28-.68-.29-1.13c1,.24,1.08-.24,1.54-.44a5.51,5.51,0,0,0,.94-3.32.19.19,0,0,1-.09-.17,1.21,1.21,0,0,0-.44-.86,4.76,4.76,0,0,0-4.13,0c-1.32-.08-1.58.75-1.82,1.61-1.12,1.11.14,2.74-.22,4.18.8-.05,1.3.11,1.36.6h-.35c-1.33.22-2.76.35-4.17.5,0-.28,0-.76,0-.83a1.19,1.19,0,0,0,.29-.12.19.19,0,0,1,0-.19,3.75,3.75,0,0,0,.79-1.93.21.21,0,0,1,.16-.2,3.57,3.57,0,0,0,.45-1.58,2.47,2.47,0,0,0-.95-1.3.2.2,0,0,1-.16-.09L453,6.73c-1.21.36-1.9.06-3,.24a3.92,3.92,0,0,0-.7,6.81c-.29.06-.58.11-.87.14a20.71,20.71,0,0,1-3.26-.53v4.17c4.07-.45,9.46-1.37,12.11-1.09h.35a80.84,80.84,0,0,0,11.39,1.78,8,8,0,0,0,4.17.14h.69a68.59,68.59,0,0,0,10.44.08l.69,0c8-.11,13.29-.25,21.22.16V19c1.21-.44,2,.28,3.82.13,2.84.43,3.93-.49,5.92-.08.84-.14,2.5.44,2.79-.18l1.74.06,2.08.07c.09-.21,0-.55.38-.55,0,.17,0,.33.33.29a18,18,0,0,0,4.18-.14c2.48.33,3.71.07,6.6.22,2.17-.24,5,.12,7-.32h.35c-.27.44,1.61.51,1.39,0l.69,0a9.48,9.48,0,0,1,2.78.1h.35l2.08.07c.27-.05.69,0,.71-.25a8.18,8.18,0,0,0,4.17.14H554c2.81.25,5.33-.45,8.37-.27v-.28h.35c2.8-.22,11.54.7,14.3-.63.05.1-.38.55-.38.55,3,.71,6.89.15,9.74.05,5.33-.18,10.65-.16,16.37-.28h.35c7.34.47,11-.17,18,.43-.07.5.31.66,1,.59h.35v.28c1.35-.12,5-1.2,4.26-.06,5.59.81,8.17,1.67,13.19.73,3.4.3,9.58.31,13.26-.67-.17,0,5.14-.61,5.55-.61,9.28-.13,10.42-.38,17.18-.69V13.38A20,20,0,0,1,674,12.12Z"/><path class="cls-1" d="M669.2,11.64h-.35a1,1,0,0,0-1.07-.53c-.34-1.37-.59-2.3.54-3.08h.35c.16-.42.48-.72.64-1.14a9.4,9.4,0,0,1,2.11.49l0,.56a15.42,15.42,0,0,1,1.81,1.34,4.23,4.23,0,0,1,2.89,2.14c.07.33.65.61,0,.84l0,.56h.35c1.76-.08,3.55-.18,4.54.41a.41.41,0,0,0,.32-.57,16.5,16.5,0,0,0-2.21-2.44c-.25-.75-1.49-.65-1.47-1.63.27-.79,1.69-.72,1.65-1.73,3.68-.2,6.81,2.29,3.68,4.07,0,.86-.91,1.11-1.3,1.71,1,1.1,4.81-.34,6,1.21a2.69,2.69,0,0,1,1.72-.33v.28c.35,0,.4-.24.68-.3.09.21,0,.55.37.55.07-.22,0-.55.32-.57.21.45,1.12.28,1.93.2,0-2.27-3.19-1.8-3.71-3.64.77-.46.63-.6.28-1.4,1.75.4,1.06-1,2.39-.91,4.14.21,5.91,4.4,2.6,5.93.81,0,1,.45,2.09.21.15-.39,2.31-.09,2.79.19,1.6-.34,3,.42,3.82-.12a4.88,4.88,0,0,0-2.95-3.26c-1.59,0-1.88-2.29-1.54-3-.82-.17.82-1.34-.08-1.67.86-.06,1-.56,1.74-.05.55,0,.24-.72,1-.59.07-.22,0-.55.32-.57.6,1,3.44.11,3.56,1.56,3,1.39,2,6.07-.33,7.27v.28c.38.37,2.08.76,1,0,4.61-.2,4.95-.54,9.34-1.13,0-.28-.3-.32-.38-.55-.09-.41-.85-.23-1.4-.23.67-1-.67-1.11-.47-2.5-.21,0-.41,0-.36-.27h-.35a24.39,24.39,0,0,0-2.85-1.3l-.06-1.11c-.87-.72.2-1.64,1.67-1.45-.28-.74.69-.56,1-.87a.41.41,0,0,0,.32-.57c1.42.24,1.59-.24,2.46.48a2.1,2.1,0,0,0,1,.42,19,19,0,0,1,2.34,3.65h0l0,.56c.44.86-.51.69-.64,1.14-.11.91-1.11,1.14-1.65,1.73-.42,1.74,5-.18,5.54-.46l-.06-1.11a2.14,2.14,0,0,1-1.81-1.34l-.22.06a9.29,9.29,0,0,1,.82-5.78c.57,0,1-.2,1.21.08,1.7.36,3.76.41,4.6,1.53,1.4,1.83.26,4.51-1.79,5.92.16.48-.48.73,0,.84,3.24-.07,4.43.07,6.62.07,1.15-.63,1.83,0,3.11-.38a7.1,7.1,0,0,0,2.44.2c-1.32-1.37-.61-3.3-3.65-3.51-.18-.67.6-.63.28-1.4h0a7.8,7.8,0,0,0,.23-.81,3.15,3.15,0,0,0,.76-1.18c3.24.45,5.62.1,6.74,2.58-.19,1.29-1.57,1.7-1.58,3.12a2.31,2.31,0,0,0-1.38.32c0,.17,0,.33-.33.29l0,.56c4.2-.53,6,.2,10.07-.32,1.17-.33-1-.06-.39-.82-.35,0-.42-.21-.71-.26,0-1.68-1.58-1.92-2.24-3h-.35c-1.22-.1-.6-1.8-.84-2.76.26-1-.11-.91.61-1.69a11.84,11.84,0,0,1,6.29.64.47.47,0,0,0,.16.2,18.3,18.3,0,0,1,1.84,3.91,18.91,18.91,0,0,0-1,1.72c-.07.22,0,.55-.32.57-.06.4-.55.49-.65.86h-.35c0,.46-1,.19-1,.59l2.08-.07a8,8,0,0,1,2.79.19c.81.15,2.13.49,2.78-.09a8.65,8.65,0,0,0-1.51-2.46,11.08,11.08,0,0,0-1.54-1.57,4.92,4.92,0,0,1,.63-4c.62-.24,1.15-.44,1.68-.06a14.19,14.19,0,0,0,3.43.69A7.4,7.4,0,0,1,760,5.81a6.09,6.09,0,0,1,.31,1.11,5,5,0,0,0-.8,2.13c.2,1.31-2.32.61-2,2,2.2,0,3.93-.25,7.29-.23.39-1.11-1-.64-1.11-1.36-1-.71-1.2-2.1-2.3-2.73a5.24,5.24,0,0,1-1-2.15,14,14,0,0,1,.05-3,2.51,2.51,0,0,1,.77-.67c.49,1.22,2.92-1.37,3.79-.68-.36.36.42.8.42,1.38h.35a4.61,4.61,0,0,0,2.39-.07,4,4,0,0,1,.6.26,2.22,2.22,0,0,1-.19.29,2.84,2.84,0,0,1,.9,4.16c.1,1.95-1.29,2.8-2.6,3.71v.56c.08.61.91.57,1.77.5,2.94.22,5.26-.64,7,.34-.37-1,1.81-.56,2.07-.34,0-.33-.1-.79.3-.85-.42-1.48-.78-3-2.6-3.27s.17-1.57-.81-2.21A4.16,4.16,0,0,1,777,4a14.32,14.32,0,0,1,5.61.94c.85,2.21-.58,4.4-2.51,5.38v.28c-.21,0-.41.05-.33.29,4.42.52,5.87.34,11.49.19a3.18,3.18,0,0,1-.13-2.51c-1-.42-2.22-.59-2.18-1.88h-.32c0-.27-.11-.55-.16-.82a4.56,4.56,0,0,1,.7-1.41c.32-.45.72-1.31,1.33-1.52.39-.13.53-.17.78-.28,1,.07,2.07.14,3.16.15.27.06.53.14.8.22a7.76,7.76,0,0,1,1.3,4s0,.08,0,.12c-.11.33-.28.64-.38,1H796c.29.93-.67.94-1,1.43v.28a2.19,2.19,0,0,0-1.67,1.45c1-.72,2.32-.2,3.31-.43a11.34,11.34,0,0,0,4.15.18l0,0a1.57,1.57,0,0,0,0-1.46c.05-2,.36-3.93,2-5.39l.08.09h.35c.35,0,.42.21.71.26a2.8,2.8,0,0,1,1.66-.35,3.42,3.42,0,0,1,.37.38,10.59,10.59,0,0,0,.6,3.79c-1.06-.07-.67.93-1,1.43.08.64-.48.8-1,1a18.9,18.9,0,0,0,6-.3c-.07-.76.55-.58-.06-1.11-.11-.52.36-.63.29-1.13-1.08-.26-2.4-1.41-1.52-2.46-.21,0-.41,0-.36-.27a1.42,1.42,0,0,1-.45-1.94c0-.93.27-2.7.84-3.07l.25-.07.15,0c-.09.48,1,.18,2-.21a7.94,7.94,0,0,1,1.3.21c.48.79,1.45.94,1.28,1.81.79,0,1.55-.15,2.28-.21a5.36,5.36,0,0,1,.58.85,4.27,4.27,0,0,1,.42,2.33c-.6,2.69-2.33,4.53-6,4.93,3,1,7.54.58,11.4.84a5.73,5.73,0,0,1-.25-2.15,2.24,2.24,0,0,0-.64-.42,10,10,0,0,1-.22-1.29h0c0-.62.15-1.85.94-2.19,1.67.27,2.36,1.69,3.92.43,1.43,1.47.8,4.1-.4,5.74,1.56-.69,4.86.43,6.48-.8-.41,0-.4-.43-.39-.82,0-.76-.61-.54-.06-1.11a17.22,17.22,0,0,1-2.29-4.11V4a3.22,3.22,0,0,1-.18-1,4.69,4.69,0,0,1,1.4-1.87,3.24,3.24,0,0,1,2.48.27c.09.5.82.74,1.83.86a7.36,7.36,0,0,1,3.1,3.58c.19,1.24-.21,2.41-2.15,2.45.29.75-.66.58-.64,1.14v.28c.08,1-2.11.23-2,1.18a22.89,22.89,0,0,1,7.31,0c1.53-.45.28-1.36.93-2.26-.27-.05-.68,0-.71-.26-.69-.31-1.94-.89-1.12-1.64-.42,0-.23-.3,0-.56a3.15,3.15,0,0,1-.28-.42V5.68a5.17,5.17,0,0,1,1.09-3.2l.4,0a.79.79,0,0,1-.21-.27l.3-.3c.59-.06,1.76.29,1.67.79a2.58,2.58,0,0,0,2,.4,4.3,4.3,0,0,1,2,1.55c.44,2.55-.28,4.94-1.5,6.07,1.33.4,3.67-.09,4.89.4h.69l0-.56c.24-1.37-1.21-1.27-.83-2.76l0-.56a.4.4,0,0,0-.1-.45A5,5,0,0,1,851,5.5a6.19,6.19,0,0,0,.42-.84l.08.06V4.44a2,2,0,0,0,.07-.38c.08-.15.23-.24.58-.19.46.57-.24.41,1.41.23l0,.56c1.46-.3,1.42.68,2.68.55a2.32,2.32,0,0,1,.9.94,2.07,2.07,0,0,1,0,.35h.18a5.05,5.05,0,0,1,.06,3.59A14.68,14.68,0,0,1,855,11.31a50.65,50.65,0,0,0,6.63.35,8.61,8.61,0,0,0-.5-3.05h-.06a7.87,7.87,0,0,1-.67-2.07,16.65,16.65,0,0,1,.84-2.14h0a1,1,0,0,1,0-.12v0c0-.1.1-.18.31-.15a2.35,2.35,0,0,1,2.81.47c1.12.13,1-.56,1.74-.05l.57-.08C868,5.81,868,8,868,9.83c-.59,1.2-2.87,1.15-3.54,2.3l2.43-.08c1.68.09,1.69-.12,2.47.76-.27-1.09,1.89-.39,2.75-.64a1.59,1.59,0,0,1,.63,0c0-.59.12-1.18-.11-1.42a11.24,11.24,0,0,1,.7-4.37.25.25,0,0,0,.17-.11,1,1,0,0,1,.48-.37c.85,0,1.72.12,2.61.18a3,3,0,0,1,1,.88c.65,2.12.2,4.34-2.24,5.27a1.38,1.38,0,0,1,.28.14c.5.09.6.31,1,0a.8.8,0,0,1,0-.11,5.17,5.17,0,0,0,.54-.05,17.89,17.89,0,0,1,4,.2c.29.26,1.22,0,1.72,0s.29-.68.29-1.13c-1,.24-1.08-.24-1.54-.44a5.51,5.51,0,0,1-.93-3.32.19.19,0,0,0,.09-.17,1.22,1.22,0,0,1,.44-.86,4.77,4.77,0,0,1,4.13,0c1.32-.08,1.58.76,1.82,1.62,1.12,1.11-.15,2.74.21,4.18-.79-.05-1.3.11-1.36.6h.35c1.33.22,2.76.36,4.17.51,0-.28,0-.76,0-.83a1.19,1.19,0,0,1-.29-.13.19.19,0,0,0,0-.19,3.75,3.75,0,0,1-.78-1.93.21.21,0,0,0-.16-.2,3.57,3.57,0,0,1-.45-1.58,2.47,2.47,0,0,1,.95-1.3.2.2,0,0,0,.16-.09L890.2,7c1.2.36,1.9.06,3,.25a3.92,3.92,0,0,1,.68,6.81c.29.06.58.11.87.15a20.69,20.69,0,0,0,3.27-.53v4.17c-4.07-.46-9.45-1.39-12.1-1.12h-.35a80.68,80.68,0,0,1-11.39,1.76,8,8,0,0,1-4.17.13h-.69a68.45,68.45,0,0,1-10.44.05l-.69,0c-8-.13-13.29-.28-21.22.12v.28c-1.21-.45-2,.28-3.82.12-2.84.43-3.93-.5-5.92-.09-.84-.14-2.5.43-2.79-.19l-1.74.05-2.08.07c-.09-.22,0-.55-.38-.55,0,.17,0,.33-.33.29a18,18,0,0,1-4.18-.15c-2.48.33-3.71.06-6.6.21-2.17-.24-5,.11-7-.34h-.35c.27.44-1.62.5-1.39,0l-.7,0a9.43,9.43,0,0,0-2.78.09h-.35l-2.08.07c-.27-.05-.69,0-.71-.26a8.19,8.19,0,0,1-4.17.13h-.35c-2.82.24-5.33-.47-8.36-.29l0-.28h-.35c-2.8-.22-11.55.67-14.3-.66-.05.1.38.55.38.55-3,.71-6.89.13-9.74,0-5.33-.19-10.65-.19-16.37-.32h-.35c-7.34.45-11-.19-18,.39.07.5-.31.66-1,.59h-.35V19c-1.35-.12-5-1.21-4.26-.06-5.59.8-8.17,1.65-13.19.7-3.4.29-9.58.29-13.26-.7.17,0-5.14-.62-5.55-.62-9.28-.15-10.42-.41-17.18-.73V13.18a20.3,20.3,0,0,0,1.84-1.26Z"/><path class="cls-1" d="M1117.32,12.89h.35a1,1,0,0,1,1.07-.52c.35-1.36.59-2.3-.53-3.09h-.35c-.16-.42-.48-.72-.64-1.14a9.43,9.43,0,0,0-2.11.49l0,.56a15.42,15.42,0,0,0-1.81,1.33,4.23,4.23,0,0,0-2.9,2.13c-.07.33-.65.61,0,.84l0,.56H1110c-1.76-.08-3.55-.19-4.55.4a.42.42,0,0,1-.32-.57,16.49,16.49,0,0,1,2.22-2.43c.25-.75,1.49-.64,1.48-1.62-.26-.79-1.69-.72-1.65-1.73-3.68-.21-6.82,2.28-3.69,4.06,0,.86.91,1.11,1.3,1.72-1,1.1-4.81-.35-6,1.19a2.68,2.68,0,0,0-1.72-.34V15c-.35,0-.4-.24-.68-.3-.09.21,0,.55-.38.55-.07-.22,0-.55-.32-.57-.21.45-1.12.27-1.93.19,0-2.27,3.2-1.8,3.72-3.64-.77-.46-.63-.6-.27-1.4-1.75.39-1.06-1-2.39-.92-4.14.2-5.93,4.38-2.61,5.92-.81,0-1,.44-2.09.21-.15-.39-2.31-.09-2.79.19-1.6-.35-3,.41-3.82-.13a4.88,4.88,0,0,1,3-3.25c1.59,0,1.88-2.29,1.55-3,.82-.17-.82-1.34.09-1.67-.86-.06-1-.56-1.74-.06-.55,0-.24-.72-1-.59-.07-.22,0-.55-.32-.57-.6,1-3.44.1-3.56,1.55-3,1.38-2,6.06.32,7.27V15c-.38.37-2.08.76-1,0-4.61-.21-4.94-.55-9.34-1.15,0-.28.3-.32.38-.54.09-.41.85-.23,1.4-.23-.66-1,.67-1.1.48-2.5.21,0,.41,0,.36-.27h.35a24.38,24.38,0,0,1,2.85-1.3l.06-1.11c.87-.72-.19-1.64-1.66-1.45.28-.74-.69-.56-1-.87a.42.42,0,0,1-.32-.57c-1.42.24-1.59-.24-2.46.47a2.09,2.09,0,0,1-1,.41,19.18,19.18,0,0,0-2.35,3.65h0l0,.56c-.44.86.51.69.64,1.14.1.91,1.11,1.15,1.65,1.73.42,1.75-5-.19-5.54-.47l.06-1.11a2.14,2.14,0,0,0,1.81-1.33l.22.06a9.28,9.28,0,0,0-.8-5.78c-.57,0-1-.2-1.21.08-1.71.36-3.76.41-4.6,1.52-1.4,1.82-.27,4.51,1.78,5.92-.16.47.48.73,0,.84-3.24-.07-4.43.06-6.61.06-1.15-.64-1.83,0-3.11-.39a7,7,0,0,1-2.45.2c1.32-1.37.62-3.3,3.66-3.5.18-.67-.6-.63-.27-1.41h0a7.58,7.58,0,0,1-.23-.81,3.12,3.12,0,0,1-.76-1.18c-3.25.44-5.62.08-6.75,2.56.18,1.29,1.57,1.7,1.58,3.12a2.31,2.31,0,0,1,1.37.33c0,.17,0,.33.33.29l0,.56c-4.2-.54-6,.19-10.08-.34-1.17-.34,1-.05.39-.82.35,0,.42-.21.71-.26,0-1.68,1.59-1.91,2.24-3h.35c1.22-.1.61-1.8.84-2.76-.26-1,.11-.91-.61-1.69a11.81,11.81,0,0,0-6.29.62.46.46,0,0,1-.16.2,18.29,18.29,0,0,0-1.85,3.91,18.91,18.91,0,0,1,1,1.72c.07.22,0,.55.32.57.06.4.55.49.65.86h.35c0,.46,1,.19,1,.59l-2.08-.07a8,8,0,0,0-2.79.18c-.8.15-2.13.48-2.78-.1a8.65,8.65,0,0,1,1.52-2.46,11.1,11.1,0,0,1,1.55-1.57,4.92,4.92,0,0,0-.62-4c-.62-.24-1.15-.45-1.68-.07a14.09,14.09,0,0,1-3.44.68,7.46,7.46,0,0,0-1.18,2.08A6.2,6.2,0,0,0,1026.2,8a5,5,0,0,1,.79,2.13c-.2,1.31,2.32.61,2,2-2.2,0-3.93-.26-7.3-.25-.39-1.11,1-.64,1.12-1.36,1-.71,1.21-2.1,2.3-2.72a5.26,5.26,0,0,0,1-2.14,14.05,14.05,0,0,0,0-3,2.52,2.52,0,0,0-.77-.68c-.49,1.22-2.92-1.38-3.79-.69.36.36-.42.8-.42,1.38h-.35a4.58,4.58,0,0,1-2.39-.08,4.06,4.06,0,0,0-.61.26,2.55,2.55,0,0,0,.19.29,2.84,2.84,0,0,0-.91,4.15c-.1,1.95,1.28,2.8,2.59,3.72v.56c-.08.61-.91.57-1.77.5-2.94.21-5.26-.65-7,.32.37-1-1.81-.57-2.07-.35,0-.33.1-.79-.3-.85.42-1.48.79-3,2.61-3.26s-.17-1.57.81-2.2a4.16,4.16,0,0,0-2.4-.64,14.33,14.33,0,0,0-5.62.93c-.85,2.21.58,4.4,2.5,5.39v.28c.21,0,.41.05.33.29-4.42.51-5.87.33-11.49.17a3.18,3.18,0,0,0,.13-2.51c1-.42,2.22-.59,2.19-1.88h.32c0-.27.11-.54.16-.82a4.59,4.59,0,0,0-.7-1.42C997,5,996.61,4.19,996,4c-.39-.14-.53-.17-.78-.28-1,.07-2.07.14-3.16.15-.27.06-.53.14-.8.22a7.75,7.75,0,0,0-1.31,4s0,.08,0,.11c.11.33.28.64.38,1h.15c-.29.93.67.94,1,1.43v.28a2.19,2.19,0,0,1,1.66,1.45c-.95-.72-2.32-.2-3.3-.43a11.34,11.34,0,0,1-4.16.17l0,0a1.57,1.57,0,0,1,0-1.46c0-2-.35-3.93-2-5.39l-.08.09h-.35c-.35,0-.42.21-.71.26a2.78,2.78,0,0,0-1.65-.35,3.43,3.43,0,0,0-.37.38,10.52,10.52,0,0,1-.61,3.79c1.06-.07.67.93,1,1.43-.09.64.48.8,1,1a18.89,18.89,0,0,1-6-.32c.07-.76-.55-.58.06-1.11.11-.52-.36-.63-.29-1.13,1.08-.26,2.4-1.41,1.52-2.46.21,0,.41,0,.36-.27a1.42,1.42,0,0,0,.45-1.94c0-.93-.27-2.7-.83-3.07l-.25-.07-.15,0c.09.48-1,.17-2-.22a8,8,0,0,0-1.3.21c-.48.78-1.46.94-1.28,1.81-.79,0-1.55-.15-2.28-.22a5.19,5.19,0,0,0-.58.85,4.27,4.27,0,0,0-.43,2.33c.59,2.69,2.32,4.54,6,4.94-3,1-7.54.57-11.4.81a5.71,5.71,0,0,0,.26-2.15,2.25,2.25,0,0,1,.64-.41,9.7,9.7,0,0,0,.22-1.29h0c0-.62-.15-1.85-.93-2.2-1.67.26-2.37,1.69-3.92.43-1.44,1.47-.8,4.1.39,5.74-1.56-.69-4.86.42-6.48-.81.41,0,.4-.43.39-.82,0-.76.61-.54.06-1.11a17.39,17.39,0,0,0,2.3-4.11V4.91a3.23,3.23,0,0,0,.18-1A4.71,4.71,0,0,0,955.07,2a3.26,3.26,0,0,0-2.48.27c-.09.5-.82.73-1.83.85a7.35,7.35,0,0,0-3.11,3.58c-.2,1.24.2,2.41,2.14,2.45-.29.75.66.58.64,1.14v.28c-.08,1,2.11.23,2,1.19a22.89,22.89,0,0,0-7.31,0c-1.53-.45-.28-1.37-.93-2.26.27-.05.69,0,.71-.25.69-.31,1.95-.89,1.13-1.64.42,0,.23-.3,0-.56a3.3,3.3,0,0,0,.29-.42V6.57a5.17,5.17,0,0,0-1.08-3.2l-.4,0a.82.82,0,0,0,.21-.27l-.3-.3c-.59-.07-1.76.29-1.67.79a2.59,2.59,0,0,1-2,.39,4.3,4.3,0,0,0-2,1.54c-.45,2.55.27,4.93,1.49,6.07-1.33.39-3.67-.1-4.89.39H935l0-.56c-.24-1.38,1.22-1.27.84-2.76l0-.56a.4.4,0,0,1,.1-.45,5,5,0,0,0-.51-1.31,6.06,6.06,0,0,1-.42-.84l-.08.06V5.3a2,2,0,0,1-.07-.38c-.08-.15-.24-.24-.58-.19-.46.57.24.41-1.4.23l0,.56c-1.45-.31-1.42.68-2.68.54a2.31,2.31,0,0,0-.9.94,2.08,2.08,0,0,0,0,.35h-.18a5,5,0,0,0-.07,3.59,14.73,14.73,0,0,0,2.43,1.23,50.67,50.67,0,0,1-6.63.33,8.68,8.68,0,0,1,.51-3.05h.06a8,8,0,0,0,.67-2.07,16.52,16.52,0,0,0-.83-2.14h0a1,1,0,0,0,0-.12v0c0-.1-.1-.18-.31-.15a2.35,2.35,0,0,0-2.81.46c-1.12.13-1-.56-1.74-.06l-.57-.09c-1.35,1.35-1.33,3.58-1.28,5.37.58,1.21,2.87,1.16,3.54,2.3l-2.43-.08c-1.68.09-1.69-.12-2.47.75.27-1.09-1.89-.39-2.75-.65a1.63,1.63,0,0,0-.63,0c0-.59-.11-1.19.12-1.42a11.24,11.24,0,0,0-.69-4.37.25.25,0,0,1-.17-.11,1,1,0,0,0-.48-.37c-.85,0-1.72.11-2.61.17a3,3,0,0,0-1,.88c-.66,2.12-.21,4.34,2.23,5.28a1.57,1.57,0,0,0-.28.13c-.5.09-.6.31-1,0a.8.8,0,0,0,0-.11,5.18,5.18,0,0,1-.54-.05,17.76,17.76,0,0,0-4,.19c-.29.26-1.22,0-1.72,0s-.28-.68-.29-1.13c1,.24,1.08-.24,1.54-.43a5.51,5.51,0,0,0,.94-3.32.19.19,0,0,1-.09-.17,1.22,1.22,0,0,0-.44-.86,4.77,4.77,0,0,0-4.13,0c-1.32-.08-1.58.75-1.82,1.61-1.12,1.11.14,2.74-.22,4.18.8-.05,1.3.11,1.36.6h-.35c-1.33.22-2.76.35-4.17.5,0-.28,0-.76,0-.83a1.19,1.19,0,0,0,.29-.13.19.19,0,0,1,0-.19A3.74,3.74,0,0,0,897,11a.21.21,0,0,1,.16-.2,3.59,3.59,0,0,0,.45-1.58,2.47,2.47,0,0,0-.95-1.3.2.2,0,0,1-.16-.09l-.19-.07c-1.21.35-1.9.06-3,.24a3.92,3.92,0,0,0-.7,6.81c-.29.06-.58.11-.87.14a20.37,20.37,0,0,1-3.26-.53v4.17c4.07-.45,9.46-1.37,12.11-1.09H901a81,81,0,0,0,11.39,1.78,8,8,0,0,0,4.17.14h.69a68.74,68.74,0,0,0,10.44.08l.69,0c8-.11,13.29-.25,21.22.16V20c1.21-.44,2,.28,3.82.13,2.84.43,3.93-.49,5.92-.08.84-.14,2.5.44,2.79-.18l1.74.06,2.08.07c.09-.22,0-.55.38-.55,0,.17,0,.33.33.29a18,18,0,0,0,4.18-.14c2.48.33,3.71.06,6.6.22,2.17-.24,5,.12,7-.32h.35c-.27.44,1.61.51,1.39,0l.69,0a9.51,9.51,0,0,1,2.78.09H990l2.08.07c.27-.05.69,0,.71-.26a8.19,8.19,0,0,0,4.17.14h.35c2.81.25,5.33-.45,8.37-.27v-.28h.35c2.8-.22,11.54.7,14.3-.63.05.1-.38.54-.38.54,3,.71,6.89.15,9.74.05,5.33-.18,10.65-.16,16.37-.28h.35c7.34.47,11-.17,18,.43-.07.5.31.66,1,.59h.35v.28c1.35-.12,5-1.2,4.26-.05,5.59.81,8.17,1.67,13.19.73,3.4.3,9.58.31,13.26-.67-.17,0,5.14-.61,5.55-.61,9.28-.13,10.42-.38,17.18-.69V14.44a20.25,20.25,0,0,1-1.84-1.27Z"/><path class="cls-1" d="M1115.4,12.7H1115a1,1,0,0,0-1.07-.52c-.34-1.37-.59-2.3.54-3.09h.35c.16-.42.48-.72.64-1.14a9.28,9.28,0,0,1,2.11.49l0,.56a16,16,0,0,1,1.81,1.34,4.22,4.22,0,0,1,2.89,2.14c.07.33.65.61,0,.84l0,.56h.35c1.76-.08,3.55-.18,4.54.41a.42.42,0,0,0,.32-.57,16.4,16.4,0,0,0-2.21-2.44c-.25-.75-1.49-.65-1.47-1.63.27-.79,1.69-.71,1.65-1.73,3.68-.2,6.81,2.29,3.68,4.07,0,.86-.91,1.11-1.3,1.72,1,1.1,4.81-.34,6,1.2a2.69,2.69,0,0,1,1.72-.33v.28c.35,0,.4-.24.68-.3.09.21,0,.55.37.55.07-.22,0-.55.32-.57.21.44,1.12.28,1.93.2,0-2.27-3.19-1.81-3.71-3.64.77-.46.63-.6.28-1.4,1.75.4,1.06-1,2.39-.91,4.14.21,5.91,4.4,2.6,5.93.81,0,1,.45,2.09.21.15-.39,2.31-.09,2.79.19,1.6-.34,3,.42,3.82-.12a4.87,4.87,0,0,0-2.95-3.25c-1.59,0-1.88-2.29-1.54-3-.82-.17.82-1.34-.08-1.67.86-.06,1-.56,1.74-.06.55,0,.24-.72,1-.59.07-.22,0-.55.32-.57.6,1,3.44.11,3.56,1.56,3,1.39,2,6.07-.33,7.26v.28c.38.37,2.08.76,1,0,4.61-.2,4.95-.54,9.34-1.13,0-.28-.3-.32-.38-.55-.09-.41-.85-.23-1.4-.24.67-1-.67-1.1-.47-2.5-.21,0-.41,0-.36-.27h-.35a25.15,25.15,0,0,0-2.85-1.3l-.06-1.11c-.87-.72.2-1.64,1.67-1.45-.28-.74.69-.56,1-.87a.41.41,0,0,0,.32-.57c1.42.24,1.59-.24,2.46.48a2.12,2.12,0,0,0,1,.41,19,19,0,0,1,2.34,3.65h0l0,.56c.44.86-.51.69-.64,1.14-.11.91-1.11,1.14-1.65,1.73-.42,1.74,5-.18,5.54-.46l-.06-1.11a2.14,2.14,0,0,1-1.81-1.34l-.22.06a9.29,9.29,0,0,1,.82-5.78c.57,0,1-.2,1.21.08,1.7.36,3.76.41,4.6,1.53,1.4,1.83.26,4.51-1.79,5.92.16.48-.48.73,0,.84,3.24-.07,4.43.07,6.62.07,1.15-.63,1.83,0,3.11-.38a7.1,7.1,0,0,0,2.44.2c-1.32-1.37-.61-3.3-3.65-3.51-.18-.66.6-.63.28-1.4h0a8.13,8.13,0,0,0,.23-.81,3.17,3.17,0,0,0,.76-1.18c3.24.45,5.62.09,6.74,2.57-.19,1.29-1.57,1.7-1.58,3.12a2.29,2.29,0,0,0-1.38.32c0,.17,0,.33-.33.29l0,.56c4.2-.53,6,.2,10.07-.32,1.17-.34-1-.06-.39-.82-.35,0-.42-.21-.71-.26,0-1.68-1.58-1.92-2.24-3H1190c-1.22-.1-.6-1.8-.84-2.76.26-1-.11-.91.61-1.7a11.84,11.84,0,0,1,6.29.64.46.46,0,0,0,.16.19A18.37,18.37,0,0,1,1198,8.38a18.57,18.57,0,0,0-1,1.72c-.07.22,0,.55-.32.57-.06.4-.55.49-.65.86h-.35c0,.46-1,.19-1,.59l2.08-.07a8.1,8.1,0,0,1,2.79.19c.81.15,2.13.49,2.78-.09a8.62,8.62,0,0,0-1.51-2.46,11,11,0,0,0-1.54-1.57,4.92,4.92,0,0,1,.63-4c.62-.24,1.15-.44,1.68-.07a14,14,0,0,0,3.43.69,7.43,7.43,0,0,1,1.18,2.08,6.14,6.14,0,0,1,.31,1.11,5,5,0,0,0-.8,2.13c.2,1.31-2.32.6-2,2,2.2,0,3.93-.25,7.29-.23.39-1.11-1-.64-1.11-1.36-1-.71-1.2-2.11-2.3-2.73a5.25,5.25,0,0,1-1-2.14,14.05,14.05,0,0,1,.05-3,2.54,2.54,0,0,1,.77-.67c.49,1.22,2.92-1.37,3.79-.68-.36.36.42.8.42,1.38h.35a4.58,4.58,0,0,0,2.39-.07,4.24,4.24,0,0,1,.6.26,2.22,2.22,0,0,1-.19.29,2.85,2.85,0,0,1,.9,4.16c.1,1.95-1.29,2.8-2.6,3.71v.56c.08.61.91.57,1.77.5,2.94.22,5.26-.64,7,.34-.37-1,1.81-.57,2.07-.34,0-.33-.1-.79.3-.85-.42-1.48-.78-3-2.6-3.27s.17-1.57-.81-2.21a4.16,4.16,0,0,1,2.4-.63,14.24,14.24,0,0,1,5.61.94c.85,2.21-.58,4.4-2.51,5.38v.28c-.21,0-.41.06-.33.29,4.42.52,5.87.34,11.49.19a3.17,3.17,0,0,1-.13-2.51c-1-.42-2.22-.59-2.18-1.88h-.32c0-.27-.11-.54-.16-.82a4.58,4.58,0,0,1,.7-1.41c.32-.45.72-1.31,1.33-1.52.39-.13.53-.17.78-.28,1,.07,2.07.14,3.16.15.27.06.53.15.8.23a7.75,7.75,0,0,1,1.3,4s0,.08,0,.12c-.11.33-.28.64-.38,1h-.15c.29.93-.67.94-1,1.43v.28a2.19,2.19,0,0,0-1.67,1.45c1-.72,2.32-.2,3.31-.42a11.38,11.38,0,0,0,4.15.18l0,0a1.57,1.57,0,0,0,0-1.46c.05-2,.36-3.93,2-5.39l.08.09h.35c.35,0,.42.21.71.26a2.8,2.8,0,0,1,1.66-.35,3.63,3.63,0,0,1,.37.38,10.61,10.61,0,0,0,.6,3.79c-1.06-.07-.67.93-1,1.43.08.64-.48.8-1,1a18.83,18.83,0,0,0,6-.3c-.07-.76.55-.58-.06-1.11-.11-.52.36-.63.29-1.13-1.08-.26-2.4-1.41-1.52-2.46-.21,0-.41,0-.36-.27a1.43,1.43,0,0,1-.45-1.94c0-.93.27-2.69.84-3.07l.25-.07a.45.45,0,0,1,.15,0c-.09.48,1,.17,2-.22a7.94,7.94,0,0,1,1.3.21c.48.79,1.45.95,1.28,1.81.79,0,1.55-.15,2.28-.21a5.46,5.46,0,0,1,.58.85,4.28,4.28,0,0,1,.42,2.33c-.6,2.68-2.33,4.53-6,4.93,3,1,7.54.58,11.4.84a5.72,5.72,0,0,1-.25-2.15,2.2,2.2,0,0,0-.64-.42,10,10,0,0,1-.22-1.28h0c0-.62.15-1.85.94-2.19,1.67.27,2.36,1.69,3.92.43,1.43,1.47.8,4.1-.4,5.74,1.56-.69,4.86.43,6.48-.8-.41,0-.4-.43-.39-.82,0-.76-.61-.54-.06-1.11a17.25,17.25,0,0,1-2.29-4.11V5.07a3.2,3.2,0,0,1-.18-1,4.72,4.72,0,0,1,1.4-1.87,3.25,3.25,0,0,1,2.48.27c.09.5.82.74,1.83.86a7.37,7.37,0,0,1,3.1,3.58c.19,1.24-.21,2.41-2.15,2.45.29.75-.66.58-.64,1.13v.28c.08,1-2.11.23-2,1.18a22.82,22.82,0,0,1,7.31,0c1.53-.45.28-1.37.93-2.26-.27-.05-.68,0-.71-.26-.69-.31-1.94-.89-1.12-1.64-.42,0-.23-.3,0-.56a3.31,3.31,0,0,1-.28-.42V6.74a5.18,5.18,0,0,1,1.09-3.2l.4,0a.79.79,0,0,1-.21-.27l.3-.3c.59-.06,1.76.29,1.67.79a2.59,2.59,0,0,0,2,.4,4.27,4.27,0,0,1,2,1.55c.44,2.55-.28,4.93-1.5,6.07,1.33.39,3.67-.09,4.89.4h.69l0-.56c.24-1.37-1.21-1.27-.83-2.76l0-.56a.4.4,0,0,0-.1-.45,5,5,0,0,1,.51-1.31,6.35,6.35,0,0,0,.42-.84l.08.06V5.5a2,2,0,0,0,.07-.38c.08-.15.23-.25.58-.2.46.57-.24.41,1.41.23l0,.56c1.46-.3,1.42.68,2.68.55a2.29,2.29,0,0,1,.9.94,2,2,0,0,1,0,.35h.18a5,5,0,0,1,.06,3.59,14.87,14.87,0,0,1-2.43,1.22,50.65,50.65,0,0,0,6.63.35,8.63,8.63,0,0,0-.5-3.05h-.06a7.82,7.82,0,0,1-.67-2.07,16.62,16.62,0,0,1,.84-2.14h0a.91.91,0,0,1,0-.12v0c0-.1.1-.18.31-.15a2.35,2.35,0,0,1,2.81.47c1.12.13,1-.56,1.74-.06l.57-.08c1.34,1.36,1.32,3.59,1.27,5.38-.59,1.21-2.87,1.15-3.54,2.3l2.43-.08c1.68.09,1.69-.12,2.47.76-.27-1.09,1.89-.39,2.75-.65a1.59,1.59,0,0,1,.63,0c0-.59.12-1.18-.11-1.42a11.24,11.24,0,0,1,.7-4.37.25.25,0,0,0,.17-.11,1,1,0,0,1,.48-.38l2.61.18a3,3,0,0,1,1,.88c.65,2.12.2,4.34-2.24,5.27a1.51,1.51,0,0,1,.28.14c.5.09.6.32,1,0a.8.8,0,0,1,0-.11l.54-.05a17.75,17.75,0,0,1,4,.19c.29.26,1.22,0,1.72,0s.29-.68.29-1.13c-1,.24-1.08-.24-1.54-.44a5.53,5.53,0,0,1-.93-3.32.19.19,0,0,0,.09-.17,1.21,1.21,0,0,1,.44-.86,4.77,4.77,0,0,1,4.13,0c1.32-.08,1.58.76,1.82,1.61,1.12,1.11-.15,2.74.21,4.18-.79-.05-1.3.11-1.36.6h.35c1.33.22,2.76.36,4.17.51,0-.28,0-.76,0-.83a1.11,1.11,0,0,1-.29-.12.19.19,0,0,0,0-.19,3.75,3.75,0,0,1-.78-1.93.21.21,0,0,0-.16-.2,3.57,3.57,0,0,1-.45-1.58,2.47,2.47,0,0,1,.95-1.3.19.19,0,0,0,.16-.09l.19-.08c1.2.36,1.9.06,3,.25a3.92,3.92,0,0,1,.68,6.81c.29.06.58.11.87.15a20.69,20.69,0,0,0,3.27-.53v4.17c-4.07-.45-9.45-1.39-12.1-1.11h-.35a81,81,0,0,1-11.39,1.76,8,8,0,0,1-4.17.13h-.69a68.45,68.45,0,0,1-10.44.05l-.69,0c-8-.13-13.29-.28-21.22.12v.28c-1.21-.44-2,.28-3.82.12-2.84.42-3.93-.5-5.92-.09-.84-.14-2.5.43-2.79-.19l-1.74.06-2.08.07c-.09-.21,0-.55-.38-.55,0,.17,0,.33-.33.29a18,18,0,0,1-4.18-.15c-2.48.33-3.71.06-6.6.21-2.17-.24-5,.11-7-.34H1248c.27.44-1.62.5-1.39,0l-.7,0a9.51,9.51,0,0,0-2.78.09h-.35l-2.08.07c-.27-.05-.69,0-.71-.26a8.19,8.19,0,0,1-4.17.13h-.35c-2.82.24-5.33-.47-8.36-.29l0-.28h-.35c-2.8-.22-11.55.67-14.3-.66-.05.1.38.55.38.55-3,.71-6.89.13-9.74,0-5.33-.19-10.65-.19-16.37-.32h-.35c-7.34.45-11-.19-18,.39.07.5-.31.66-1,.59H1167v.28c-1.35-.13-5-1.21-4.26-.06-5.59.79-8.17,1.65-13.19.7-3.4.29-9.58.29-13.26-.69.17,0-5.14-.62-5.55-.62-9.28-.15-10.42-.41-17.18-.73V14.24a20.36,20.36,0,0,0,1.84-1.26Z"/></g></g></svg>