<svg xmlns="http://www.w3.org/2000/svg" viewBox="0 0 139.77 222.14"><defs><style>.cls-1{fill:#fff;}</style></defs><title>Asset 7</title><g id="Layer_2" data-name="Layer 2"><g id="Layer_1-2" data-name="Layer 1"><path class="cls-1" d="M27.68,98.64c-.9-1.94-1.82-3.84-2.66-5.77a127.45,127.45,0,0,1-6.48-19.32A167.74,167.74,0,0,1,14.66,53,143,143,0,0,1,13.5,30.59,81.6,81.6,0,0,1,15.33,15a35.43,35.43,0,0,1,3.06-8.76A14.58,14.58,0,0,1,21.57,2,7.24,7.24,0,0,1,29.67.67,16,16,0,0,1,35,4.56a42.81,42.81,0,0,1,6.42,9,96.18,96.18,0,0,1,7,16.12,156.72,156.72,0,0,1,6.37,26.22,153.47,153.47,0,0,1,1.95,23.46c0,2-.09,4-.13,6,0,.2,0,.4,0,.7a72.14,72.14,0,0,1,29.74.68c0-.33,0-.56,0-.79A133.83,133.83,0,0,1,86.66,65a165.83,165.83,0,0,1,5-28.49,111.18,111.18,0,0,1,7.66-21A52.18,52.18,0,0,1,104.53,7a24,24,0,0,1,4.36-4.52A11.86,11.86,0,0,1,112,.68a6.94,6.94,0,0,1,7.09,1.08,13.33,13.33,0,0,1,3.36,4.11A34.59,34.59,0,0,1,125.8,15a82.24,82.24,0,0,1,2,14.36,113.69,113.69,0,0,1,.1,11.47c-.15,3.51-.43,7-.74,10.51a148.15,148.15,0,0,1-2.4,16.2,133.5,133.5,0,0,1-7.8,26.15c-.81,1.92-1.76,3.78-2.64,5.67l-.32.66c17.46,14.74,26.26,33.28,25.81,55.94-1,19-8.4,35.16-22.67,48.05a70.54,70.54,0,0,1-98.75-4.28C4.55,184.9-1.51,167.23.32,147.21S11.67,111.12,27.68,98.64Z"/></g></g></svg>