<svg xmlns="http://www.w3.org/2000/svg" viewBox="0 0 158.28 252.12"><defs><style>.cls-1{fill:#f4f4f4;}</style></defs><title>Asset 27</title><g id="Layer_2" data-name="Layer 2"><g id="Layer_1-2" data-name="Layer 1"><path class="cls-1" d="M31.11,117.5c.17-.49-.41-.77-1.24.14l0,1.32Z"/><path class="cls-1" d="M23.89,121.8c-.64,1.4-1.13,3.17.17,3.11.27-1.67.74-1.68,1-3.54.79-.94,1.74-1.27,1.85-.86.12-.5,1.51-1.15,1.58-2a7.36,7.36,0,0,0-4.22,3.85C23.84,122.51,23.95,122,23.89,121.8Z"/><path class="cls-1" d="M26.83,230.3l-.5-.62A3.5,3.5,0,0,0,26.83,230.3Z"/><path class="cls-1" d="M98,248.24c-.56.15-.78.3-.79.4C97.7,248.45,98.12,248.29,98,248.24Z"/><path class="cls-1" d="M110.78,245.06l-.74.25A1.32,1.32,0,0,0,110.78,245.06Z"/><path class="cls-1" d="M26.83,230.3c.42.55.89,1,1.34,1.56C28.5,231.7,27.51,231,26.83,230.3Z"/><path class="cls-1" d="M15.68,136.1a4.37,4.37,0,0,0,.33-1c-.14.31-.27.6-.43.9A.9.9,0,0,1,15.68,136.1Z"/><path class="cls-1" d="M6.39,203.8l-.25-.57a3.36,3.36,0,0,0-.58-.32Z"/><path class="cls-1" d="M.36,178.57c0,.59.86.74,1.24.94a1.87,1.87,0,0,1-.66-1.23A.93.93,0,0,0,.36,178.57Z"/><path class="cls-1" d="M9.94,139.26l.24-.69C10.12,138.75,10,139,9.94,139.26Z"/><path class="cls-1" d="M15.75,219.89a.6.6,0,0,0-.09.37C15.75,220.2,15.77,220.06,15.75,219.89Z"/><path class="cls-1" d="M22.17,87.89c-.06,0-.09,0-.14,0C22.15,88.05,22.22,88.08,22.17,87.89Z"/><path class="cls-1" d="M29.61,116.09l-.23-.34a1.84,1.84,0,0,0-.46.14Z"/><path class="cls-1" d="M132,233l-.09.06C131.44,233.57,131.7,233.32,132,233Z"/><path class="cls-1" d="M138.74,34.76c-.48,2.54-1.4-3.9-1.83-.11C137.21,34.27,138.56,37.89,138.74,34.76Z"/><path class="cls-1" d="M15.26,136.58c-.16.29-.33.58-.51.86A5.16,5.16,0,0,0,15.26,136.58Z"/><path class="cls-1" d="M136.91,34.66h0l0,.39Z"/><path class="cls-1" d="M158.26,184.35a1.63,1.63,0,0,0-.46.51C157.89,184.85,158,184.74,158.26,184.35Z"/><path class="cls-1" d="M140.69,221.62l.72-.73A6.52,6.52,0,0,0,140.69,221.62Z"/><path class="cls-1" d="M157.07,162.78a4,4,0,0,0-.18-1.49,1.08,1.08,0,0,0-.06.24A2.05,2.05,0,0,1,157.07,162.78Z"/><path class="cls-1" d="M150.87,141.38c0,.13,0,.29,0,.44l.32.63C151.1,142.1,151,141.73,150.87,141.38Z"/><path class="cls-1" d="M15.31,24.82a3.26,3.26,0,0,1-.92.79C15,25.42,14.73,28.41,15.31,24.82Z"/><path class="cls-1" d="M15.28,135.86a.76.76,0,0,1,0,.72l.32-.62C15.51,135.84,15.42,135.77,15.28,135.86Z"/><path class="cls-1" d="M150.35,162.88l-.41-3.24C150,160.56,150.15,161.73,150.35,162.88Z"/><path class="cls-1" d="M92,103l-1.33-.11A4.36,4.36,0,0,0,92,103Z"/><path class="cls-1" d="M147.3,150.38a6.39,6.39,0,0,0-.06-1.93,1.24,1.24,0,0,0-.33-.28Z"/><path class="cls-1" d="M14.38,25.62h0Z"/><path class="cls-1" d="M15.46,47.45c-.14-3.16-1.16-1.44-1.83-2.08-.45-3.81.76-1.79,1.29-3.1-.34-2.35-1.33-4.17-1.23-5.94.19-.13.27-.46.48-.06a14.86,14.86,0,0,1-.17-5,21.82,21.82,0,0,0,0-5.33.82.82,0,0,1,.34-.32,1.75,1.75,0,0,1-1.57.18c.22-1.42-.18-2.77.65-3.14-.21.85.06,1,.2,1.43V22.57c1.31-1.06-.1,2.05.69,2.21.1-1.44.16-3,.37-4.47a9.92,9.92,0,0,1,1.16-3.73c.55,0,.12,1.17-.13,2.09s-.39,1.54.49.36a32.81,32.81,0,0,0-1.33,3c2.19-2-.61,1.89,1.63.1.69-2,1-3.07,1.29-4.16a8.38,8.38,0,0,1,1.81-3.49c0-1-.84-.31-.75-1.3A3.49,3.49,0,0,1,21,11.39a1.84,1.84,0,0,1,1.44.27,7,7,0,0,0,.94.61,3.22,3.22,0,0,0,1.55,0,5.17,5.17,0,0,1,1.66-.59,3.11,3.11,0,0,1,2.53,1.42,13,13,0,0,0-1.48.35,6.33,6.33,0,0,0,2.82,1.4c.66.19,1.36.43,2.54,2.35-.84-.32-2.53-2.11-2.19-1.57.67,1.3,1.09,1.56,1.58,1.68a2.48,2.48,0,0,1,1.71,1l-.51,1A73.51,73.51,0,0,1,42.23,31.4c-.4-.13-1.08-.77-.82.45C44.78,37.48,46.92,44.8,48.27,51l1.57,2.06c.15.55-.08,1.12-.42.58.39,2.47.58,0,1.25,1,.45,1.35,0,1.94-.47,1.15,2,4,4.7,11.78,4.59,16.53l-.42-.84c.31,3.6,2.52,3.7,2.23,7.15L56.33,78c.41,3.91,1,8,1.28,11.87.07,1,.13,1.93.16,2.86l0,.72q0,.5,0,1,0,1,0,2c0,1.3,0,2.58-.11,3.88l-.11,2-.13,2.08c.09,0,.11.14.24.24a15.85,15.85,0,0,1,3.25-1c1.26-.27,2.71-.55,4.13-.79l1.86-.31a9.75,9.75,0,0,0,1-.24c.61-.19,1-.47,1.09-.9a30.18,30.18,0,0,1,4.07.57c1,.2,2.25.29,5.3.55,1.62.07,2.43-1.1,4.49-1.2v.93c.93-.26,1.87-.54,2.82-.77l.68.62c.12.1.21.2.35.31l.61.36c1.13.07,2.16.09,3.29.19-1.41-.28-2.79-.78-2.62-1,.62,0,1.25.07,1.92.15s1.42.23,2.15.38c1.47.29,3,.67,4.4,1.06.11-.13.1-.41.13-.63l.07-.65c0-.41.1-.75.15-1,.11-.58.23-.93.35-.89-.16-1.14-.27-2.22-.46-3.34s-.37-2.2-.51-3.25l-.63-3.65c.38.14.57,1.33.88,2.25-1.17-3.74.91-.74-.12-4.17-.19.48-.56-.23-.75-.3.48-1.77.43-5.72.26-8.68l.63.58c.25-5.31.11-11.22.78-17.17-.52,2.1-1.57,1.5-1.49-.27l1.05-.59c-.47-1.2-.58,1.79-1-.62.38-2.22,1.29-1.36,1.45-.05V58.17c.31-.12.38.53.72.74-.46-1.19,1.62-4.48.85-6.22l.31-.1c1-5.85,1.28-8.58,2.4-13.28-.8-.3-.15-2.09-.4-3.66,1.24-3.37,3.08-6.91,4.6-10.86.75-2.92-.33-1.08-.26-2.52.77.07,2.49-3.74,2.06-1.54,1-2.29,1.74-3.69,2.55-5.22a43.06,43.06,0,0,1,3.44-5.64c-.67.25-1.25.74-1.2.27.63-.95,2-1.57,2.09-1.18l-.15.25a6.72,6.72,0,0,1,3.81-2.68,3.89,3.89,0,0,1,3.57.92,13.37,13.37,0,0,1,2.65,3.35,27.54,27.54,0,0,0,2.52,3.66l-.2-.24a38.16,38.16,0,0,1,2.79,5.07c.64,2.64-1-1.39-.9.67a22.1,22.1,0,0,1,2.32,7.74A52,52,0,0,0,132.05,35c-.9,2.19-.52,5.81-.26,9.63.06,1,.13,1.92.16,2.88s0,1.94,0,2.87a21.51,21.51,0,0,1-.59,5l.54-.31c.5,1.48-.34,1.76-.48,2.84.42-.14.51-1.57.78-.65A82.45,82.45,0,0,1,130.29,76a177.25,177.25,0,0,1-4.85,18.42,5,5,0,0,0,.09,3.9c.29.92.41,2-1.13,4.51L124,101a32.53,32.53,0,0,1-1.43,5.15l-.46,1.27-.71,1.85c-.58,1.49-1.26,3.06-1.89,4.58l5.58,4.48,3.3,2.9c1,1,2.06,1.94,3.11,2.87s2,1.93,3.07,2.84c-.53-.24-.76-.05-1.35-.69a6.69,6.69,0,0,0,1,1.58,16.42,16.42,0,0,0,1.52,1.71c1.09,1,2.08,1.88,2.32,1.72.77,1.16-.24.58,0,1.44a4.8,4.8,0,0,0,.87,1.26c.35.41.73.83,1.11,1.22.74.78,1.4,1.51,1.36,2.11,0,.2-.49-.32-.72-.57,1,.82,2.73,4.94,2.91,3.52a36,36,0,0,0,2.07,4.28,15.56,15.56,0,0,1,1.52,4,7.53,7.53,0,0,1,1.45,3.27c.29,1.25.59,2.34,1.3,2.43-1.3.13.37,5.9,1.24,7.93-.52-.63-.12,1.88-.82,1.14.35,2.36.79,4.54,1.46,4.06a10.66,10.66,0,0,0-.29,3.32c0,.54.11,1.06.2,1.58s.11,1,.18,1.52a13,13,0,0,1,.13,2.76,3.61,3.61,0,0,1-.92,2.17,61.07,61.07,0,0,1-.59,10.39c-.1.84-.23,1.67-.4,2.49s-.31,1.64-.49,2.45c-.42,1.6-.78,3.2-1.32,4.74-.58-.35,0-2,.47-3.68s.83-3.27.12-3.31c-.22,1.5-.48,2.84-.7,4.12s-.49,2.45-.75,3.64a26.17,26.17,0,0,1-2.95,7.3c-.47.64-.49.38-.38-.12s.28-1.25.29-1.53a32,32,0,0,1-2,4.05c-.74,1.28-1.54,2.5-2.34,3.69-1.65,2.35-3.31,4.59-4.84,6.89-.09-.09.2-.63.48-1.12-.67.84-1.79,1.76-1.25,2.08l.57-.91c.9-.36.56.75,0,2s-1.45,2.65-1.34,2.9c0-1.3-1-.35-2,.39s-2,1.31-1.67-.49c-.43.57-.88,1.4-.48,1.59-.85.65-1.25.69-.79-.39a12,12,0,0,0-1.94,2.53,6.08,6.08,0,0,1-2,2.09c-.17-.24.32-.77.38-1.26a19.83,19.83,0,0,1-1.76,2.33,12.89,12.89,0,0,1-3,2.27c0-.25-.37-.25.36-.75-2.08,1.47-3.73,2.94-5.57,4.29a22,22,0,0,1-2.94,1.93,17.85,17.85,0,0,1-3.61,1.56c1-1.86-1.92.4-2.63-.58-.89.45-1.78.94-2.69,1.37.44.05.88.07,1.32.1-2.48.89-4.5,2.36-6.82,2.59l1.78-1-2.36.76c-.79.24-1.6.44-2.4.66.94-.08,1.9-.11,2.85-.23-2.49,1.21.63,1.32-2.95,1.82.34-.14-.31,0-1.25.13a9.37,9.37,0,0,1-2.9,0h0a9.65,9.65,0,0,1-4.6,1c-.55-.32.29-1.27-.06-1.48-.6.5-2.15.75-3.75.87a12.45,12.45,0,0,0-4.09.73c.56-.23.58-.81.4-.94l-1.1.75c-1.24-.26-1.41-.38-1.2-.85-3.7-.33,1.12,1.5-3.27.63.35,0,.2-.16.93-.23-4.39-.6-8.62-.44-12.55-1.72-.92-1.34,3.54.46,2.39-.75C61,244,58,243.51,55,242.87a35.19,35.19,0,0,1-8.34-3l.91.57c-.68.55-1.58-.09-2.64-.93a10.17,10.17,0,0,0-3.69-2.34c.68.24,1.24-.33,1-.26-3.22-2.14-7-3.72-11.88-7.13l.82.16c-.76-.88-1.9-1.86-3-2.94l-1.63-1.57c-.5-.54-1-1.05-1.37-1.53-.81-.24-1.76-1.3-1.58-.28-1.76-3.62-4.33-6.12-6.64-8.83a25.65,25.65,0,0,1-1.7-2c-.53-.7-1.06-1.39-1.53-2.12a14.16,14.16,0,0,1-1.94-4.78c.37.72,1.18,1.55.89,1l-1.45-2.47c-.5-.82-.89-1.69-1.34-2.54-.46.69-.09.86-.09,2.2a8.94,8.94,0,0,1-2.18-3.25c1.44,2.27,1-.44,1-1.62-.13.25-.49,0-.66.14.13-3.26-1.57,0-2-4.26l.41.11a18,18,0,0,1-1.75-4.39c.61-.86.77,1.53,1.43,1.47C5.43,190,3.57,188,4,185.75c.34,1,.67,2.37,1.06,3.31a11.72,11.72,0,0,0,.11-4.37v.17c0-1.32-.09-2.64,0-4l-.17,1a5.58,5.58,0,0,1-1.15-2.14,8.42,8.42,0,0,1-.32-2.35c0-.82,0-1.66-.13-2.56A11.93,11.93,0,0,0,2.85,172c1.23,3.9.74.65,1.64,1,.27-1,.57-2.51.82-2.07a4.58,4.58,0,0,1,0-2.55,6.63,6.63,0,0,0-.09-3.15c.3-.08.26-2,.94-1.45.05-2.4-.57.49-.91.25a7.94,7.94,0,0,1,.19-3,24.25,24.25,0,0,1,.95-3.29c.4-1.13.74-2.32,1.12-3.53a22.32,22.32,0,0,0,.7-3.87c.44-2.28.64-3.68.79-5.07a20,20,0,0,1,1.11-4.82c.56-.55.65-.16.61.36a8.09,8.09,0,0,1-.17,1.2,27.78,27.78,0,0,0,1.73-2.73c.47-.9.85-1.82,1.3-2.85,0,.52.41.23,1-.17.85-1.54-.31-1.6,1.38-3.3a6.06,6.06,0,0,1,0,2.11c.47-.92.88-1.89,1.3-2.87a27.42,27.42,0,0,1,1.47-2.87c.75-.14-.18,1.51-.36,2.3l2.19-3.51a6.15,6.15,0,0,0,1.21-2.77l-1.23,1c.55-.71.82.1.51.69-.87,2-2.11,2.15-2.42,2.07.27-.44.51-.91.81-1.34-1.18.07-2.07,1.4-2.92,3-.4.8-.76,1.68-1.15,2.5a25.07,25.07,0,0,1-1.19,2.27l-.37-1.79-.8,3.3c-.63.42-1.49.48-.83-1-1.71,1.65-.59,2-2.15,3.36-.2.14-.2,0-.15-.17-.26.71-.47,1.44-.67,2.17,0-.51-1,0-.2-1.22a11.92,11.92,0,0,0-2,4.55,4.94,4.94,0,0,1-1.21,2.82l0-.35c-.71,2.73-.54,2.92-.23,3s.69,0,.65,2.1q-1.46,1-2.94,2.09l.76.76c-.16.55-.48,1.64-.79,1.36.14,2.22.47-.27.77,1.07-.75,1.24-.89,3.16-1.17,4.76s-.39,3-1.15,3.2c.58,1.05.84-2.56,1,.41-.85.34-.82,1.2-.72,2.27A9.44,9.44,0,0,1,2,171.83c-.82-.79-.27-3.19-1.09-.67.67.79.58,2,.34,3.33a14.58,14.58,0,0,0-.32,3.8c1.07,0,.75,4.63,1.68,8.13-.23-.08,0,1.6.21,3.74s.8,4.69,1.15,6.36l-.2,0c.64.15,1.1,1.08,1.65,2.22s1,2.56,1.65,3.66c-.64.16-1.1-.14-1.84-1.34.26.76.57,1.49.9,2.22a6.45,6.45,0,0,1,1.76,2.34l-1-.2c1.43,2.88,3.69,5.3,5.46,9,.75-.25.09-3.81,2.78-.58-.26.36-.76.89-1.51.05a6.17,6.17,0,0,1,1.26,1.59c-.53-.32-1-.67-1.52-1,.74,1.72,1,.48,1.8,1.71-.5.32.29,1.13-.21,1.23-.27-.27-.56-1.19-1.08-1.51a13.83,13.83,0,0,1,1.86,4.06c.17-.32.63-.49,1.46.41,2,2.42.1,1.32,1.09,2.91.82.31,1.86,2.11,2.54,1.55a2,2,0,0,1,.52,1.51c.73.44,2,1.83,3.21,2.75s2,1.52,1.67.54l-.26-.33.22.15h0c1.11.76,2.2,1.56,3.25,2.43l3.14,2.67a33.48,33.48,0,0,0,6.67,4.71l-.16.25,4.53,2.13a17.25,17.25,0,0,0,4.11,1.33c.85.36,1.82,1.35,1.32,1.52,1.16.38,1.84.46,2.62.69a24.94,24.94,0,0,1,3.23,1.36c-1.24-.11-1.08.06-1,.12s.07.06-1.49-.56c1.44.68,2.33,1.09,3.27,1.45a9.28,9.28,0,0,0,1.55.42,17.21,17.21,0,0,0,2.16.15c-.65.22-.14.6.74.95a10.7,10.7,0,0,0,2.9.62l-2.07-1c1.69.21,3.11.64,4.59.92l-1,.86a20,20,0,0,0,9,.75c1.39-.11,2.71-.22,4-.23a11.33,11.33,0,0,1,1.91.18,9.55,9.55,0,0,1,1.89.48c1.7-.74-3.56-.4-2-1.25a21.12,21.12,0,0,1,4.31.69,16.36,16.36,0,0,0,2.82.51c4.2.09,3.65-1.86,7.92-2.24-.62-.28-1.26-1,1.72-2.06a4.22,4.22,0,0,1,2.8.18c.39.3.22.78-.66,1.16-.69.19-1.06.15-1.06,0-.91.34-2.12.77-.88.88l.3-.43c1.55.09,5.53-1.12,4.75-.28,2.11-1,.77-.81-.9-.55,3.87-.56,5.76-1.77,9.57-2.95-.66.08-1.35-.1-.77-.33,5.49-1.94,2.08-1.62,5.51-3.47,2.22-.54-.08,1.57,3.16-.75,2.29-.87.93.56.21,1.3a15.78,15.78,0,0,1,2.19-1.5,19.29,19.29,0,0,1,2.15-1.11,32,32,0,0,0,3.56-1.69l-1.43,1.35A20,20,0,0,1,127,237.2l-1.32.06c1-.53,1.77-1.13,1.93-.88.64-1.08-1.41-.41,0-2.31,1.44-.59,3.22-3.18,4.24-2.8-3.78,2.82,1,.38-1.93,3.1a12.24,12.24,0,0,1,2.19-1.85c.2,0,0,.25-.19.5,2-1.16,2.2-1.77,2.35-2.41s.25-1.35,1.89-3c0,.8,1.48-.08,1.93-.72-1.32,1.37-1.26,0-.38-1.48,2.29-2,1.91-2.63,2.95-3.79-.41.43-.87.82-1.3,1.23a2.81,2.81,0,0,1,.65-1.44c.38-.59.91-1.3,1.47-2.16.44.11-.93,1.65-.33,1.18a7.67,7.67,0,0,1,2.36-3c.52-.49,1.07-1,1.57-1.59a7.78,7.78,0,0,0,1.2-2c1.11-1.07.93.41,1.85-.58a9,9,0,0,1,1.93-3.32,9.9,9.9,0,0,0,1.9-3.51c-.57.35-.84.58-.89.38a17.72,17.72,0,0,1,.33-2.18c-.32,1-.7,2-1.11,2.94s-.77,2-1.23,2.9c.39-1.32.62-2.71.92-4a25.42,25.42,0,0,0-1.08,2.62,11.26,11.26,0,0,1-1,2c.43-1.94.48-1.67-.47-1.19a6.11,6.11,0,0,0,1.94-3.32,12.07,12.07,0,0,1,1.64-3.8l1.6.77a11.87,11.87,0,0,0,1.38-3,19.66,19.66,0,0,0,.76-3.12c.21-1.08.42-2.19.63-3.39s.56-2.46.95-3.87c-.24.59-.45,1.18-.7,1.76a4.08,4.08,0,0,1,.16-2.34,13.13,13.13,0,0,0,.55-3.08c.56.27,1-.85,1.45-1.6-.39,0,.55-4.25-.57-4.88l.95-2.52a10.51,10.51,0,0,0-.54-5,12.21,12.21,0,0,1-1.05-4.78c.72,1.3,1-.79,1.65,2.22-.07-1.52-.06-2.89-.49-2.87.25-.92-1.19-4-.92-5.47-.36-.58-1-.68-1.23-2.34.09-.2.29,0,.29,0-.25,0-.93-2.48-1.25-.93a12.59,12.59,0,0,0-.11-4.05,42.55,42.55,0,0,0-1.25-4.45c-.56-1.46-1.07-2.92-1.53-4.25a12,12,0,0,1-.84-3.65c-.82-1.43-1.65-3-2.58-4.53s-1.8-3-2.66-4.2c.25.06.25-.15.51.35-1.78-3.75-2.73-1.19-4.94-5.24-.64-2.48,1.86,1.66,1.28.26.59-.84-.28-2-1.53-3.17-.61-.61-1.29-1.27-1.89-2a7.35,7.35,0,0,1-1.51-2.15l.6.48a9.34,9.34,0,0,0-3.07-3.05c-.68-.49-1.41-1-2.13-1.56a23.67,23.67,0,0,1-2.2-1.79s.26,0,.21-.21a12.67,12.67,0,0,1-1.34-.62l-.71-.38-.59-.26a23.45,23.45,0,0,1-2.68-1.55l.43-1.57.24-.83.31-1a4.37,4.37,0,0,1,.09.82,1.51,1.51,0,0,0,0,.39c0,.16.17.13.61.07.48-1.47-1.35,0-.33-3.08.82-.83,2-3,2.83-3-.34,1-.64,2-1,3,1.61-1.13,1.36-3.85,2-5.37l.38.34a17.7,17.7,0,0,0,.73-4.91A20.75,20.75,0,0,1,132.8,92l-.47.43c-.48-3,1.19-2.14.93-5.07l1.33-.59c.11-1.89.09-6.6.34-9.9.61,2,.41,5.9.45,8.38.38-1.81,1-6.2.56-7.24a6.46,6.46,0,0,1-.16,2.41,26.13,26.13,0,0,1-.1-9c1.1.46,1.54-1.89,1.88-4.69s.54-6,1.48-7.33a55.14,55.14,0,0,1,0-9.83,60,60,0,0,0,.07-10.76c-1.58,2.84-.22-2.23-2-1.6a7.3,7.3,0,0,1-.22-2.58c.17-1.81.31-3.63.4-5.47.33-1.35.66,1.62,1,1.41-.44-3.92.53-1.75.57-4.44-.55.65-1.15-1.19-1.41-3.48,0,1.11-.1,2.21-.19,3.3a10.23,10.23,0,0,1-.83-5.13,8.37,8.37,0,0,0-1.2-5.16c.38.52.74,1,1.1,1.56a65.73,65.73,0,0,0-2.79-6.52,19.78,19.78,0,0,0-2.3-3.45,8.2,8.2,0,0,0-2.57-2.15c-.22-.57-.42-1.54.71-.47a12.79,12.79,0,0,0-5.58-4A10.62,10.62,0,0,0,120,0a11.08,11.08,0,0,0-3.68.78,17,17,0,0,0-5.22,3.43c-1.35,1.22-2.48,2.41-3.54,3.37V6.87c-.78,1.17-.78,2.37-2.07,3.48-.11-.17-.08-.69-.44-.2a25.5,25.5,0,0,1-2.21,4.76l.27-1.54a21.7,21.7,0,0,0-3.26,7.77c-.55,2.39-.85,4.69-1.58,7.34C97,28,95,32.87,94.12,35.34L94,35.21a50.6,50.6,0,0,0-1.81,10.13c-.28,3.18-.38,6.3-.64,9.82-1,2.05-1.67,5.72-2.11,9.75s-.69,8.39-1.19,11.9c.28-1.07,1,.21,1.12,1.46-.31,1.65.87,4.56-.34,4.3L89,82c-1.2,1.24-.85,4.67-.75,7.35l1.6.37a13.79,13.79,0,0,0-.44,2.43q-.06.64-.08,1.3a3.88,3.88,0,0,1,0,.74,3.09,3.09,0,0,0,0,.78c0,.14.05.28.08.43s0,.15,0,.23l0,.12v.06h0l-1,0h-1l-.66-.05A12.69,12.69,0,0,1,82,94.71c-1.73.32-3.85.33-5.53.78l.06-.85a60.35,60.35,0,0,0-6.11.2c-1,.1-2,.2-3.07.39-.56.09-1.15.18-1.77.31a2.8,2.8,0,0,0-.44.14,1.86,1.86,0,0,0,.2-.65c-.06,0-.15.31-.51.77a8.56,8.56,0,0,1-1.59,1.61c-.43.28-.6,0-.66-.63a17.3,17.3,0,0,1,1.22-1.52,15.89,15.89,0,0,1,.08-2.07,1.45,1.45,0,0,0,0-.14V91.17c0-.71,0-1.42,0-2.14a28.06,28.06,0,0,0-1.35-8.36c.19.07.58.18.75,1.09-.15-1.32-.29-3.91-.64-6s-.87-3.7-1.64-3.07c1.12-.27-1-5.75-2.15-8.57l.92.28c-1.62-2.26-1.91-2.27-3.07-5.65-.1-.84.46-.89.54.26-.29-2.84-1.31-1.92-1.81-5.31l.87,1.08c-.74-2.81-1-2.5-2-3.84-.84-1.64-1.5-5.27-.94-5.93a5.08,5.08,0,0,1-2.07-3.18c.18-.32.57.2.76.47-1.19-4.76-3.54-6.34-4.16-9.71a.72.72,0,0,0,.22-.72A56.72,56.72,0,0,1,50.64,38c.72-.28-.36-3.25,1.58-1.34-1.49-2.15-4.38-5.58-5.46-8.47a1.4,1.4,0,0,1,.05-.48L47,28a5.71,5.71,0,0,0-1-1.68A16.33,16.33,0,0,0,45,24c.39-.64-1.55-3.35-2.41-4.7-.63.56-1.67-1.24-1.18.77-.09-.24.25.19.84,1.06a4.4,4.4,0,0,0,.43.53l-.12-.05c.57.87,1.28,2,2,3.35a7.29,7.29,0,0,1-2.45-3.53c-.88-.4-1.83-.83-2.32-1.1a15.51,15.51,0,0,0-1.17-4.12,10.92,10.92,0,0,1-1-3A34.5,34.5,0,0,0,31,7.9a12.21,12.21,0,0,0-4-1.43,6.37,6.37,0,0,0-3.44.29c-1.56.24-1.89-.29-2.6-.39a20.4,20.4,0,0,1,2.71-.67,12.74,12.74,0,0,0-3.09.62,10,10,0,0,0-3,1.66c-1.65,1.36-2.47,2.87-2.23,3.47-1.26,1.35-1.16.83-1.12.42,0-.19.05-.34-.11-.16A9.56,9.56,0,0,0,13,13.55l0-.77A15,15,0,0,0,10.15,19,28.37,28.37,0,0,0,9.58,25c0,4,.16,7.93-1.07,13,.15-.71.23-1.06.42-1.2a73.29,73.29,0,0,0,.63,17.69c.78,5.9,1.8,11.69,2.17,17.45.35,3.25,1.13,3.44,2.1,5.24l-.72.89,1.83,3c1,2.21,1,4.35,1.18,6.63a15,15,0,0,0,2.23,7.35l.32-.94c.57,2.11,2.71,6.35,1.93,6.27a1.6,1.6,0,0,1,.88,1.34l-.41.24q1.39,2.34,2.87,4.61c.71,2,.23,2-.14,2.27s-.63.76.74,3.47c1.21,1.92,4.21,5,4.09,4.14-.4-.81-.81-2.18-.42-2.46l1.17,1.7c1.41-.32,3.39.38,2-4.45L29,108.63l.13-1.28c.42.85.89,1.7,1.35,2.55-.21-1.75-1.16-2.4-2-3.28a2.32,2.32,0,0,0,.07-1.6c-.87-.82-1.72-1.66-2.57-2.51.35-.58,1.58.95,1-1.23-1.18-1.21-.55,1.87-1.93-.38,0-1.76.63-1.5-.57-3.09.24-.38.6-.08,1,.57-1-1.43-1.75-4.15-2.74-4.75.16-1.86-2-5.44-.69-5.68a13.73,13.73,0,0,1-2.35-4.09c1.16,1.17.77-.25.35-1.94s-.85-3.64.06-3.47c-1.92-1.71-2.39-7.3-3.82-10.86a1.61,1.61,0,0,1,.44.89,17.46,17.46,0,0,1,.08-4.17c-1.21-.07-2-3.29-3-5,.77-2.73,1.58,1.38,2.55.41-.94.27-1.53-4.33-2.2-3.37.47-2.06.14-1.74,1-2.86-1.5-.2-.43-1.8-1.46-3.37.52-2.91,1.31-.83.69-3.93C14.8,44.71,15.46,47.45,15.46,47.45Zm27-16.16h0l-.74-1.36ZM45.14,37c-.28-.72-.65-1.6-1.08-2.52.17-.32.55-.23.79.36C44.54,34.62,45,36,45.14,37Zm-1-14.88c.65.85.68,1.25.6,1.46-.27-.42-.58-.92-1-1.54L43.6,22A1.11,1.11,0,0,1,44.18,22.13Z"/><path class="cls-1" d="M42.24,21.09a4.25,4.25,0,0,1-.28-.33c.05.22.11.43.17.63l.42.18Z"/><path class="cls-1" d="M26.24,229.57l.09.11a.91.91,0,0,1-.13-.28A.89.89,0,0,1,26.24,229.57Z"/><polygon class="cls-1" points="82.92 102.35 82.92 102.14 82.37 102.31 82.92 102.35"/><path class="cls-1" d="M8.66,199.18a.89.89,0,0,0,0-.5A1.14,1.14,0,0,0,8.66,199.18Z"/><path class="cls-1" d="M5.17,184.69v-2.13C5.14,183.49,5.15,184.16,5.17,184.69Z"/><path class="cls-1" d="M4.85,173.24a.89.89,0,0,0-.36-.23v0Z"/><path class="cls-1" d="M135.83,218.64a3.36,3.36,0,0,0,.26-.35C136.58,217.38,136.23,218,135.83,218.64Z"/><path class="cls-1" d="M90.76,246.43a17.85,17.85,0,0,1,1.66-.7C91.45,245.84,90.71,245.95,90.76,246.43Z"/><path class="cls-1" d="M150.39,163.23h0l-.06-.36Z"/><path class="cls-1" d="M94.91,245.25a9.56,9.56,0,0,0-2.49.48A8.73,8.73,0,0,0,94.91,245.25Z"/><path class="cls-1" d="M21.71,128l.38-.4a.15.15,0,0,1-.06-.14Z"/><path class="cls-1" d="M22,127.42l.32-.53C22.16,127.1,22,127.29,22,127.42Z"/><path class="cls-1" d="M23,125.77c-.25.36-.45.75-.68,1.12A2.41,2.41,0,0,0,23,125.77Z"/><path class="cls-1" d="M13,140.2l.19.3A.41.41,0,0,0,13,140.2Z"/><path class="cls-1" d="M11,144.35c.26-.48.7-1,1.14-1.64a11.37,11.37,0,0,0,.62-1,5.71,5.71,0,0,0,.53-1l-.15-.24C13.17,141.3,11,143.19,11,144.35Z"/><path class="cls-1" d="M2,162.11c.31-1.32.6-2.63.93-3.94-.45.63-1.06,1.47-.78-.37C.26,162.69,3,156.9,2,162.11Z"/><path class="cls-1" d="M.66,174.6c-.12-2.18-.47,0-.66-.09C.33,175.91.42,176.24.66,174.6Z"/><path class="cls-1" d="M49.79,245.06l-.49.63C50.92,246.22,49.42,245.43,49.79,245.06Z"/><path class="cls-1" d="M67.19,245.68,65.73,245c-.28.2-.57.38-.85.56C65.64,245.61,66.42,245.63,67.19,245.68Z"/><polygon class="cls-1" points="76.78 252.02 76.02 252.12 78.89 251.88 76.78 252.02"/><path class="cls-1" d="M153.12,144.77l-.68.82C153,146.61,154.1,146.46,153.12,144.77Z"/><path class="cls-1" d="M133.17,92.69a4.73,4.73,0,0,0,1.14-3.52C133.93,90.59,133.24,91.94,133.17,92.69Z"/><polygon class="cls-1" points="88.88 93.06 88.47 91.75 88.69 92.99 88.8 93.62 88.85 93.92 88.89 93.99 88.9 93.92 88.89 93.65 88.88 93.06"/></g></g></svg>