<svg xmlns="http://www.w3.org/2000/svg" viewBox="0 0 200.06 17.33"><defs><style>.cls-1{fill:#eab55c;}</style></defs><title>Asset 2</title><g id="Layer_2" data-name="Layer 2"><g id="Layer_1-2" data-name="Layer 1"><path class="cls-1" d="M1.59,10h-.3a.85.85,0,0,0-.93-.45c-.3-1.19-.51-2,.47-2.68h.3c.14-.36.42-.62.56-1a8.05,8.05,0,0,1,1.83.43l0,.48A13.83,13.83,0,0,1,5.11,8,3.66,3.66,0,0,1,7.62,9.82c.06.28.56.53,0,.72l0,.48H8c1.53-.07,3.08-.15,3.94.36a.36.36,0,0,0,.28-.49,14.23,14.23,0,0,0-1.92-2.12C10.06,8.11,9,8.2,9,7.35c.23-.68,1.46-.62,1.43-1.5,3.19-.17,5.91,2,3.19,3.53,0,.75-.79,1-1.13,1.49.83,1,4.17-.3,5.18,1a2.33,2.33,0,0,1,1.5-.29v.24c.3,0,.35-.21.59-.26.08.19,0,.48.32.47.06-.19,0-.48.28-.49.18.39,1,.24,1.68.17,0-2-2.77-1.57-3.22-3.16.67-.4.54-.52.24-1.22,1.52.35.92-.87,2.07-.79,3.59.18,5.13,3.82,2.26,5.14.7,0,.9.39,1.81.18.13-.34,2-.08,2.42.16,1.39-.3,2.63.36,3.31-.11a4.23,4.23,0,0,0-2.56-2.82c-1.38,0-1.63-2-1.34-2.62-.71-.15.72-1.16-.07-1.45.75-.05.91-.48,1.51,0,.48,0,.21-.62.88-.51.06-.19,0-.48.28-.49.52.9,3,.1,3.09,1.35,2.64,1.21,1.76,5.26-.29,6.3v.24c.33.32,1.8.66.9,0a61,61,0,0,0,8.1-1c0-.24-.26-.28-.33-.47-.07-.36-.74-.2-1.22-.2.58-.91-.58-1-.41-2.17-.18,0-.36,0-.31-.23h-.3a21.82,21.82,0,0,0-2.47-1.13l0-1c-.75-.62.17-1.42,1.45-1.26-.24-.64.6-.49.87-.75A.36.36,0,0,0,39,3.25c1.23.21,1.38-.21,2.13.42A1.83,1.83,0,0,0,42,4,16.52,16.52,0,0,1,44,7.2h0l0,.48c.38.75-.44.6-.55,1-.09.79-1,1-1.43,1.5-.37,1.51,4.34-.16,4.81-.4l0-1a1.85,1.85,0,0,1-1.57-1.16L45,7.7a8.06,8.06,0,0,1,.71-5c.49,0,.87-.17,1,.07,1.48.31,3.26.36,4,1.33C52,5.67,51,8,49.24,9.22c.14.41-.42.63,0,.72,2.81-.06,3.84.06,5.74.06,1-.55,1.59,0,2.7-.33a6.16,6.16,0,0,0,2.12.17c-1.14-1.19-.53-2.87-3.17-3-.15-.58.52-.54.24-1.22h0a7.05,7.05,0,0,0,.2-.7,2.75,2.75,0,0,0,.66-1c2.81.39,4.87.08,5.85,2.23-.16,1.12-1.36,1.48-1.37,2.71A2,2,0,0,0,61,9.09c0,.15,0,.29-.29.25l0,.48c3.65-.46,5.24.17,8.74-.28,1-.29-.84,0-.34-.72-.3,0-.37-.18-.61-.22,0-1.46-1.37-1.66-1.94-2.6h-.3c-1.06-.09-.52-1.57-.72-2.4.23-.86-.1-.79.53-1.47a10.27,10.27,0,0,1,5.46.55.4.4,0,0,0,.14.17,15.94,15.94,0,0,1,1.6,3.4,16.11,16.11,0,0,0-.87,1.49c-.06.19,0,.48-.28.49-.05.35-.48.42-.57.74h-.3c0,.4-.83.16-.88.51l1.81-.06a7,7,0,0,1,2.42.16c.7.13,1.84.42,2.41-.08a7.48,7.48,0,0,0-1.31-2.14A9.51,9.51,0,0,0,74.37,6a4.27,4.27,0,0,1,.54-3.45c.54-.21,1-.39,1.46-.06a12.12,12.12,0,0,0,3,.6,6.44,6.44,0,0,1,1,1.8,5.33,5.33,0,0,1,.27,1A4.37,4.37,0,0,0,80,7.76c.17,1.14-2,.52-1.72,1.75,1.91,0,3.41-.22,6.33-.2.34-1-.91-.56-1-1.18-.86-.62-1-1.83-2-2.37a4.55,4.55,0,0,1-.9-1.86,12.19,12.19,0,0,1,0-2.62,2.2,2.2,0,0,1,.67-.59C81.84,1.75,83.95-.5,84.7.1c-.31.31.36.69.36,1.2h.3a4,4,0,0,0,2.07-.06,3.68,3.68,0,0,1,.52.22,1.93,1.93,0,0,1-.16.25,2.47,2.47,0,0,1,.78,3.61c.08,1.69-1.12,2.43-2.25,3.22V9c.07.53.79.5,1.53.44,2.55.19,4.56-.56,6.05.29-.32-.88,1.57-.49,1.8-.3,0-.29-.09-.68.26-.73-.36-1.29-.68-2.6-2.26-2.84S93.89,4.51,93,4a3.61,3.61,0,0,1,2.09-.55,12.35,12.35,0,0,1,4.87.81,3.85,3.85,0,0,1-2.18,4.67v.24c-.18,0-.36,0-.29.25,3.84.45,5.09.3,10,.17a2.75,2.75,0,0,1-.11-2.17c-.84-.36-1.92-.52-1.89-1.63h-.28c0-.24-.09-.47-.14-.71a4,4,0,0,1,.61-1.22c.28-.39.62-1.13,1.16-1.32.34-.12.46-.15.68-.24.89.06,1.79.13,2.74.13.24.05.46.13.69.2a6.72,6.72,0,0,1,1.13,3.47s0,.07,0,.1c-.09.29-.25.56-.33.84h-.13c.25.81-.58.81-.84,1.24v.24a1.9,1.9,0,0,0-1.45,1.25c.83-.62,2-.17,2.87-.37a9.88,9.88,0,0,0,3.6.15l0,0a1.36,1.36,0,0,0,0-1.27,6,6,0,0,1,1.73-4.68l.07.08h.3c.3,0,.37.18.61.22a2.43,2.43,0,0,1,1.44-.3,3.15,3.15,0,0,1,.32.33,9.2,9.2,0,0,0,.52,3.29c-.92-.06-.59.81-.84,1.24.07.55-.42.7-.84.88A16.34,16.34,0,0,0,124.39,9c-.06-.66.48-.5,0-1-.09-.45.31-.54.25-1-.94-.23-2.08-1.22-1.32-2.14-.18,0-.36,0-.31-.23A1.24,1.24,0,0,1,122.58,3c0-.81.24-2.34.73-2.66l.22-.06.13,0c-.08.41.87.15,1.76-.19a6.89,6.89,0,0,1,1.13.18c.42.68,1.26.82,1.11,1.57.68,0,1.35-.13,2-.19a4.74,4.74,0,0,1,.51.74,3.71,3.71,0,0,1,.36,2c-.52,2.33-2,3.93-5.22,4.27,2.64.83,6.54.51,9.89.73a5,5,0,0,1-.22-1.86,1.91,1.91,0,0,0-.55-.36,8.64,8.64,0,0,1-.19-1.11v0c0-.53.13-1.6.81-1.9,1.45.23,2,1.47,3.4.37,1.24,1.28.69,3.55-.35,5,1.35-.6,4.22.38,5.63-.69-.35,0-.35-.37-.34-.72,0-.66-.53-.47,0-1a15,15,0,0,1-2-3.57V3.39a2.78,2.78,0,0,1-.16-.89A4.09,4.09,0,0,1,142.37.87a2.82,2.82,0,0,1,2.15.24c.08.43.71.64,1.59.74A6.4,6.4,0,0,1,148.79,5c.17,1.08-.18,2.09-1.86,2.12.25.65-.57.5-.55,1v.24c.07.83-1.83.2-1.76,1a19.8,19.8,0,0,1,6.34,0c1.33-.39.24-1.19.81-2-.24,0-.59,0-.62-.22-.6-.27-1.69-.78-1-1.42-.37,0-.2-.26,0-.48a2.87,2.87,0,0,1-.25-.36V4.84a4.49,4.49,0,0,1,.94-2.78l.35,0a.68.68,0,0,1-.18-.24l.26-.26c.51-.06,1.53.25,1.44.69a2.25,2.25,0,0,0,1.73.34A3.7,3.7,0,0,1,156.18,4a6,6,0,0,1-1.3,5.26c1.15.34,3.18-.08,4.24.35h.6l0-.48c.21-1.19-1.05-1.1-.72-2.4l0-.48a.34.34,0,0,0-.08-.39,4.3,4.3,0,0,1,.44-1.14,5.51,5.51,0,0,0,.37-.73l.07.05V3.77a1.77,1.77,0,0,0,.06-.33c.07-.13.2-.21.51-.17.4.49-.21.35,1.22.2l0,.48c1.26-.26,1.23.59,2.33.48a2,2,0,0,1,.78.82,1.77,1.77,0,0,1,0,.3h.16a4.38,4.38,0,0,1,0,3.11,12.9,12.9,0,0,1-2.11,1.06,43.94,43.94,0,0,0,5.75.3,7.49,7.49,0,0,0-.43-2.65H168a6.78,6.78,0,0,1-.58-1.8,14.42,14.42,0,0,1,.73-1.85h0a.79.79,0,0,1,0-.1v0c0-.09.09-.15.27-.13a2,2,0,0,1,2.43.41c1,.11.91-.48,1.51,0l.49-.07c1.17,1.18,1.15,3.11,1.1,4.66-.51,1-2.49,1-3.07,2l2.11-.07c1.46.08,1.47-.1,2.14.66-.23-.95,1.64-.34,2.39-.56a1.38,1.38,0,0,1,.55,0c0-.51.1-1-.1-1.23a9.75,9.75,0,0,1,.61-3.79.22.22,0,0,0,.15-.09A.87.87,0,0,1,179.2,5l2.26.15a2.58,2.58,0,0,1,.85.77c.56,1.84.18,3.76-1.95,4.57a1.31,1.31,0,0,1,.24.12c.44.08.52.27.9,0a.69.69,0,0,1,0-.09l.47,0a15.4,15.4,0,0,1,3.47.17c.25.22,1.06,0,1.49,0s.25-.59.25-1c-.83.21-.94-.21-1.33-.38a4.79,4.79,0,0,1-.81-2.88.16.16,0,0,0,.08-.15,1.05,1.05,0,0,1,.38-.74,4.14,4.14,0,0,1,3.58,0c1.14-.07,1.37.66,1.58,1.4,1,1-.13,2.38.18,3.63-.69,0-1.13.09-1.18.52h.3c1.16.19,2.39.31,3.61.44,0-.24,0-.66,0-.72a1,1,0,0,1-.25-.11.16.16,0,0,0,0-.16,3.25,3.25,0,0,1-.68-1.67.18.18,0,0,0-.14-.18,3.1,3.1,0,0,1-.39-1.37A2.15,2.15,0,0,1,193,6.14a.16.16,0,0,0,.14-.08l.17-.07a16.09,16.09,0,0,0,2.57.22,3.4,3.4,0,0,1,.59,5.91c.25.05.5.1.75.13a17.94,17.94,0,0,0,2.83-.46v3.62c-3.53-.39-8.2-1.2-10.5-1h-.3A70.27,70.27,0,0,1,179.37,16a6.94,6.94,0,0,1-3.62.12h-.6a59.38,59.38,0,0,1-9.05,0l-.6,0c-6.91-.11-11.53-.24-18.41.1v.24c-1-.39-1.76.24-3.32.11-2.47.37-3.41-.43-5.13-.08-.73-.12-2.17.37-2.42-.16l-1.51,0-1.81.06c-.08-.19,0-.48-.33-.48,0,.15,0,.29-.29.25a15.57,15.57,0,0,1-3.63-.13c-2.15.28-3.22.05-5.73.18-1.89-.21-4.37.09-6.05-.29h-.3c.24.39-1.4.44-1.21,0l-.6,0a8.25,8.25,0,0,0-2.41.08h-.3l-1.81.06c-.24,0-.59,0-.62-.22a7.1,7.1,0,0,1-3.62.12h-.3c-2.44.21-4.62-.4-7.26-.25v-.24h-.3c-2.43-.19-10,.58-12.41-.58,0,.09.33.48.33.48-2.61.61-6,.11-8.45,0-4.62-.16-9.24-.16-14.2-.28h-.3c-6.37.39-9.52-.17-15.6.34.06.43-.27.58-.88.51h-.3v.24c-1.17-.11-4.33-1.05-3.69-.05-4.85.69-7.09,1.43-11.44.6-2.95.25-8.31.25-11.5-.6.15,0-4.46-.54-4.82-.54-8.05-.13-9-.35-14.9-.63V11.34a17.66,17.66,0,0,0,1.6-1.09Z"/></g></g></svg>