<svg xmlns="http://www.w3.org/2000/svg" viewBox="0 0 32 32"><defs><style>.cls-1{fill:#4d4d4d;}</style></defs><title>Asset 14</title><g id="Layer_2" data-name="Layer 2"><g id="Layer_1-2" data-name="Layer 1"><ellipse class="cls-1" cx="16.02" cy="16.02" rx="3.08" ry="3.07"/><rect class="cls-1" x="19.11" y="9.82" width="3.06" height="3.05" rx="0.45" ry="0.45"/><path class="cls-1" d="M16,0A16,16,0,1,0,32,16,16,16,0,0,0,16,0Zm8,22.1A1.9,1.9,0,0,1,22.1,24H9.9A1.9,1.9,0,0,1,8,22.1V9.9A1.9,1.9,0,0,1,9.9,8H22.1A1.9,1.9,0,0,1,24,9.9Z"/><path class="cls-1" d="M20.89,16a4.87,4.87,0,1,1-9.56-1.28H9.83v7a.45.45,0,0,0,.45.45H21.76a.45.45,0,0,0,.45-.45v-7h-1.5A4.83,4.83,0,0,1,20.89,16Z"/></g></g></svg>