<svg xmlns="http://www.w3.org/2000/svg" viewBox="0 0 143.1 111.84"><defs><style>.cls-1{fill:#eab55c;}.cls-2{fill:#89c6c5;}</style></defs><title>Asset 2</title><g id="Layer_2" data-name="Layer 2"><g id="Layer_1-2" data-name="Layer 1"><path class="cls-1" d="M31.53,38.27A22.68,22.68,0,0,1,34,32.71a30.14,30.14,0,0,1,4.39-5.5,23,23,0,0,1,6.68-4.53A26.23,26.23,0,0,1,51,20.74a16.54,16.54,0,0,1,5.84-.18A12.51,12.51,0,0,1,62,22.63a12,12,0,0,1,4,5,8.86,8.86,0,0,1,.41,7.47,10.13,10.13,0,0,1-12.09,5.63,8.49,8.49,0,0,1-5-4.7q-1.56-3.36-1-5.58a13.46,13.46,0,0,1,1.3-3.36,1.31,1.31,0,0,0,.29-1.57q-.47-1-2-.59A21.18,21.18,0,0,0,44.5,26.2a16.73,16.73,0,0,0-5.55,4.32,24.19,24.19,0,0,0-4,6.47,22.54,22.54,0,0,0-1.77,7.16,12.49,12.49,0,0,0,1,6.28l21.42,46L67.3,91l1.24,2.66L30.62,111.28l-1.24-2.66,11.75-5.47L13,42.71,1.24,48.18,0,45.52,26.17,33.34l4.52,9.71A19.6,19.6,0,0,1,31.53,38.27Z"/><path class="cls-1" d="M112.47,43.62,117.21,34,143.1,46.78l-1.3,2.63-11.63-5.73-29.48,59.8,11.63,5.73-1.3,2.63L73.5,93.34l1.3-2.63,11.63,5.73,22.44-45.52A12.49,12.49,0,0,0,110,44.67a22.54,22.54,0,0,0-1.61-7.2,24.19,24.19,0,0,0-3.89-6.56A16.73,16.73,0,0,0,99,26.47a21.18,21.18,0,0,0-3.36-1.35q-1.53-.45-2,.55a1.31,1.31,0,0,0,.26,1.57,13.46,13.46,0,0,1,1.22,3.39q.55,2.23-1.09,5.55a8.49,8.49,0,0,1-5.15,4.59,10.13,10.13,0,0,1-12-5.9,8.86,8.86,0,0,1,.58-7.46,12,12,0,0,1,4.07-4.91,12.51,12.51,0,0,1,5.2-2,16.54,16.54,0,0,1,5.83.31,26.23,26.23,0,0,1,5.89,2.08,23,23,0,0,1,6.57,4.68,30.14,30.14,0,0,1,4.26,5.59,22.68,22.68,0,0,1,2.4,5.61A19.6,19.6,0,0,1,112.47,43.62Z"/><rect class="cls-2" x="23.76" y="9.57" width="3.96" height="16.28" rx="1.98" ry="1.98" transform="translate(-5.32 21.09) rotate(-40.75)"/><rect class="cls-2" x="31.52" y="3.95" width="3.96" height="16.28" rx="1.98" ry="1.98" transform="translate(-1.59 18.19) rotate(-29.7)"/><rect class="cls-2" x="40.74" y="-0.19" width="3.96" height="16.28" rx="1.98" ry="1.98" transform="translate(-0.64 10.85) rotate(-14.37)"/><rect class="cls-2" x="112.8" y="9.76" width="3.96" height="16.28" rx="1.98" ry="1.98" transform="matrix(-0.75, -0.66, 0.66, -0.75, 189.14, 107.16)"/><rect class="cls-2" x="105.11" y="4.06" width="3.96" height="16.28" rx="1.98" ry="1.98" transform="translate(193.39 76.77) rotate(-149.7)"/><rect class="cls-2" x="95.93" y="-0.17" width="3.96" height="16.28" rx="1.98" ry="1.98" transform="matrix(-0.97, -0.26, 0.26, -0.97, 190.43, 40.95)"/></g></g></svg>