<svg xmlns="http://www.w3.org/2000/svg" viewBox="0 0 403.14 315.09"><defs><style>.cls-1{fill:#fff;}</style></defs><title>Asset 9</title><g id="Layer_2" data-name="Layer 2"><g id="Layer_1-2" data-name="Layer 1"><path class="cls-1" d="M88.81,107.82a63.91,63.91,0,0,1,7.1-15.65,84.91,84.91,0,0,1,12.36-15.49,64.84,64.84,0,0,1,18.81-12.77,73.9,73.9,0,0,1,16.73-5.48,46.61,46.61,0,0,1,16.45-.52,35.23,35.23,0,0,1,14.52,5.85q6.76,4.63,11.17,14.08,5.29,11.35,1.16,21A26.42,26.42,0,0,1,173.53,113q-10.88,5.07-20.48,1.76t-14.22-13.24q-4.4-9.46-2.71-15.71a37.92,37.92,0,0,1,3.65-9.47,3.7,3.7,0,0,0,.82-4.41q-1.32-2.84-5.67-1.68a59.68,59.68,0,0,0-9.56,3.59A47.14,47.14,0,0,0,109.73,86a68.15,68.15,0,0,0-11.36,18.24,63.5,63.5,0,0,0-5,20.17q-.76,10.13,2.77,17.7l60.34,129.61L189.6,256.3l3.49,7.49L86.25,313.52,82.77,306l33.11-15.42L36.6,120.32,3.49,135.74,0,128.25,73.72,93.93l12.74,27.36A55.21,55.21,0,0,1,88.81,107.82Z"/><path class="cls-1" d="M316.87,122.9l13.35-27.07,72.93,36-3.65,7.41L366.73,123,283.66,291.53l32.76,16.15-3.65,7.41L207.08,263l3.65-7.41,32.76,16.15,63.22-128.23q3.69-7.49,3.16-17.63a63.5,63.5,0,0,0-4.55-20.28,68.15,68.15,0,0,0-11-18.49A47.14,47.14,0,0,0,279,74.57a59.68,59.68,0,0,0-9.47-3.8q-4.32-1.26-5.71,1.55a3.7,3.7,0,0,0,.72,4.43A37.92,37.92,0,0,1,268,86.3q1.56,6.29-3.06,15.65-4.85,9.84-14.51,12.92T230,112.65a26.42,26.42,0,0,1-13.26-14.4q-3.91-9.78,1.63-21,4.61-9.36,11.48-13.83a35.23,35.23,0,0,1,14.65-5.53,46.61,46.61,0,0,1,16.43.88,73.9,73.9,0,0,1,16.6,5.85A64.84,64.84,0,0,1,296,77.81a84.91,84.91,0,0,1,12,15.76,63.91,63.91,0,0,1,6.75,15.8A55.21,55.21,0,0,1,316.87,122.9Z"/><rect class="cls-1" x="66.95" y="26.96" width="11.16" height="45.86" rx="5.56" ry="5.56" transform="translate(-14.98 59.43) rotate(-40.75)"/><rect class="cls-1" x="88.79" y="11.13" width="11.16" height="45.86" rx="5.56" ry="5.56" transform="translate(-4.48 51.24) rotate(-29.7)"/><rect class="cls-1" x="114.78" y="-0.54" width="11.16" height="45.86" rx="5.56" ry="5.56" transform="translate(-1.79 30.58) rotate(-14.37)"/><rect class="cls-1" x="300.44" y="44.86" width="45.86" height="11.16" rx="5.56" ry="5.56" transform="translate(71.91 259.91) rotate(-48.66)"/><rect class="cls-1" x="278.76" y="28.81" width="45.86" height="11.16" rx="5.56" ry="5.56" transform="translate(119.8 277.53) rotate(-59.7)"/><rect class="cls-1" x="252.9" y="16.87" width="45.86" height="11.16" rx="5.56" ry="5.56" transform="translate(182.89 283.12) rotate(-75.03)"/></g></g></svg>