<svg xmlns="http://www.w3.org/2000/svg" viewBox="0 0 57 57"><defs><style>.cls-1{fill:#fff;}</style></defs><title>Asset 21</title><g id="Layer_2" data-name="Layer 2"><g id="Layer_3" data-name="Layer 3"><path class="cls-1" d="M57,25.8q0,2.7,0,5.4a11.69,11.69,0,0,0-.41,1.26c-.34,1.61-.5,3.26-1,4.82a26.22,26.22,0,0,1-4.09,8C46.66,51.62,40.4,55.61,32.37,56.6a6,6,0,0,0-1.17.4H25.8a4.66,4.66,0,0,0-1.17-.39A21.73,21.73,0,0,1,19,55.3a25.05,25.05,0,0,1-7.31-3.82C5.37,46.66,1.39,40.4.4,32.37A6,6,0,0,0,0,31.2V25.8a4.77,4.77,0,0,0,.39-1.17A22.3,22.3,0,0,1,1.69,19a25.08,25.08,0,0,1,3.81-7.3C10.33,5.37,16.6,1.39,24.63.39A6.08,6.08,0,0,0,25.8,0h5.4a4.68,4.68,0,0,0,1.17.39A21.9,21.9,0,0,1,38,1.7a25.09,25.09,0,0,1,7.31,3.82c6.36,4.82,10.33,11.09,11.33,19.12A6.09,6.09,0,0,0,57,25.8Zm-5.35,2.75C51.87,15.74,41,5.63,29.18,5.31A23.51,23.51,0,0,0,5.29,28.7a23.54,23.54,0,0,0,23.37,23C41.05,51.63,51.85,41.11,51.65,28.55Z"/><path class="cls-1" d="M16,24.3a3.07,3.07,0,0,1,1.95-2.77,2.29,2.29,0,0,1,2.61.66c2.39,2.52,4.73,5.09,7.06,7.67.94,1,.89,1,1.85,0q3.47-3.84,7-7.62a2.32,2.32,0,0,1,2.75-.63c1.27.62,2,1.54,1.73,2.66a4.26,4.26,0,0,1-1,1.89c-2.2,2.47-4.47,4.87-6.71,7.3-.85.93-1.67,1.89-2.54,2.81-1.47,1.55-2.93,1.55-4.4,0Q21.6,31.18,17,26.06A8.66,8.66,0,0,1,16,24.3Z"/></g></g></svg>