<svg xmlns="http://www.w3.org/2000/svg" viewBox="0 0 57 57"><defs><style>.cls-1{fill:#eab55c;}</style></defs><title>Asset 25</title><g id="Layer_2" data-name="Layer 2"><g id="Layer_3" data-name="Layer 3"><path class="cls-1" d="M0,31.2q0-2.7,0-5.4a11.69,11.69,0,0,0,.41-1.26c.34-1.61.5-3.26,1-4.82a26.22,26.22,0,0,1,4.09-8C10.34,5.38,16.6,1.39,24.63.4A6,6,0,0,0,25.8,0h5.4a4.66,4.66,0,0,0,1.17.39A21.73,21.73,0,0,1,38,1.7a25.05,25.05,0,0,1,7.31,3.82C51.63,10.34,55.61,16.6,56.6,24.63A6,6,0,0,0,57,25.8v5.4a4.77,4.77,0,0,0-.39,1.17,22.3,22.3,0,0,1-1.3,5.6,25.08,25.08,0,0,1-3.81,7.3C46.67,51.63,40.4,55.61,32.37,56.61A6.08,6.08,0,0,0,31.2,57H25.8a4.68,4.68,0,0,0-1.17-.39A21.9,21.9,0,0,1,19,55.3a25.09,25.09,0,0,1-7.31-3.82C5.37,46.67,1.39,40.39.39,32.37A6.09,6.09,0,0,0,0,31.2Zm5.35-2.75C5.13,41.26,16,51.37,27.82,51.69A23.51,23.51,0,0,0,51.71,28.3a23.54,23.54,0,0,0-23.37-23C15.95,5.37,5.15,15.89,5.35,28.45Z"/><path class="cls-1" d="M41,32.7a3.07,3.07,0,0,1-1.95,2.77,2.29,2.29,0,0,1-2.61-.66c-2.39-2.52-4.73-5.09-7.06-7.67-.94-1-.89-1-1.85,0q-3.47,3.84-7,7.62a2.32,2.32,0,0,1-2.75.63c-1.27-.62-2-1.54-1.73-2.66a4.26,4.26,0,0,1,1-1.89c2.2-2.47,4.47-4.87,6.71-7.3.85-.93,1.67-1.89,2.54-2.81,1.47-1.55,2.93-1.55,4.4,0Q35.4,25.82,40,30.94A8.66,8.66,0,0,1,41,32.7Z"/></g></g></svg>