<svg xmlns="http://www.w3.org/2000/svg" viewBox="0 0 191.46 45.16"><defs><style>.cls-1{fill:#eab55c;fill-rule:evenodd;}</style></defs><title>Asset 6</title><g id="Layer_2" data-name="Layer 2"><g id="Layer_1-2" data-name="Layer 1"><path class="cls-1" d="M164.48,15.51c1-4.23,1-12.75,8-10.14.25.51.68,1.07.1,1.4,3.72,9.39,6.76,21.38,18.38,24.81.35.59-.13.95-.62.84.33.74.75.14,1.12.26C190,37.22,184,35.16,180.2,34.22c-.53,3.39,1,13.21-5.24,8.42C166.69,42,163.69,26.55,152,25c.9-.11.77-.79,1.41-1.44a54.6,54.6,0,0,0-5.28-6.7C151.9,11.64,159.27,14.71,164.48,15.51Z"/><path class="cls-1" d="M48.19,40.2c.87.74.74,2.86,1.73,3.43,3.66-.77,5.17-3.77,7.81-5.59,1,1.51,2.17.65,3.26.36.93,2.06,3.71,2.36,6,3.72,0-1.2,1.26-2.08,2-3.11-5.78-7.29-2.78-15.46-3.42-24,1-1.65.87-3,1.4-4.84C66,9.05,65.25,7.53,63.1,8c-1.15,1.66-2.43,5.25-5.83,5.45.37.49-.88,1.63-1.34,2.17-2.36-2.81-5.5-5.8-8.88-6.17a11.27,11.27,0,0,1-1.79,2.79c-.14,5.87,2.93,12.42,5.63,16.48C49.79,34.09,49.63,36.11,48.19,40.2ZM50.62,18.1c.92.74,2.71,1.76,2.45,3.08C52.38,20,50.56,20.35,50.62,18.1Z"/><path class="cls-1" d="M124.38,2.84c.26.45.77.32.58.66-.37.33-.76-.39-1.13.22.15,1.42,1.05,2.89-.88,3.55.9,2.52-.12,3.87-.08,6-7-.73-16.23-.52-17.61,8.65l1.16,1.33c.45.28.87-.81,1.31-.39-.92.85.27.8.22,1.77,4.5,2.44,8.64,6.18,12.38,5.09,1,1.31,3.41.36,5.33,2.32-.27.41-1.38.7-.54,1.28.51.43,1-.95,1.51-.17-1.37,1.67.11,3.75,1,5.76.21-.81,1.34-.17,1,.33-.31-.37.92,2.66.82,3.6A14.35,14.35,0,0,1,132.33,45q.55-.85,1.14.17c1.5-4.62,3.69-7.57,4.32-11.75,3.65-.6,8.14.2,10.13-3.94-.26-.45-.77-.32-.58-.66,1.25.6-.22-1.07,1.29-1.55-.91-1.37-1.76.19-2.66-.77,1.5,0,1.79-3.5,3.51-4.71-.47-1.14-.66-1-.41-2-3.86-1.19-7.72-1.78-11.59-3.43C139.54,9.1,128.3-6.36,124.38,2.84Zm-6.23,21.33c.77-1,2.18.2,2.83-.17C121.38,25.44,119,24.58,118.16,24.17Z"/><path class="cls-1" d="M16.09,16.2c.54-4.32-.45-12.79,6.75-11,.31.48.8,1,.27,1.37C27.89,15.43,32.32,27,44.26,29c.42.54,0,1-.52.91.42.7.76.05,1.14.12-.92,4.69-7.12,3.37-11,2.88-.13,3.43,2.52,13-4.22,9-8.29.39-13.07-14.62-24.88-14.74.88-.21.68-.88,1.23-1.6a54,54,0,0,0-6-6C3.14,13.87,10.81,16,16.09,16.2Z"/><path class="cls-1" d="M79.47,7.62c-.91,7.81,3.32,10.8,4.53,16.62-2.63,3-4.73,7.08-3.67,12.05,3.82-1,5.91-4.59,9.45-6,2.74,3.14,6.35,6.63,10.77,6.07.13-7.57-5.79-14.43,2.5-19-2-5-7.29-6.8-11.19-2.55C88.67,11.65,85.1,5.25,79.47,7.62Zm6.06,5.8c.86.51,2.85,2.19,3,4.23C86.66,17.13,85.72,14.67,85.53,13.41Z"/></g></g></svg>