<svg xmlns="http://www.w3.org/2000/svg" viewBox="0 0 29.32 31.63"><defs><style>.cls-1{fill:#eab55c;fill-rule:evenodd;}</style></defs><title>Asset 26</title><g id="Layer_2" data-name="Layer 2"><g id="Layer_1-2" data-name="Layer 1"><path class="cls-1" d="M29.21,15.12C26.38-5,4.43-5.27,2.12,15.66-9.69,40.24,31.8,33.55,29.21,15.12ZM6.83,9.71c9-21.57,33.11,12.51,9.66,16.23C32.86,20.68,17-4.24,6.83,9.71ZM17.9,17c1.08-3.75-2.78-5.59-4-7.57,3.68-1,4.56.94,7.3,2.16C25.44,20.67,12.83,25,5.89,24,2.1,15.59,15.68,8.32,17.9,17ZM3.3,19.18c-.6,5.11,2.38,9.51,6.36,8.66-1.83,1.15-4.48.14-6.59,0C1.24,25.39,1.91,21.65,3.3,19.18Z"/></g></g></svg>