<svg xmlns="http://www.w3.org/2000/svg" viewBox="0 0 148.52 160.21"><defs><style>.cls-1{fill:#eab55c;fill-rule:evenodd;}</style></defs><title>Asset 15</title><g id="Layer_2" data-name="Layer 2"><g id="Layer_1-2" data-name="Layer 1"><path class="cls-1" d="M.59,83.63C14.93,185.47,126.1,186.92,137.77,80.89,197.61-43.6-12.55-9.72.59,83.63ZM113.92,111C68.17,220.29-53.77,47.68,65,28.83-17.89,55.5,62.56,181.7,113.92,111ZM57.86,74c-5.46,19,14.09,28.3,20.27,38.37-18.64,5.3-23.11-4.79-37-11-21.46-45.89,42.37-67.68,77.54-63C137.88,81.26,69.13,118.1,57.86,74Zm74-11c3-25.9-12.06-48.19-32.21-43.84,9.3-5.83,22.7-.7,33.4,0C142.26,31.61,138.85,50.57,131.81,63.08Z"/></g></g></svg>