<svg xmlns="http://www.w3.org/2000/svg" viewBox="0 0 184.51 125.88"><defs><style>.cls-1{fill:#89c6c5;}</style></defs><title>Asset 10</title><g id="Layer_2" data-name="Layer 2"><g id="Layer_1-2" data-name="Layer 1"><path class="cls-1" d="M157.19,55.53A1.54,1.54,0,0,0,158.72,54V39.45a1.54,1.54,0,0,0-1.54-1.54h-41.6a1.54,1.54,0,0,0-1.54,1.54v20a1.54,1.54,0,0,0,1.54,1.54h41.6a1.54,1.54,0,1,0,0-3.07H117.12V41h38.53V54A1.54,1.54,0,0,0,157.19,55.53Z"/><path class="cls-1" d="M175.55,85.65a1.53,1.53,0,0,0-1.26-.76l-2.22-.09V35.32a1.54,1.54,0,1,0-3.07,0V86.27a1.54,1.54,0,0,0,1.47,1.53l2.86.12,2.82,4.79h-11.2a25.26,25.26,0,0,0-1.16-4.5,26.45,26.45,0,0,0-5.43-9,27.46,27.46,0,0,0-20.18-9,26.52,26.52,0,0,0-18.95,7.89,27.57,27.57,0,0,0-8,19,26.67,26.67,0,0,0,2,10.7,27.46,27.46,0,0,0,5.83,8.84,27.14,27.14,0,0,0,8.57,5.92,26.19,26.19,0,0,0,10.52,2.19,26.51,26.51,0,0,0,10.59-2.12,26,26,0,0,0,7.68-5.14,31.35,31.35,0,0,0,7.72-12,1.54,1.54,0,0,0-2.9-1,28.17,28.17,0,0,1-6.94,10.82,22.57,22.57,0,0,1-16.14,6.4,23.54,23.54,0,0,1-16.9-7.19,24.27,24.27,0,0,1-7-17.34c.26-13.39,10.74-23.88,23.86-23.88a24.38,24.38,0,0,1,17.92,8,22.56,22.56,0,0,1,6,17.39,1.54,1.54,0,1,0,3.06.28,25.48,25.48,0,0,0,.09-3.21h13.58a1.54,1.54,0,0,0,1.32-2.31Z"/><path class="cls-1" d="M184.2,9.35a1.54,1.54,0,0,0-1.22-.6H101.16a1.54,1.54,0,0,0-1.54,1.55l.16,20a1.54,1.54,0,0,0,1.54,1.52H105V43.92l-51.37.62V28a1.54,1.54,0,0,0-3.07,0v19.5s0,0,0,0v0c-.05.15-.55.74-2.19,1.29a19.63,19.63,0,0,1-6.07.87,19.63,19.63,0,0,1-6.07-.87c-1.64-.55-2.14-1.14-2.19-1.29V24.23a79.13,79.13,0,0,0,8.27.42A65.33,65.33,0,0,0,56.7,23.22c4.71-1.12,7-2.7,7-4.83V12.32a1.54,1.54,0,0,0-3.07,0v6c-.23.34-1.56,1.28-5.41,2.1a65,65,0,0,1-12.93,1.17,65,65,0,0,1-12.93-1.17c-3.85-.82-5.18-1.76-5.41-2.1V9.8a21,21,0,0,0,3.93,1.29,65.33,65.33,0,0,0,14.41,1.42A65.33,65.33,0,0,0,56.7,11.09c4.71-1.12,7-2.7,7-4.83s-2.29-3.71-7-4.83A65.33,65.33,0,0,0,42.29,0,65.33,65.33,0,0,0,27.88,1.42c-4.71,1.12-7,2.7-7,4.83h0V17.59s0,0,0,.06v.8s0,0,0,.06,0,.06,0,.09h0c.16,2,2.45,3.52,7,4.6,1,.23,2,.43,3.07.6v23a22.78,22.78,0,0,0-9,11.34,17.16,17.16,0,0,0-1,6.37,19.38,19.38,0,0,0,7.21,14.81L.42,110.42a1.54,1.54,0,0,0-.36.72c-.05.27-.46,2.71,1.8,5.56,1.9,2.4,5.12,4.36,9.58,5.85,5.68,1.9,13.39,3,22.93,3.32h0a1.54,1.54,0,0,0,1.51-1.27l1.31-7.47a1.54,1.54,0,0,0-3-.53l-1.08,6.15c-8.48-.35-15.36-1.36-20.47-3C8.83,118.48,6,116.83,4.4,115a5.07,5.07,0,0,1-1.32-2.9L30.56,81.2a22.26,22.26,0,0,0,9.24,3.68l-4.46,25.37a1.54,1.54,0,0,0,3,.53L42.89,85H99.25a1.54,1.54,0,1,0,0-3.07H41.7a26.8,26.8,0,0,1-8.8-3c-5.71-3.24-8.73-8.12-9-14.52t0-.08c0-.08-.59-8.14,8-14.44a7.49,7.49,0,0,0,2.88,1.75,22,22,0,0,0,7.47,1.18,22,22,0,0,0,7.47-1.18c3.36-1.26,3.87-3.07,3.87-4h0L105,47V94.25a1.54,1.54,0,0,0,1.54,1.54H109a1.54,1.54,0,1,0,0-3.07h-1V31.78h4a1.54,1.54,0,1,0,0-3.07h-9.22l-.14-16.89H181l-4.65,16.89H157.19a1.54,1.54,0,0,0,0,3.07h20.29A1.54,1.54,0,0,0,179,30.65l5.5-20A1.54,1.54,0,0,0,184.2,9.35ZM29.36,4.24A65,65,0,0,1,42.29,3.07,65,65,0,0,1,55.22,4.24c3.57.76,5,1.62,5.34,2-.37.4-1.78,1.26-5.34,2A65,65,0,0,1,42.29,9.44,65,65,0,0,1,29.36,8.27c-3.57-.76-5-1.62-5.34-2C24.39,5.86,25.79,5,29.36,4.24Z"/><path class="cls-1" d="M68.13,88.28A17.66,17.66,0,1,0,85.8,105.94,17.68,17.68,0,0,0,68.13,88.28Zm0,32.26a14.59,14.59,0,1,1,14.59-14.59A14.61,14.61,0,0,1,68.13,120.54Z"/><path class="cls-1" d="M25.18,94.37a1.54,1.54,0,0,0-2.11.53l-5.73,9.58-3.94,6.61-1.3,2.2c-.66,1.13-.7,1.2-.7,1.63a1.54,1.54,0,0,0,2.92.66c.49-.89,7.05-11.86,11.39-19.11A1.54,1.54,0,0,0,25.18,94.37Z"/><path class="cls-1" d="M24.83,118.36a1.53,1.53,0,0,0,1.87-1.1l6.45-25a1.54,1.54,0,0,0-3-.77l-6.45,25A1.54,1.54,0,0,0,24.83,118.36Z"/></g></g></svg>