<svg xmlns="http://www.w3.org/2000/svg" viewBox="0 0 146.97 6.58"><defs><style>.cls-1{fill:#89c6c5;}</style></defs><title>Asset 35</title><g id="Layer_2" data-name="Layer 2"><g id="Layer_1-2" data-name="Layer 1"><path class="cls-1" d="M.6,2.78H.49A.32.32,0,0,1,.14,3C0,3.4-.06,3.71.32,4H.43c.05.14.16.24.21.37a3.06,3.06,0,0,0,.7-.16V4a5.25,5.25,0,0,0,.59-.44,1.39,1.39,0,0,0,1-.71c0-.11.21-.2,0-.28V2.4H3a3.1,3.1,0,0,0,1.5-.14.14.14,0,0,1,.11.19,5.4,5.4,0,0,1-.73.8c-.08.25-.49.21-.48.54S4,4,4,4.36C5.18,4.42,6.21,3.6,5.18,3c0-.28-.3-.37-.43-.57.32-.36,1.59.11,2-.4a.89.89,0,0,0,.57.11V2.07c.11,0,.13.08.22.1s0-.18.12-.18,0,.18.11.19c.07-.15.37-.09.64-.07,0,.75-1.05.59-1.22,1.2.25.15.21.2.09.46.58-.13.35.33.79.3C9.4,4,10,2.63,8.89,2.13c.27,0,.34-.15.69-.07,0,.13.76,0,.92-.06.53.11,1-.14,1.26,0a1.61,1.61,0,0,1-1,1.07c-.52,0-.62.76-.51,1-.27.06.27.44,0,.55.28,0,.35.18.57,0,.18,0,.08.24.33.19,0,.07,0,.18.11.19.2-.34,1.13,0,1.17-.51,1-.46.67-2-.11-2.39V2.05c.13-.12.68-.25.34,0a23.16,23.16,0,0,1,3.08.37c0,.09-.1.11-.12.18s-.28.08-.46.08c.22.34-.22.36-.16.82-.07,0-.14,0-.12.09h-.11a8.29,8.29,0,0,1-.94.43l0,.37c-.28.24.06.54.55.48-.09.24.23.18.33.29a.14.14,0,0,1,.11.19c.47-.08.52.08.81-.16A.7.7,0,0,1,16,5.05a6.27,6.27,0,0,0,.77-1.2h0V3.66c.15-.28-.17-.23-.21-.37,0-.3-.37-.38-.54-.57-.14-.57,1.65.06,1.83.15l0,.37a.7.7,0,0,0-.6.44l-.07,0a3.06,3.06,0,0,0,.27,1.9c.19,0,.33.06.4,0,.56-.12,1.24-.14,1.52-.5a1.43,1.43,0,0,0-.59-1.95c.05-.16-.16-.24,0-.28,1.07,0,1.46,0,2.18,0,.38.21.6,0,1,.12a2.34,2.34,0,0,1,.81-.07c-.43.45-.2,1.09-1.2,1.16-.06.22.2.21.09.46h0a2.68,2.68,0,0,1,.07.27,1,1,0,0,1,.25.39c1.07-.15,1.85,0,2.22-.85-.06-.43-.52-.56-.52-1a.76.76,0,0,1-.45-.11c0-.06,0-.11-.11-.1V2.85c1.38.17,2-.07,3.32.11.38.11-.32,0-.13.27-.11,0-.14.07-.23.08,0,.55-.52.63-.74,1h-.11c-.4,0-.2.59-.28.91.09.33,0,.3.2.56a3.9,3.9,0,0,0,2.07-.21.15.15,0,0,1,.05-.06,6.05,6.05,0,0,0,.61-1.29,6.12,6.12,0,0,1-.33-.57c0-.07,0-.18-.11-.19s-.18-.16-.22-.28h-.11c0-.15-.31-.06-.33-.19l.69,0a2.67,2.67,0,0,0,.92-.06c.27,0,.7-.16.92,0a2.84,2.84,0,0,1-.5.81,3.61,3.61,0,0,1-.51.52,1.62,1.62,0,0,0,.21,1.31c.2.08.38.15.55,0a4.6,4.6,0,0,1,1.13-.23,2.45,2.45,0,0,0,.39-.69,2,2,0,0,0,.1-.37,1.66,1.66,0,0,1-.26-.7c.07-.43-.77-.2-.65-.66.73,0,1.29.08,2.4.08.13.37-.34.21-.37.45-.33.24-.4.69-.76.9a1.73,1.73,0,0,0-.34.71,4.63,4.63,0,0,0,0,1,.84.84,0,0,0,.25.22c.16-.4,1,.45,1.25.22-.12-.12.14-.26.14-.45h.11a1.51,1.51,0,0,1,.79,0L33.4,6l-.06-.09a.94.94,0,0,0,.3-1.37c0-.64-.43-.92-.86-1.22V3.16c0-.2.3-.19.58-.17,1-.07,1.73.21,2.3-.11-.12.33.6.19.68.11,0,.11,0,.26.1.28-.14.49-.26,1-.86,1.08s.06.52-.27.73a1.37,1.37,0,0,0,.79.21A4.69,4.69,0,0,0,38,5a1.46,1.46,0,0,0-.83-1.77V3.12c-.07,0-.14,0-.11-.1A21.09,21.09,0,0,1,40.83,3a1,1,0,0,0,0,.83c-.32.14-.73.2-.72.62H40l-.05.27a1.51,1.51,0,0,0,.23.46c.11.15.24.43.44.5l.26.09c.34,0,.68,0,1-.05l.26-.07a2.55,2.55,0,0,0,.43-1.32v0c0-.11-.09-.21-.13-.32h-.05c.1-.31-.22-.31-.32-.47V3.36a.72.72,0,0,1-.55-.48c.31.24.76.06,1.09.14A3.75,3.75,0,0,1,44,3h0a.52.52,0,0,1,0,.48,2.29,2.29,0,0,0,.66,1.78l0,0h.11c.11,0,.14-.07.23-.08a.92.92,0,0,0,.55.11l.12-.12a3.49,3.49,0,0,1,.2-1.25c-.35,0-.22-.31-.32-.47s-.16-.26-.32-.33a6.2,6.2,0,0,1,2,.1c0,.25.18.19,0,.37,0,.17.12.21.1.37-.36.09-.79.46-.5.81-.07,0-.14,0-.12.09a.47.47,0,0,0-.15.64c0,.31.09.89.28,1l.08,0h0c0-.16.33-.06.67.07a2.62,2.62,0,0,0,.43-.07c.16-.26.48-.31.42-.6.26,0,.51,0,.75.07a1.8,1.8,0,0,0,.19-.28,1.41,1.41,0,0,0,.14-.77,2,2,0,0,0-2-1.62A18.87,18.87,0,0,1,51.33,3a1.89,1.89,0,0,0-.08.71.72.72,0,0,1-.21.14,3.28,3.28,0,0,0-.07.42h0c0,.2,0,.61.31.72.55-.09.78-.56,1.29-.14a1.55,1.55,0,0,0-.13-1.89c.51.23,1.6-.14,2.14.26-.13,0-.13.14-.13.27s-.2.18,0,.37a5.68,5.68,0,0,0-.76,1.35V5.3a1.05,1.05,0,0,0-.06.34,1.55,1.55,0,0,0,.46.62,1.07,1.07,0,0,0,.82-.09c0-.16.27-.24.6-.28a2.43,2.43,0,0,0,1-1.18c.06-.41-.07-.79-.71-.81.1-.25-.22-.19-.21-.37V3.43c0-.31-.69-.07-.67-.39a7.52,7.52,0,0,0,2.41,0c.51.15.09.45.31.75-.09,0-.23,0-.23.08-.23.1-.64.29-.37.54-.14,0-.08.1,0,.18l-.09.14v0a1.71,1.71,0,0,0,.36,1.05h.13a.26.26,0,0,0-.07.09l.1.1c.19,0,.58-.09.55-.26a.85.85,0,0,1,.66-.13,1.41,1.41,0,0,0,.66-.51,2.29,2.29,0,0,0-.49-2c.44-.13,1.21,0,1.61-.13h.23v.18c.08.45-.4.42-.27.91v.18a.13.13,0,0,1,0,.15,1.63,1.63,0,0,0,.17.43,2.09,2.09,0,0,1,.14.28l0,0v.09a.67.67,0,0,1,0,.13c0,.05.08.08.19.06.15-.19-.08-.13.46-.08V5.08c.48.1.47-.23.88-.18a.76.76,0,0,0,.3-.31.67.67,0,0,0,0-.11h.06a1.66,1.66,0,0,0,0-1.18,4.9,4.9,0,0,0-.8-.4A16.68,16.68,0,0,1,64,2.77a2.84,2.84,0,0,1-.17,1h0a2.58,2.58,0,0,0-.22.68,5.48,5.48,0,0,0,.28.7h0v0h0s0,.06.1,0a.77.77,0,0,0,.92-.15c.37,0,.35.18.57,0l.19,0a2.39,2.39,0,0,0,.42-1.77c-.19-.4-.95-.38-1.17-.76l.8,0c.55,0,.56,0,.81-.25-.09.36.62.13.91.21a.53.53,0,0,0,.21,0c0,.19,0,.39,0,.47a3.7,3.7,0,0,0,.23,1.44.08.08,0,0,1,.06,0,.33.33,0,0,0,.16.12l.86-.06a1,1,0,0,0,.32-.29,1.29,1.29,0,0,0-.74-1.74l.09,0c.17,0,.2-.1.34,0v0l.18,0a5.85,5.85,0,0,0,1.32-.06c.1-.09.4,0,.57,0s.09.22.1.37c-.31-.08-.36.08-.51.14a1.82,1.82,0,0,0-.31,1.09.06.06,0,0,1,0,.06.4.4,0,0,0,.15.28,1.57,1.57,0,0,0,1.36,0c.43,0,.52-.25.6-.53.37-.37,0-.9.07-1.38-.26,0-.43,0-.45-.2h.11c.44-.07.91-.12,1.37-.17,0,.09,0,.25,0,.27l-.09,0a.06.06,0,0,1,0,.06,1.24,1.24,0,0,0-.26.64.07.07,0,0,1-.05.07,1.18,1.18,0,0,0-.15.52.81.81,0,0,0,.31.43.06.06,0,0,1,.05,0l.06,0a6.11,6.11,0,0,1,1-.08A1.29,1.29,0,0,0,74.61,2l.29,0A6.81,6.81,0,0,1,76,2.1V.73a27,27,0,0,1-4,.37h-.11A26.68,26.68,0,0,0,68.11.51a2.63,2.63,0,0,0-1.37,0h-.23a22.55,22.55,0,0,0-3.44,0h-.23c-2.62,0-4.38.09-7,0V.31c-.4.15-.67-.09-1.26,0-.94-.14-1.29.16-1.95,0-.28,0-.82-.14-.92.06l-.57,0-.69,0c0,.07,0,.18-.12.18s0-.11-.11-.1a5.91,5.91,0,0,0-1.38,0C48,.35,47.64.44,46.69.39,46,.47,45,.35,44.39.5h-.11c.09-.15-.53-.17-.46,0h-.23a3.13,3.13,0,0,1-.92,0h-.11l-.69,0c-.09,0-.23,0-.23.08a2.7,2.7,0,0,0-1.37,0h-.11c-.93-.08-1.76.15-2.76.1V.64h-.11c-.92.07-3.8-.22-4.71.22,0,0,.12-.18.12-.18a12.94,12.94,0,0,0-3.21,0c-1.76.06-3.51.06-5.39.1H24C21.55.62,20.36.83,18,.64c0-.16-.1-.22-.33-.19H17.6V.35c-.45,0-1.64.4-1.4,0A11.27,11.27,0,0,0,11.86.14,15.44,15.44,0,0,0,7.49.37c.06,0-1.69.21-1.83.21C2.6.62,2.23.71,0,.81V2.27a6.71,6.71,0,0,1,.61.42Z"/><path class="cls-1" d="M71.6,2.78h-.11a.32.32,0,0,1-.35.17c-.11.45-.19.76.18,1h.11c.05.14.16.24.21.37a3.06,3.06,0,0,0,.7-.16V4a5.25,5.25,0,0,0,.59-.44,1.39,1.39,0,0,0,1-.71c0-.11.21-.2,0-.28V2.4H74a3.1,3.1,0,0,0,1.5-.14.14.14,0,0,1,.11.19,5.4,5.4,0,0,1-.73.8c-.08.25-.49.21-.48.54S75,4,75,4.36c1.21.07,2.24-.75,1.21-1.34,0-.28-.3-.37-.43-.57.32-.36,1.59.11,2-.4a.89.89,0,0,0,.57.11V2.07c.11,0,.13.08.22.1s0-.18.12-.18,0,.18.11.19c.07-.15.37-.09.64-.07,0,.75-1.05.59-1.22,1.2.25.15.21.2.09.46.58-.13.35.33.79.3,1.36-.07,1.95-1.45.86-2,.27,0,.34-.15.69-.07,0,.13.76,0,.92-.06.53.11,1-.14,1.26,0a1.61,1.61,0,0,1-1,1.07c-.52,0-.62.76-.51,1-.27.06.27.44,0,.55.28,0,.35.18.57,0,.18,0,.08.24.33.19,0,.07,0,.18.11.19.2-.34,1.13,0,1.17-.51,1-.46.67-2-.11-2.39V2.05c.13-.12.68-.25.34,0a23.16,23.16,0,0,1,3.08.37c0,.09-.1.11-.12.18s-.28.08-.46.08c.22.34-.22.36-.16.82-.07,0-.14,0-.12.09h-.11a8.29,8.29,0,0,1-.94.43l0,.37c-.28.24.06.54.55.48-.09.24.23.18.33.29a.14.14,0,0,1,.11.19c.47-.08.52.08.81-.16A.7.7,0,0,1,87,5.05a6.27,6.27,0,0,0,.77-1.2h0V3.66c.15-.28-.17-.23-.21-.37,0-.3-.37-.38-.54-.57-.14-.57,1.65.06,1.83.15l0,.37a.7.7,0,0,0-.6.44l-.07,0a3.06,3.06,0,0,0,.27,1.9c.19,0,.33.06.4,0,.56-.12,1.24-.14,1.52-.5a1.43,1.43,0,0,0-.59-1.95c.05-.16-.16-.24,0-.28,1.07,0,1.46,0,2.18,0,.38.21.6,0,1,.12a2.34,2.34,0,0,1,.81-.07c-.43.45-.2,1.09-1.2,1.16-.06.22.2.21.09.46h0a2.68,2.68,0,0,1,.07.27,1,1,0,0,1,.25.39c1.07-.15,1.85,0,2.22-.85-.06-.43-.52-.56-.52-1a.76.76,0,0,1-.45-.11c0-.06,0-.11-.11-.1V2.85c1.38.17,2-.07,3.32.11.38.11-.32,0-.13.27-.11,0-.14.07-.23.08,0,.55-.52.63-.74,1h-.11c-.4,0-.2.59-.28.91.09.33,0,.3.2.56a3.9,3.9,0,0,0,2.07-.21.15.15,0,0,1,.05-.06,6.05,6.05,0,0,0,.61-1.29,6.12,6.12,0,0,1-.33-.57c0-.07,0-.18-.11-.19s-.18-.16-.22-.28h-.11c0-.15-.31-.06-.33-.19l.69,0a2.67,2.67,0,0,0,.92-.06c.27,0,.7-.16.92,0a2.84,2.84,0,0,1-.5.81,3.61,3.61,0,0,1-.51.52,1.62,1.62,0,0,0,.21,1.31c.2.08.38.15.55,0a4.6,4.6,0,0,1,1.13-.23,2.45,2.45,0,0,0,.39-.69,2,2,0,0,0,.1-.37,1.66,1.66,0,0,1-.26-.7c.07-.43-.77-.2-.65-.66.73,0,1.29.08,2.4.08.13.37-.34.21-.37.45-.33.24-.4.69-.76.9a1.73,1.73,0,0,0-.34.71,4.63,4.63,0,0,0,0,1,.84.84,0,0,0,.25.22c.16-.4,1,.45,1.25.22-.12-.12.14-.26.14-.45h.11a1.51,1.51,0,0,1,.79,0l.2-.08-.06-.09a.94.94,0,0,0,.3-1.37c0-.64-.43-.92-.86-1.22V3.16c0-.2.3-.19.58-.17,1-.07,1.73.21,2.3-.11-.12.33.6.19.68.11,0,.11,0,.26.1.28-.14.49-.26,1-.86,1.08s.06.52-.27.73a1.37,1.37,0,0,0,.79.21A4.69,4.69,0,0,0,109,5a1.46,1.46,0,0,0-.83-1.77V3.12c-.07,0-.14,0-.11-.1A21.09,21.09,0,0,1,111.83,3a1,1,0,0,0,0,.83c-.32.14-.73.2-.72.62H111l-.05.27a1.51,1.51,0,0,0,.23.46c.11.15.24.43.44.5l.26.09c.34,0,.68,0,1-.05l.26-.07a2.55,2.55,0,0,0,.43-1.32v0c0-.11-.09-.21-.13-.32h-.05c.1-.31-.22-.31-.32-.47V3.36a.72.72,0,0,1-.55-.48c.31.24.76.06,1.09.14A3.75,3.75,0,0,1,115,3h0a.52.52,0,0,1,0,.48,2.29,2.29,0,0,0,.66,1.78l0,0h.11c.11,0,.14-.07.23-.08a.92.92,0,0,0,.55.11l.12-.12a3.49,3.49,0,0,1,.2-1.25c-.35,0-.22-.31-.32-.47s-.16-.26-.32-.33a6.2,6.2,0,0,1,2,.1c0,.25.18.19,0,.37,0,.17.12.21.1.37-.36.09-.79.46-.5.81-.07,0-.14,0-.12.09a.47.47,0,0,0-.15.64c0,.31.09.89.28,1l.08,0h0c0-.16.33-.06.67.07a2.62,2.62,0,0,0,.43-.07c.16-.26.48-.31.42-.6.26,0,.51,0,.75.07a1.8,1.8,0,0,0,.19-.28,1.41,1.41,0,0,0,.14-.77,2,2,0,0,0-2-1.62A18.87,18.87,0,0,1,122.33,3a1.89,1.89,0,0,0-.08.71.72.72,0,0,1-.21.14,3.28,3.28,0,0,0-.07.42h0c0,.2,0,.61.31.72.55-.09.78-.56,1.29-.14a1.55,1.55,0,0,0-.13-1.89c.51.23,1.6-.14,2.14.26-.13,0-.13.14-.13.27s-.2.18,0,.37a5.68,5.68,0,0,0-.76,1.35V5.3a1.05,1.05,0,0,0-.06.34,1.55,1.55,0,0,0,.46.62,1.07,1.07,0,0,0,.82-.09c0-.16.27-.24.6-.28a2.43,2.43,0,0,0,1-1.18c.06-.41-.07-.79-.71-.81.1-.25-.22-.19-.21-.37V3.43c0-.31-.69-.07-.67-.39a7.52,7.52,0,0,0,2.41,0c.51.15.09.45.31.75-.09,0-.23,0-.23.08-.23.1-.64.29-.37.54-.14,0-.08.1,0,.18l-.09.14v0a1.71,1.71,0,0,0,.36,1.05h.13a.26.26,0,0,0-.07.09l.1.1c.19,0,.58-.09.55-.26a.85.85,0,0,1,.66-.13,1.41,1.41,0,0,0,.66-.51,2.29,2.29,0,0,0-.49-2c.44-.13,1.21,0,1.61-.13h.23v.18c.08.45-.4.42-.27.91v.18a.13.13,0,0,1,0,.15,1.63,1.63,0,0,0,.17.43,2.09,2.09,0,0,1,.14.28l0,0v.09a.67.67,0,0,1,0,.13c0,.05.08.08.19.06.15-.19-.08-.13.46-.08V5.08c.48.1.47-.23.88-.18a.76.76,0,0,0,.3-.31.67.67,0,0,0,0-.11h.06a1.66,1.66,0,0,0,0-1.18,4.9,4.9,0,0,0-.8-.4A16.68,16.68,0,0,1,135,2.77a2.84,2.84,0,0,1-.17,1h0a2.58,2.58,0,0,0-.22.68,5.48,5.48,0,0,0,.28.7h0v0h0s0,.06.1,0a.77.77,0,0,0,.92-.15c.37,0,.35.18.57,0l.19,0a2.39,2.39,0,0,0,.42-1.77c-.19-.4-.95-.38-1.17-.76l.8,0c.55,0,.56,0,.81-.25-.09.36.62.13.91.21a.53.53,0,0,0,.21,0c0,.19,0,.39,0,.47a3.7,3.7,0,0,0,.23,1.44.08.08,0,0,1,.06,0,.33.33,0,0,0,.16.12l.86-.06a1,1,0,0,0,.32-.29,1.29,1.29,0,0,0-.74-1.74l.09,0c.17,0,.2-.1.34,0v0l.18,0a5.85,5.85,0,0,0,1.32-.06c.1-.09.4,0,.57,0s.09.22.1.37c-.31-.08-.36.08-.51.14a1.82,1.82,0,0,0-.31,1.09.06.06,0,0,1,0,.06.4.4,0,0,0,.15.28,1.57,1.57,0,0,0,1.36,0c.43,0,.52-.25.6-.53.37-.37,0-.9.07-1.38-.26,0-.43,0-.45-.2h.11c.44-.07.91-.12,1.37-.17,0,.09,0,.25,0,.27l-.09,0a.06.06,0,0,1,0,.06,1.24,1.24,0,0,0-.26.64.07.07,0,0,1-.05.07,1.18,1.18,0,0,0-.15.52.81.81,0,0,0,.31.43.06.06,0,0,1,.05,0l.06,0a6.11,6.11,0,0,1,1-.08A1.29,1.29,0,0,0,145.61,2l.29,0A6.81,6.81,0,0,1,147,2.1V.73a27,27,0,0,1-4,.37h-.11a26.68,26.68,0,0,0-3.75-.58,2.63,2.63,0,0,0-1.37,0h-.23a22.55,22.55,0,0,0-3.44,0h-.23c-2.62,0-4.38.09-7,0V.31c-.4.15-.67-.09-1.26,0-.94-.14-1.29.16-1.95,0-.28,0-.82-.14-.92.06l-.57,0-.69,0c0,.07,0,.18-.12.18s0-.11-.11-.1a5.91,5.91,0,0,0-1.38,0c-.82-.11-1.22,0-2.17-.07-.72.08-1.66,0-2.3.11h-.11c.09-.15-.53-.17-.46,0h-.23a3.13,3.13,0,0,1-.92,0h-.11l-.69,0c-.09,0-.23,0-.23.08a2.7,2.7,0,0,0-1.37,0h-.11c-.93-.08-1.76.15-2.76.1V.64h-.11c-.92.07-3.8-.22-4.71.22,0,0,.12-.18.12-.18a12.94,12.94,0,0,0-3.21,0c-1.76.06-3.51.06-5.39.1H95C92.55.62,91.36.83,89,.64c0-.16-.1-.22-.33-.19H88.6V.35c-.45,0-1.64.4-1.4,0A11.27,11.27,0,0,0,82.86.14a15.44,15.44,0,0,0-4.37.23c.06,0-1.69.21-1.83.21C73.6.62,73.23.71,71,.81V2.27a6.71,6.71,0,0,1,.61.42Z"/></g></g></svg>